{"glyphs":{"0":{"ha":833,"x_min":96,"x_max":763,"o":"m 410 -11 q 176 97 256 -11 q 96 413 96 206 q 188 839 96 688 q 447 990 281 990 q 683 882 603 990 q 763 567 763 774 q 670 140 763 292 q 410 -11 578 -11 m 413 46 q 627 181 554 46 q 700 579 700 317 q 638 846 700 758 q 447 933 575 933 q 232 799 306 933 q 158 400 158 664 q 221 133 158 221 q 413 46 283 46 z "},"1":{"ha":833,"x_min":171,"x_max":674,"o":"m 649 53 q 667 45 660 53 q 674 26 674 38 q 667 8 674 17 q 650 0 660 0 l 197 0 q 178 8 186 0 q 171 28 171 17 q 178 45 171 38 q 194 53 185 53 l 394 53 l 463 900 l 296 796 q 279 790 289 790 q 260 799 268 790 q 251 819 251 808 q 265 844 251 835 l 468 972 l 468 974 l 485 983 q 503 990 496 990 q 519 983 513 990 q 525 968 525 976 l 453 53 l 649 53 z "},"2":{"ha":833,"x_min":103,"x_max":726,"o":"m 699 53 q 715 47 711 53 q 719 29 719 40 q 713 10 719 19 q 694 0 707 0 l 129 0 q 110 7 118 0 q 103 25 103 14 q 114 50 103 39 l 494 439 q 628 606 590 536 q 667 754 667 676 q 615 885 667 836 q 476 935 563 935 q 324 907 393 935 q 190 824 254 879 q 167 813 179 813 q 151 819 157 813 q 144 836 144 826 q 161 871 144 854 q 301 958 218 925 q 471 990 383 990 q 657 927 588 990 q 726 756 726 864 q 681 581 726 665 q 529 389 636 497 l 193 53 l 699 53 z "},"3":{"ha":833,"x_min":79,"x_max":726,"o":"m 542 500 q 665 422 621 479 q 708 279 708 365 q 622 69 708 147 q 393 -10 536 -10 q 226 20 304 -10 q 89 104 149 50 q 79 128 79 114 q 88 150 79 140 q 107 160 96 160 q 132 147 119 160 q 397 46 244 46 q 581 106 514 46 q 649 275 649 165 q 588 422 649 372 q 407 471 526 471 l 329 471 q 310 478 317 471 q 303 499 303 486 q 309 517 303 510 q 326 525 315 525 l 406 525 q 595 590 524 525 q 667 763 667 656 q 613 888 667 840 q 472 935 560 935 q 323 907 392 935 q 190 824 254 879 q 167 813 179 813 q 151 819 157 813 q 144 836 144 826 q 161 871 144 854 q 300 958 217 925 q 472 990 383 990 q 657 927 588 990 q 726 758 726 864 q 676 601 726 672 q 542 500 626 531 z "},"4":{"ha":833,"x_min":71,"x_max":771,"o":"m 746 285 q 763 277 756 285 q 771 258 771 269 q 764 239 771 247 q 747 231 757 231 l 607 231 l 590 19 q 581 1 589 8 q 563 -7 574 -7 q 541 2 550 -7 q 532 25 532 11 l 549 231 l 114 231 l 111 228 l 111 231 l 108 231 q 82 238 93 231 q 71 256 71 244 q 81 279 71 268 l 613 972 q 642 988 626 988 q 660 980 653 988 q 665 960 667 972 l 611 285 l 746 285 m 553 285 l 599 860 l 156 285 l 553 285 z "},"5":{"ha":833,"x_min":119,"x_max":771,"o":"m 258 925 l 225 497 q 329 575 265 546 q 463 604 393 604 q 672 527 593 604 q 750 322 750 450 q 708 150 750 225 q 593 33 667 75 q 425 -10 519 -10 q 265 20 342 -10 q 132 101 188 50 q 119 131 119 114 q 126 151 119 143 q 144 160 133 160 q 172 147 158 160 q 290 73 225 100 q 428 46 356 46 q 617 122 546 46 q 688 322 688 197 q 627 485 688 424 q 468 547 567 547 q 325 515 388 547 q 222 421 263 483 q 192 406 210 406 q 169 416 178 406 q 161 446 160 426 l 201 949 q 213 971 203 963 q 235 979 222 979 l 744 979 q 764 971 757 979 q 771 951 771 963 q 746 925 771 925 l 258 925 z "},"6":{"ha":832,"x_min":100,"x_max":799,"o":"m 786 867 q 799 838 799 853 q 791 817 799 825 q 772 810 783 810 q 740 826 753 810 q 628 906 693 878 q 492 935 564 935 q 265 817 351 935 q 163 479 179 699 l 157 414 q 269 553 193 501 q 443 604 344 604 q 603 567 535 604 q 710 463 672 531 q 749 308 749 396 q 708 144 749 217 q 597 30 668 71 q 438 -11 526 -11 q 188 97 276 -11 q 100 403 100 204 q 149 713 100 581 q 285 918 197 846 q 492 990 374 990 q 653 960 578 990 q 786 867 729 929 m 442 547 q 310 513 368 547 q 218 419 251 479 q 185 285 185 360 q 254 111 185 178 q 438 44 324 44 q 618 118 549 44 q 688 310 688 192 q 620 482 688 417 q 442 547 553 547 z "},"7":{"ha":833,"x_min":161,"x_max":774,"o":"m 744 979 q 765 972 757 979 q 774 953 774 964 q 768 933 774 943 l 233 1 q 210 -14 226 -14 q 190 -6 199 -14 q 181 13 181 1 q 185 26 181 21 l 703 926 l 190 926 q 170 935 179 926 q 161 953 161 943 q 169 972 161 965 q 189 979 176 979 l 744 979 z "},"8":{"ha":833,"x_min":72,"x_max":763,"o":"m 581 499 q 749 258 749 444 q 708 119 749 179 q 589 25 667 58 q 406 -8 511 -8 q 157 57 242 -8 q 72 250 72 122 q 127 409 72 339 q 276 504 182 479 q 168 586 206 531 q 131 719 131 642 q 171 861 131 800 q 285 956 211 922 q 457 990 358 990 q 682 926 601 990 q 763 753 763 861 q 714 594 763 661 q 581 499 665 526 m 193 718 q 256 576 193 628 q 440 525 319 525 q 633 585 565 525 q 700 749 700 644 q 638 885 700 836 q 456 935 576 935 q 261 877 329 935 q 193 718 193 819 m 401 49 q 612 103 538 49 q 686 260 686 158 q 623 418 686 368 q 415 468 560 468 q 207 413 279 468 q 135 244 135 357 q 200 98 135 147 q 401 49 265 49 z "},"9":{"ha":833,"x_min":60,"x_max":758,"o":"m 422 990 q 671 882 583 990 q 758 576 758 774 q 710 266 758 399 q 573 61 661 133 q 367 -11 485 -11 q 205 19 281 -11 q 72 113 129 50 q 60 142 60 128 q 67 162 60 154 q 86 169 75 169 q 118 153 106 169 q 231 73 168 101 q 367 44 294 44 q 592 163 507 44 q 696 500 678 281 l 701 565 q 590 426 665 478 q 415 375 514 375 q 255 412 324 375 q 148 516 186 449 q 110 671 110 583 q 150 835 110 763 q 262 949 190 908 q 422 990 333 990 m 417 432 q 549 466 490 432 q 641 560 608 500 q 674 694 674 619 q 604 868 674 801 q 421 935 535 935 q 241 862 310 935 q 172 669 172 789 q 239 497 172 563 q 417 432 306 432 z "},"\u0000":{"ha":0,"x_min":0,"x_max":0,"o":""},"\r":{"ha":342,"x_min":0,"x_max":0,"o":""}," ":{"ha":342,"x_min":0,"x_max":0,"o":""},"A":{"ha":992,"x_min":31,"x_max":914,"o":"m 911 35 q 914 21 914 24 q 906 1 914 8 q 886 -7 897 -7 q 856 17 865 -7 l 765 271 l 217 271 l 85 11 q 60 -7 76 -7 q 40 1 49 -7 q 31 22 31 10 q 35 39 31 31 l 507 960 q 523 979 513 972 q 544 986 533 986 q 567 978 557 986 q 583 954 578 969 l 911 35 m 746 326 l 540 906 l 246 326 l 746 326 z "},"Á":{"ha":992,"x_min":31,"x_max":914,"o":"m 911 35 q 914 21 914 24 q 906 1 914 8 q 886 -7 897 -7 q 856 17 865 -7 l 765 271 l 217 271 l 85 11 q 60 -7 76 -7 q 40 1 49 -7 q 31 22 31 10 q 35 39 31 31 l 507 960 q 523 979 513 972 q 544 986 533 986 q 567 978 557 986 q 583 954 578 969 l 911 35 m 746 326 l 540 906 l 246 326 l 746 326 m 581 1067 q 558 1056 569 1056 q 547 1060 551 1056 q 542 1072 542 1065 q 547 1089 542 1082 l 668 1256 q 708 1281 685 1281 q 730 1272 721 1281 q 739 1251 739 1264 q 722 1217 739 1236 l 581 1067 z "},"Ă":{"ha":992,"x_min":31,"x_max":914,"o":"m 911 35 q 914 21 914 24 q 906 1 914 8 q 886 -7 897 -7 q 856 17 865 -7 l 765 271 l 217 271 l 85 11 q 60 -7 76 -7 q 40 1 49 -7 q 31 22 31 10 q 35 39 31 31 l 507 960 q 523 979 513 972 q 544 986 533 986 q 567 978 557 986 q 583 954 578 969 l 911 35 m 746 326 l 540 906 l 246 326 l 746 326 m 554 1081 q 437 1112 488 1081 q 361 1207 386 1143 q 358 1222 358 1213 q 367 1244 358 1236 q 388 1253 375 1253 q 419 1229 410 1253 q 476 1159 443 1181 q 557 1138 510 1138 q 642 1159 606 1138 q 710 1229 679 1181 q 747 1253 724 1253 q 768 1246 760 1253 q 776 1226 776 1239 q 771 1207 776 1217 q 679 1112 736 1143 q 554 1081 622 1081 z "},"Ắ":{"ha":992,"x_min":31,"x_max":914,"o":"m 911 35 q 914 21 914 24 q 906 1 914 8 q 886 -7 897 -7 q 856 17 865 -7 l 765 271 l 217 271 l 85 11 q 60 -7 76 -7 q 40 1 49 -7 q 31 22 31 10 q 35 39 31 31 l 507 960 q 523 979 513 972 q 544 986 533 986 q 567 978 557 986 q 583 954 578 969 l 911 35 m 746 326 l 540 906 l 246 326 l 746 326 m 585 1203 q 564 1193 575 1193 q 553 1197 557 1193 q 549 1208 549 1201 q 556 1225 549 1215 l 675 1386 q 715 1411 694 1411 q 740 1401 729 1411 q 750 1375 750 1390 q 739 1350 750 1361 l 585 1203 m 551 1056 q 433 1087 485 1056 q 358 1182 382 1118 q 354 1199 354 1190 q 363 1219 354 1211 q 383 1228 371 1228 q 419 1203 408 1228 q 475 1135 443 1156 q 554 1114 507 1114 q 635 1135 600 1114 q 703 1203 671 1157 q 744 1228 718 1228 q 764 1221 756 1228 q 772 1203 772 1214 q 767 1182 772 1192 q 676 1087 732 1118 q 551 1056 619 1056 z "},"Ặ":{"ha":992,"x_min":31,"x_max":914,"o":"m 911 35 q 914 21 914 24 q 906 1 914 8 q 886 -7 897 -7 q 856 17 865 -7 l 765 271 l 217 271 l 85 11 q 60 -7 76 -7 q 40 1 49 -7 q 31 22 31 10 q 35 39 31 31 l 507 960 q 523 979 513 972 q 544 986 533 986 q 567 978 557 986 q 583 954 578 969 l 911 35 m 746 326 l 540 906 l 246 326 l 746 326 m 454 -247 q 416 -233 431 -247 q 401 -196 401 -219 q 416 -158 401 -172 q 454 -144 431 -144 q 492 -158 478 -144 q 507 -196 507 -172 q 492 -233 507 -219 q 454 -247 478 -247 m 554 1081 q 437 1112 488 1081 q 361 1207 386 1143 q 358 1222 358 1213 q 367 1244 358 1236 q 388 1253 375 1253 q 419 1229 410 1253 q 476 1159 443 1181 q 557 1138 510 1138 q 642 1159 606 1138 q 710 1229 679 1181 q 747 1253 724 1253 q 768 1246 760 1253 q 776 1226 776 1239 q 771 1207 776 1217 q 679 1112 736 1143 q 554 1081 622 1081 z "},"Ằ":{"ha":992,"x_min":31,"x_max":914,"o":"m 911 35 q 914 21 914 24 q 906 1 914 8 q 886 -7 897 -7 q 856 17 865 -7 l 765 271 l 217 271 l 85 11 q 60 -7 76 -7 q 40 1 49 -7 q 31 22 31 10 q 35 39 31 31 l 507 960 q 523 979 513 972 q 544 986 533 986 q 567 978 557 986 q 583 954 578 969 l 911 35 m 746 326 l 540 906 l 246 326 l 746 326 m 414 1353 q 403 1382 403 1368 q 411 1404 403 1396 q 432 1413 419 1413 q 471 1386 454 1413 l 567 1231 q 571 1215 571 1222 q 565 1201 571 1207 q 551 1194 560 1194 q 529 1208 539 1194 l 414 1353 m 551 1056 q 433 1087 485 1056 q 358 1182 382 1118 q 354 1199 354 1190 q 363 1219 354 1211 q 383 1228 371 1228 q 419 1203 408 1228 q 475 1135 443 1156 q 554 1114 507 1114 q 635 1135 600 1114 q 703 1203 671 1157 q 744 1228 718 1228 q 764 1221 756 1228 q 772 1203 772 1214 q 767 1182 772 1192 q 676 1087 732 1118 q 551 1056 619 1056 z "},"Ẳ":{"ha":992,"x_min":31,"x_max":914,"o":"m 911 35 q 914 21 914 24 q 906 1 914 8 q 886 -7 897 -7 q 856 17 865 -7 l 765 271 l 217 271 l 85 11 q 60 -7 76 -7 q 40 1 49 -7 q 31 22 31 10 q 35 39 31 31 l 507 960 q 523 979 513 972 q 544 986 533 986 q 567 978 557 986 q 583 954 578 969 l 911 35 m 746 326 l 540 906 l 246 326 l 746 326 m 593 1218 q 583 1201 592 1207 q 567 1194 575 1194 q 549 1202 557 1194 q 542 1225 542 1210 q 556 1260 542 1249 q 597 1283 571 1272 q 629 1300 619 1293 q 639 1319 639 1307 q 623 1340 639 1332 q 579 1347 607 1347 q 506 1335 544 1347 q 494 1333 501 1333 q 475 1341 482 1333 q 468 1358 468 1349 q 492 1389 468 1381 q 582 1406 533 1406 q 673 1383 640 1406 q 706 1326 706 1361 q 688 1283 706 1297 q 639 1253 671 1268 q 593 1218 596 1238 m 551 1056 q 434 1087 485 1056 q 358 1182 383 1118 q 356 1199 356 1188 q 364 1219 356 1211 q 385 1228 372 1228 q 419 1203 408 1228 q 475 1135 443 1156 q 554 1114 507 1114 q 636 1135 600 1114 q 704 1203 672 1157 q 744 1228 719 1228 q 765 1221 757 1228 q 774 1201 774 1214 q 768 1182 774 1192 q 676 1087 733 1118 q 551 1056 619 1056 z "},"Ẵ":{"ha":992,"x_min":31,"x_max":914,"o":"m 911 35 q 914 21 914 24 q 906 1 914 8 q 886 -7 897 -7 q 856 17 865 -7 l 765 271 l 217 271 l 85 11 q 60 -7 76 -7 q 40 1 49 -7 q 31 22 31 10 q 35 39 31 31 l 507 960 q 523 979 513 972 q 544 986 533 986 q 567 978 557 986 q 583 954 578 969 l 911 35 m 746 326 l 540 906 l 246 326 l 746 326 m 665 1276 q 617 1286 642 1276 q 560 1314 593 1296 q 514 1335 532 1328 q 481 1343 496 1343 q 438 1331 453 1343 q 407 1299 422 1319 q 385 1279 394 1279 q 369 1287 375 1279 q 364 1306 364 1294 q 380 1351 364 1328 q 424 1390 396 1374 q 486 1406 451 1406 q 531 1397 508 1406 q 593 1369 554 1389 q 639 1347 622 1354 q 671 1340 656 1340 q 713 1351 699 1340 q 744 1383 728 1363 q 767 1403 757 1403 q 783 1395 776 1403 q 789 1376 789 1388 q 773 1332 789 1356 q 728 1292 757 1308 q 665 1276 700 1276 m 553 1056 q 435 1087 486 1056 q 360 1182 385 1118 q 357 1199 357 1188 q 365 1219 357 1211 q 386 1228 374 1228 q 421 1203 410 1228 q 476 1135 444 1156 q 556 1114 508 1114 q 638 1135 601 1114 q 706 1203 674 1157 q 746 1228 721 1228 q 767 1221 758 1228 q 775 1201 775 1214 q 769 1182 775 1192 q 678 1087 735 1118 q 553 1056 621 1056 z "},"Â":{"ha":992,"x_min":31,"x_max":914,"o":"m 911 35 q 914 21 914 24 q 906 1 914 8 q 886 -7 897 -7 q 856 17 865 -7 l 765 271 l 217 271 l 85 11 q 60 -7 76 -7 q 40 1 49 -7 q 31 22 31 10 q 35 39 31 31 l 507 960 q 523 979 513 972 q 544 986 533 986 q 567 978 557 986 q 583 954 578 969 l 911 35 m 746 326 l 540 906 l 246 326 l 746 326 m 447 1065 q 422 1053 439 1053 q 399 1063 408 1053 q 389 1086 389 1074 q 396 1104 389 1094 l 531 1257 q 572 1279 550 1279 q 608 1257 594 1279 l 713 1110 q 721 1085 721 1097 q 713 1064 721 1072 q 693 1056 704 1056 q 660 1076 674 1056 l 568 1219 l 447 1065 z "},"Ấ":{"ha":992,"x_min":31,"x_max":914,"o":"m 911 35 q 914 21 914 24 q 906 1 914 8 q 886 -7 897 -7 q 856 17 865 -7 l 765 271 l 217 271 l 85 11 q 60 -7 76 -7 q 40 1 49 -7 q 31 22 31 10 q 35 39 31 31 l 507 960 q 523 979 513 972 q 544 986 533 986 q 567 978 557 986 q 583 954 578 969 l 911 35 m 746 326 l 540 906 l 246 326 l 746 326 m 726 1204 q 710 1196 718 1196 q 697 1201 703 1196 q 692 1215 692 1207 q 697 1232 692 1225 l 811 1386 q 851 1408 828 1408 q 876 1399 867 1408 q 886 1376 886 1390 q 865 1338 886 1358 l 726 1204 m 449 1067 q 422 1053 436 1053 q 398 1063 408 1053 q 388 1086 388 1072 q 394 1104 388 1094 l 531 1260 q 572 1282 550 1282 q 608 1260 594 1282 l 713 1110 q 721 1086 721 1097 q 712 1065 721 1074 q 692 1056 703 1056 q 658 1078 672 1056 l 568 1222 l 449 1067 z "},"Ậ":{"ha":992,"x_min":31,"x_max":914,"o":"m 911 35 q 914 21 914 24 q 906 1 914 8 q 886 -7 897 -7 q 856 17 865 -7 l 765 271 l 217 271 l 85 11 q 60 -7 76 -7 q 40 1 49 -7 q 31 22 31 10 q 35 39 31 31 l 507 960 q 523 979 513 972 q 544 986 533 986 q 567 978 557 986 q 583 954 578 969 l 911 35 m 746 326 l 540 906 l 246 326 l 746 326 m 454 -247 q 416 -233 431 -247 q 401 -196 401 -219 q 416 -158 401 -172 q 454 -144 431 -144 q 492 -158 478 -144 q 507 -196 507 -172 q 492 -233 507 -219 q 454 -247 478 -247 m 447 1065 q 422 1053 439 1053 q 399 1063 408 1053 q 389 1086 389 1074 q 396 1104 389 1094 l 531 1257 q 572 1279 550 1279 q 608 1257 594 1279 l 713 1110 q 721 1085 721 1097 q 713 1064 721 1072 q 693 1056 704 1056 q 660 1076 674 1056 l 568 1219 l 447 1065 z "},"Ầ":{"ha":992,"x_min":31,"x_max":914,"o":"m 911 35 q 914 21 914 24 q 906 1 914 8 q 886 -7 897 -7 q 856 17 865 -7 l 765 271 l 217 271 l 85 11 q 60 -7 76 -7 q 40 1 49 -7 q 31 22 31 10 q 35 39 31 31 l 507 960 q 523 979 513 972 q 544 986 533 986 q 567 978 557 986 q 583 954 578 969 l 911 35 m 746 326 l 540 906 l 246 326 l 746 326 m 774 1235 q 779 1219 779 1228 q 772 1201 779 1208 q 753 1193 764 1193 q 736 1200 746 1193 l 621 1335 q 603 1374 603 1353 q 617 1405 603 1392 q 649 1418 631 1418 q 692 1390 675 1418 l 774 1235 m 449 1067 q 422 1053 436 1053 q 398 1063 408 1053 q 388 1086 388 1072 q 394 1104 388 1094 l 531 1260 q 572 1282 550 1282 q 608 1260 594 1282 l 713 1110 q 721 1086 721 1097 q 712 1065 721 1074 q 692 1056 703 1056 q 658 1078 672 1056 l 568 1222 l 449 1067 z "},"Ẩ":{"ha":992,"x_min":31,"x_max":914,"o":"m 911 35 q 914 21 914 24 q 906 1 914 8 q 886 -7 897 -7 q 856 17 865 -7 l 765 271 l 217 271 l 85 11 q 60 -7 76 -7 q 40 1 49 -7 q 31 22 31 10 q 35 39 31 31 l 507 960 q 523 979 513 972 q 544 986 533 986 q 567 978 557 986 q 583 954 578 969 l 911 35 m 746 326 l 540 906 l 246 326 l 746 326 m 731 1219 q 722 1202 729 1208 q 704 1196 714 1196 q 686 1205 694 1196 q 679 1229 678 1214 q 695 1260 681 1250 q 738 1285 710 1271 q 769 1301 758 1293 q 779 1321 779 1310 q 762 1341 779 1333 q 717 1349 744 1349 q 643 1338 686 1349 q 631 1336 639 1336 q 612 1343 618 1336 q 606 1358 606 1350 q 612 1377 606 1368 q 631 1390 618 1386 q 719 1407 672 1407 q 813 1385 781 1407 q 846 1328 846 1364 q 828 1282 846 1297 q 775 1253 810 1267 q 742 1235 753 1242 q 731 1219 732 1229 m 449 1067 q 422 1053 436 1053 q 398 1063 408 1053 q 388 1086 388 1072 q 394 1104 388 1094 l 531 1260 q 572 1282 550 1282 q 608 1260 594 1282 l 713 1110 q 721 1086 721 1097 q 712 1065 721 1074 q 692 1056 703 1056 q 658 1078 672 1056 l 568 1222 l 449 1067 z "},"Ẫ":{"ha":992,"x_min":31,"x_max":914,"o":"m 911 35 q 914 21 914 24 q 906 1 914 8 q 886 -7 897 -7 q 856 17 865 -7 l 765 271 l 217 271 l 85 11 q 60 -7 76 -7 q 40 1 49 -7 q 31 22 31 10 q 35 39 31 31 l 507 960 q 523 979 513 972 q 544 986 533 986 q 567 978 557 986 q 583 954 578 969 l 911 35 m 746 326 l 540 906 l 246 326 l 746 326 m 386 1300 q 371 1308 376 1300 q 365 1326 365 1315 q 381 1370 365 1347 q 425 1408 397 1393 q 488 1422 453 1422 q 535 1413 511 1422 q 594 1388 558 1404 q 617 1376 599 1385 q 649 1364 635 1368 q 672 1360 663 1360 q 715 1371 700 1360 q 746 1401 731 1382 q 768 1419 758 1419 q 784 1412 778 1419 q 790 1393 790 1404 q 755 1328 790 1358 q 667 1297 719 1297 q 621 1306 644 1297 q 561 1331 597 1314 q 482 1358 508 1358 q 440 1348 454 1358 q 408 1318 425 1338 q 386 1300 396 1300 m 449 1067 q 422 1053 436 1053 q 398 1063 408 1053 q 388 1086 388 1072 q 394 1104 388 1094 l 531 1260 q 572 1282 550 1282 q 608 1260 594 1282 l 713 1110 q 721 1086 721 1097 q 712 1065 721 1074 q 692 1056 703 1056 q 658 1078 672 1056 l 568 1222 l 449 1067 z "},"Ȁ":{"ha":992,"x_min":31,"x_max":914,"o":"m 911 35 q 914 21 914 24 q 906 1 914 8 q 886 -7 897 -7 q 856 17 865 -7 l 765 271 l 217 271 l 85 11 q 60 -7 76 -7 q 40 1 49 -7 q 31 22 31 10 q 35 39 31 31 l 507 960 q 523 979 513 972 q 544 986 533 986 q 567 978 557 986 q 583 954 578 969 l 911 35 m 746 326 l 540 906 l 246 326 l 746 326 m 364 1222 q 358 1242 358 1232 q 369 1267 358 1256 q 393 1278 379 1278 q 426 1247 417 1278 l 490 1081 q 492 1074 492 1078 q 487 1060 492 1065 q 475 1056 482 1056 q 460 1064 467 1056 l 364 1222 m 515 1222 q 510 1242 510 1232 q 520 1267 510 1256 q 544 1278 531 1278 q 579 1247 568 1278 l 643 1081 l 644 1075 q 639 1061 644 1067 q 626 1056 633 1056 q 613 1064 618 1056 l 515 1222 z "},"Ä":{"ha":992,"x_min":31,"x_max":914,"o":"m 911 35 q 914 21 914 24 q 906 1 914 8 q 886 -7 897 -7 q 856 17 865 -7 l 765 271 l 217 271 l 85 11 q 60 -7 76 -7 q 40 1 49 -7 q 31 22 31 10 q 35 39 31 31 l 507 960 q 523 979 513 972 q 544 986 533 986 q 567 978 557 986 q 583 954 578 969 l 911 35 m 746 326 l 540 906 l 246 326 l 746 326 m 451 1119 q 416 1133 431 1119 q 401 1168 401 1147 q 416 1203 401 1189 q 451 1217 431 1217 q 485 1203 471 1217 q 500 1168 500 1189 q 486 1133 500 1147 q 451 1119 472 1119 m 674 1119 q 639 1133 653 1119 q 625 1168 625 1147 q 640 1203 625 1189 q 674 1217 654 1217 q 709 1203 694 1217 q 724 1168 724 1189 q 709 1133 724 1147 q 674 1119 694 1119 z "},"Ạ":{"ha":992,"x_min":31,"x_max":914,"o":"m 911 35 q 914 21 914 24 q 906 1 914 8 q 886 -7 897 -7 q 856 17 865 -7 l 765 271 l 217 271 l 85 11 q 60 -7 76 -7 q 40 1 49 -7 q 31 22 31 10 q 35 39 31 31 l 507 960 q 523 979 513 972 q 544 986 533 986 q 567 978 557 986 q 583 954 578 969 l 911 35 m 746 326 l 540 906 l 246 326 l 746 326 m 454 -247 q 416 -233 431 -247 q 401 -196 401 -219 q 416 -158 401 -172 q 454 -144 431 -144 q 492 -158 478 -144 q 507 -196 507 -172 q 492 -233 507 -219 q 454 -247 478 -247 z "},"À":{"ha":992,"x_min":31,"x_max":914,"o":"m 911 35 q 914 21 914 24 q 906 1 914 8 q 886 -7 897 -7 q 856 17 865 -7 l 765 271 l 217 271 l 85 11 q 60 -7 76 -7 q 40 1 49 -7 q 31 22 31 10 q 35 39 31 31 l 507 960 q 523 979 513 972 q 544 986 533 986 q 567 978 557 986 q 583 954 578 969 l 911 35 m 746 326 l 540 906 l 246 326 l 746 326 m 406 1225 q 396 1253 396 1239 q 405 1274 396 1265 q 426 1282 414 1282 q 463 1257 449 1282 l 563 1088 q 567 1074 567 1082 q 561 1060 567 1065 q 547 1056 556 1056 q 526 1067 533 1056 l 406 1225 z "},"Ả":{"ha":992,"x_min":31,"x_max":914,"o":"m 911 35 q 914 21 914 24 q 906 1 914 8 q 886 -7 897 -7 q 856 17 865 -7 l 765 271 l 217 271 l 85 11 q 60 -7 76 -7 q 40 1 49 -7 q 31 22 31 10 q 35 39 31 31 l 507 960 q 523 979 513 972 q 544 986 533 986 q 567 978 557 986 q 583 954 578 969 l 911 35 m 746 326 l 540 906 l 246 326 l 746 326 m 586 1078 q 576 1061 585 1067 q 557 1056 568 1056 q 537 1064 546 1056 q 529 1088 528 1072 q 547 1124 531 1110 q 589 1151 563 1138 q 620 1172 611 1165 q 629 1192 629 1179 q 571 1218 629 1218 q 497 1207 531 1218 q 485 1206 493 1206 q 465 1213 472 1206 q 458 1229 458 1219 q 465 1247 458 1239 q 483 1260 471 1256 q 574 1276 525 1276 q 663 1255 631 1276 q 696 1196 696 1233 q 679 1149 696 1164 q 631 1117 663 1133 q 599 1098 610 1106 q 586 1078 588 1090 z "},"Ȃ":{"ha":992,"x_min":31,"x_max":914,"o":"m 911 35 q 914 21 914 24 q 906 1 914 8 q 886 -7 897 -7 q 856 17 865 -7 l 765 271 l 217 271 l 85 11 q 60 -7 76 -7 q 40 1 49 -7 q 31 22 31 10 q 35 39 31 31 l 507 960 q 523 979 513 972 q 544 986 533 986 q 567 978 557 986 q 583 954 578 969 l 911 35 m 746 326 l 540 906 l 246 326 l 746 326 m 569 1253 q 688 1222 636 1253 q 763 1126 739 1190 q 765 1110 765 1121 q 758 1089 765 1097 q 738 1081 750 1081 q 704 1106 715 1081 q 647 1174 681 1153 q 567 1196 614 1196 q 483 1174 519 1196 q 414 1106 446 1153 q 375 1081 400 1081 q 355 1088 363 1081 q 347 1107 347 1094 q 353 1126 347 1117 q 444 1222 388 1190 q 569 1253 501 1253 z "},"Ā":{"ha":992,"x_min":31,"x_max":914,"o":"m 911 35 q 914 21 914 24 q 906 1 914 8 q 886 -7 897 -7 q 856 17 865 -7 l 765 271 l 217 271 l 85 11 q 60 -7 76 -7 q 40 1 49 -7 q 31 22 31 10 q 35 39 31 31 l 507 960 q 523 979 513 972 q 544 986 533 986 q 567 978 557 986 q 583 954 578 969 l 911 35 m 746 326 l 540 906 l 246 326 l 746 326 m 392 1139 q 354 1168 354 1139 q 365 1190 354 1182 q 396 1197 376 1197 l 733 1197 q 771 1168 771 1197 q 760 1147 771 1154 q 729 1139 749 1139 l 392 1139 z "},"Ą":{"ha":992,"x_min":29,"x_max":972,"o":"m 932 -192 q 951 -186 942 -186 q 967 -192 961 -186 q 972 -207 972 -199 q 966 -226 972 -217 q 950 -242 960 -236 q 856 -264 907 -264 q 751 -228 790 -264 q 713 -132 713 -192 q 747 -23 713 -68 q 846 42 781 22 l 764 271 l 215 271 l 83 11 q 58 -7 75 -7 q 38 1 47 -7 q 29 22 29 10 q 33 39 29 31 l 506 960 q 522 979 511 972 q 543 986 532 986 q 566 978 556 986 q 582 954 576 969 l 910 33 q 913 19 913 22 q 903 -3 913 6 q 882 -10 893 -12 q 804 -41 833 -8 q 775 -122 775 -74 q 799 -188 775 -165 q 864 -211 822 -211 q 896 -206 876 -211 q 932 -192 915 -200 m 744 326 l 538 904 l 244 326 l 744 326 z "},"Å":{"ha":992,"x_min":31,"x_max":914,"o":"m 911 35 q 914 21 914 24 q 906 1 914 8 q 886 -7 897 -7 q 856 17 865 -7 l 765 271 l 217 271 l 85 11 q 60 -7 76 -7 q 40 1 49 -7 q 31 22 31 10 q 35 39 31 31 l 501 947 q 440 994 464 961 q 415 1069 415 1028 q 454 1163 415 1125 q 550 1201 493 1201 q 644 1163 606 1201 q 683 1069 683 1125 q 656 990 683 1024 q 588 944 629 956 l 911 35 m 479 1069 q 499 1017 479 1039 q 550 996 519 996 q 599 1017 579 996 q 619 1069 619 1039 q 600 1122 619 1101 q 550 1143 581 1143 q 499 1122 519 1143 q 479 1069 479 1101 m 746 326 l 540 906 l 246 326 l 746 326 z "},"Ǻ":{"ha":992,"x_min":31,"x_max":914,"o":"m 911 35 q 914 21 914 24 q 906 1 914 8 q 886 -7 897 -7 q 856 17 865 -7 l 765 271 l 217 271 l 85 11 q 60 -7 76 -7 q 40 1 49 -7 q 31 22 31 10 q 35 39 31 31 l 501 947 q 440 994 464 961 q 415 1069 415 1028 q 454 1163 415 1125 q 550 1201 493 1201 q 636 1169 600 1201 l 797 1297 q 829 1310 814 1310 q 858 1297 846 1310 q 869 1269 869 1285 q 840 1228 869 1243 l 665 1136 q 683 1069 683 1104 q 656 990 683 1024 q 588 944 629 956 l 911 35 m 479 1069 q 499 1017 479 1039 q 550 996 519 996 q 599 1017 579 996 q 619 1069 619 1039 q 600 1122 619 1101 q 550 1143 581 1143 q 499 1122 519 1143 q 479 1069 479 1101 m 746 326 l 540 906 l 246 326 l 746 326 z "},"Ã":{"ha":992,"x_min":31,"x_max":914,"o":"m 911 35 q 914 21 914 24 q 906 1 914 8 q 886 -7 897 -7 q 856 17 865 -7 l 765 271 l 217 271 l 85 11 q 60 -7 76 -7 q 40 1 49 -7 q 31 22 31 10 q 35 39 31 31 l 507 960 q 523 979 513 972 q 544 986 533 986 q 567 978 557 986 q 583 954 578 969 l 911 35 m 746 326 l 540 906 l 246 326 l 746 326 m 651 1107 q 546 1143 613 1107 q 503 1163 525 1154 q 467 1171 482 1171 q 425 1160 440 1171 q 394 1128 410 1149 q 371 1108 381 1108 q 356 1116 361 1108 q 350 1133 350 1124 q 367 1177 350 1154 q 411 1215 383 1200 q 474 1231 439 1231 q 579 1194 513 1231 q 622 1175 600 1183 q 658 1167 643 1167 q 701 1178 685 1167 q 729 1208 717 1189 q 753 1228 744 1228 q 769 1221 763 1228 q 775 1203 775 1214 q 758 1160 775 1183 q 714 1122 742 1138 q 651 1107 686 1107 z "},"Æ":{"ha":1369,"x_min":11,"x_max":1344,"o":"m 1319 979 q 1338 971 1331 979 q 1344 950 1344 963 q 1338 932 1344 940 q 1321 924 1332 924 l 708 924 l 763 524 l 1257 524 q 1275 515 1268 524 q 1282 496 1282 507 q 1275 478 1282 486 q 1258 469 1268 469 l 769 469 l 825 56 l 1246 56 q 1265 47 1257 56 q 1274 26 1274 38 q 1266 8 1274 17 q 1247 0 1258 0 l 810 0 q 772 33 776 0 l 742 271 l 242 271 l 65 7 q 40 -7 56 -7 q 20 1 29 -7 q 11 21 11 10 q 17 38 11 26 l 640 958 q 678 979 653 979 l 1319 979 m 733 326 l 660 894 l 279 326 l 733 326 z "},"Ǽ":{"ha":1369,"x_min":11,"x_max":1344,"o":"m 1319 979 q 1338 971 1331 979 q 1344 950 1344 963 q 1338 932 1344 940 q 1321 924 1332 924 l 708 924 l 763 524 l 1257 524 q 1275 515 1268 524 q 1282 496 1282 507 q 1275 478 1282 486 q 1258 469 1268 469 l 769 469 l 825 56 l 1246 56 q 1265 47 1257 56 q 1274 26 1274 38 q 1266 8 1274 17 q 1247 0 1258 0 l 810 0 q 772 33 776 0 l 742 271 l 242 271 l 65 7 q 40 -7 56 -7 q 20 1 29 -7 q 11 21 11 10 q 17 38 11 26 l 640 958 q 678 979 653 979 l 1319 979 m 733 326 l 660 894 l 279 326 l 733 326 m 772 1067 q 750 1056 761 1056 q 738 1060 743 1056 q 733 1072 733 1065 q 739 1089 733 1082 l 860 1256 q 900 1281 876 1281 q 922 1272 913 1281 q 931 1251 931 1264 q 914 1217 931 1236 l 772 1067 z "},"B":{"ha":924,"x_min":110,"x_max":836,"o":"m 657 499 q 781 423 739 478 q 822 283 822 368 q 738 74 822 149 q 497 0 653 0 l 147 0 q 120 12 131 0 q 110 40 110 24 l 181 949 q 192 971 182 963 q 214 979 201 979 l 531 979 q 759 919 682 979 q 836 742 836 858 q 790 590 836 654 q 657 499 744 526 m 206 525 l 518 525 q 708 582 639 525 q 776 744 776 639 q 715 879 776 833 q 535 925 654 925 l 238 925 l 206 525 m 501 54 q 694 110 628 54 q 761 272 761 165 q 518 469 761 469 l 201 469 l 169 54 l 501 54 z "},"C":{"ha":940,"x_min":104,"x_max":915,"o":"m 500 -11 q 291 44 381 -11 q 153 201 201 99 q 104 444 104 304 q 159 733 104 610 q 315 924 214 857 q 556 990 417 990 q 908 854 785 990 q 915 835 915 844 q 908 813 915 822 q 889 804 900 804 q 868 815 878 804 q 729 906 803 878 q 551 933 656 933 q 344 875 431 933 q 211 706 257 817 q 165 443 165 596 q 257 149 165 253 q 518 46 349 46 q 810 160 690 46 q 836 174 824 174 q 852 166 846 174 q 858 147 858 158 q 849 124 858 133 q 500 -11 710 -11 z "},"Ć":{"ha":940,"x_min":104,"x_max":915,"o":"m 500 -11 q 291 44 381 -11 q 153 201 201 99 q 104 444 104 304 q 159 733 104 610 q 315 924 214 857 q 556 990 417 990 q 908 854 785 990 q 915 835 915 844 q 908 813 915 822 q 889 804 900 804 q 868 815 878 804 q 729 906 803 878 q 551 933 656 933 q 344 875 431 933 q 211 706 257 817 q 165 443 165 596 q 257 149 165 253 q 518 46 349 46 q 810 160 690 46 q 836 174 824 174 q 852 166 846 174 q 858 147 858 158 q 849 124 858 133 q 500 -11 710 -11 m 615 1067 q 593 1056 604 1056 q 581 1060 586 1056 q 576 1072 576 1065 q 582 1089 576 1082 l 703 1256 q 743 1281 719 1281 q 765 1272 756 1281 q 774 1251 774 1264 q 757 1217 774 1236 l 615 1067 z "},"Č":{"ha":940,"x_min":104,"x_max":915,"o":"m 500 -11 q 291 44 381 -11 q 153 201 201 99 q 104 444 104 304 q 159 733 104 610 q 315 924 214 857 q 556 990 417 990 q 908 854 785 990 q 915 835 915 844 q 908 813 915 822 q 889 804 900 804 q 868 815 878 804 q 729 906 803 878 q 551 933 656 933 q 344 875 431 933 q 211 706 257 817 q 165 443 165 596 q 257 149 165 253 q 518 46 349 46 q 810 160 690 46 q 836 174 824 174 q 852 166 846 174 q 858 147 858 158 q 849 124 858 133 q 500 -11 710 -11 m 713 1267 q 736 1281 722 1281 q 760 1270 750 1281 q 769 1246 769 1260 q 763 1228 769 1238 l 628 1075 q 586 1053 608 1053 q 550 1075 564 1053 l 446 1222 q 438 1247 438 1235 q 446 1268 438 1260 q 467 1276 454 1276 q 499 1257 485 1276 l 590 1113 l 713 1267 z "},"Ç":{"ha":940,"x_min":104,"x_max":915,"o":"m 908 854 q 915 835 915 844 q 908 813 915 822 q 889 804 900 804 q 868 815 878 804 q 729 906 803 878 q 551 933 656 933 q 344 875 431 933 q 211 706 257 817 q 165 443 165 596 q 257 149 165 253 q 518 46 349 46 q 810 160 690 46 q 836 174 824 174 q 852 166 846 174 q 858 147 858 158 q 849 124 858 133 q 518 -11 715 -6 l 508 -62 q 549 -57 524 -57 q 617 -82 592 -57 q 643 -150 643 -107 q 603 -233 643 -203 q 492 -264 563 -264 q 392 -246 439 -264 q 372 -221 372 -237 q 381 -203 372 -211 q 404 -196 390 -196 q 417 -197 413 -196 q 457 -207 440 -204 q 496 -210 474 -210 q 562 -195 539 -210 q 585 -153 585 -181 q 533 -110 585 -110 q 492 -117 511 -110 q 467 -125 472 -125 q 448 -117 456 -125 q 442 -100 440 -110 l 460 -10 q 272 57 351 0 q 148 213 192 114 q 104 444 104 313 q 159 733 104 610 q 315 924 214 857 q 556 990 417 990 q 908 854 785 990 z "},"Ḉ":{"ha":940,"x_min":104,"x_max":915,"o":"m 615 1067 q 593 1056 604 1056 q 581 1060 586 1056 q 576 1072 576 1065 q 582 1089 576 1082 l 703 1256 q 743 1281 719 1281 q 765 1272 756 1281 q 774 1251 774 1264 q 757 1217 774 1236 l 615 1067 m 908 854 q 915 835 915 844 q 908 813 915 822 q 889 804 900 804 q 868 815 878 804 q 729 906 803 878 q 551 933 656 933 q 344 875 431 933 q 211 706 257 817 q 165 443 165 596 q 257 149 165 253 q 518 46 349 46 q 810 160 690 46 q 836 174 824 174 q 852 166 846 174 q 858 147 858 158 q 849 124 858 133 q 518 -11 715 -6 l 508 -62 q 549 -57 524 -57 q 617 -82 592 -57 q 643 -150 643 -107 q 603 -233 643 -203 q 492 -264 563 -264 q 392 -246 439 -264 q 372 -221 372 -237 q 381 -203 372 -211 q 404 -196 390 -196 q 417 -197 413 -196 q 457 -207 440 -204 q 496 -210 474 -210 q 562 -195 539 -210 q 585 -153 585 -181 q 533 -110 585 -110 q 492 -117 511 -110 q 467 -125 472 -125 q 448 -117 456 -125 q 442 -100 440 -110 l 460 -10 q 272 57 351 0 q 148 213 192 114 q 104 444 104 313 q 159 733 104 610 q 315 924 214 857 q 556 990 417 990 q 908 854 785 990 z "},"Ĉ":{"ha":940,"x_min":104,"x_max":915,"o":"m 500 -11 q 291 44 381 -11 q 153 201 201 99 q 104 444 104 304 q 159 733 104 610 q 315 924 214 857 q 556 990 417 990 q 908 854 785 990 q 915 835 915 844 q 908 813 915 822 q 889 804 900 804 q 868 815 878 804 q 729 906 803 878 q 551 933 656 933 q 344 875 431 933 q 211 706 257 817 q 165 443 165 596 q 257 149 165 253 q 518 46 349 46 q 810 160 690 46 q 836 174 824 174 q 852 166 846 174 q 858 147 858 158 q 849 124 858 133 q 500 -11 710 -11 m 482 1065 q 457 1053 474 1053 q 433 1063 443 1053 q 424 1086 424 1074 q 431 1104 424 1094 l 565 1257 q 607 1279 585 1279 q 643 1257 629 1279 l 747 1110 q 756 1085 756 1097 q 747 1064 756 1072 q 728 1056 739 1056 q 694 1076 708 1056 l 603 1219 l 482 1065 z "},"Ċ":{"ha":940,"x_min":104,"x_max":915,"o":"m 500 -11 q 291 44 381 -11 q 153 201 201 99 q 104 444 104 304 q 159 733 104 610 q 315 924 214 857 q 556 990 417 990 q 908 854 785 990 q 915 835 915 844 q 908 813 915 822 q 889 804 900 804 q 868 815 878 804 q 729 906 803 878 q 551 933 656 933 q 344 875 431 933 q 211 706 257 817 q 165 443 165 596 q 257 149 165 253 q 518 46 349 46 q 810 160 690 46 q 836 174 824 174 q 852 166 846 174 q 858 147 858 158 q 849 124 858 133 q 500 -11 710 -11 m 597 1117 q 560 1131 575 1117 q 546 1168 546 1144 q 561 1204 546 1190 q 597 1218 576 1218 q 634 1204 619 1218 q 649 1168 649 1190 q 634 1131 649 1144 q 597 1117 619 1117 z "},"D":{"ha":1007,"x_min":110,"x_max":926,"o":"m 147 0 q 120 12 131 0 q 110 40 110 24 l 181 949 q 192 971 182 963 q 214 979 201 979 l 476 979 q 811 864 696 979 q 926 533 926 749 q 801 142 926 283 q 446 0 676 0 l 147 0 m 447 53 q 758 178 651 53 q 864 535 864 304 q 478 926 864 926 l 238 926 l 169 53 l 447 53 z "},"Ǆ":{"ha":1790,"x_min":110,"x_max":1775,"o":"m 147 0 q 120 12 131 0 q 110 40 110 24 l 181 949 q 192 971 182 963 q 214 979 201 979 l 476 979 q 811 864 696 979 q 926 533 926 749 q 801 142 926 283 q 446 0 676 0 l 147 0 m 447 53 q 758 178 651 53 q 864 535 864 304 q 478 926 864 926 l 238 926 l 169 53 l 447 53 m 1753 979 q 1769 972 1763 979 q 1775 953 1775 964 q 1769 935 1775 942 l 1097 54 l 1693 54 q 1712 46 1704 54 q 1719 26 1719 38 q 1713 8 1719 17 q 1694 0 1706 0 l 1057 0 l 1054 -3 l 1054 0 l 1043 0 q 1026 8 1033 0 q 1018 28 1018 17 q 1024 44 1018 38 l 1697 925 l 1114 925 q 1096 933 1103 925 q 1089 953 1089 942 q 1095 971 1089 963 q 1113 979 1101 979 l 1738 979 l 1740 982 l 1740 979 l 1753 979 m 1568 1267 q 1592 1281 1578 1281 q 1615 1270 1606 1281 q 1625 1246 1625 1260 q 1618 1228 1625 1238 l 1483 1075 q 1442 1053 1464 1053 q 1406 1075 1419 1053 l 1301 1222 q 1293 1247 1293 1235 q 1301 1268 1293 1260 q 1322 1276 1310 1276 q 1354 1257 1340 1276 l 1446 1113 l 1568 1267 z "},"Ð":{"ha":1013,"x_min":13,"x_max":932,"o":"m 482 979 q 817 864 701 979 q 932 533 932 749 q 807 142 932 283 q 453 0 682 0 l 153 0 q 126 13 138 0 q 117 40 115 25 l 150 472 l 44 472 q 21 479 29 472 q 13 499 13 486 q 20 516 13 508 q 40 524 28 524 l 154 524 l 186 949 q 197 971 188 963 q 219 979 207 979 l 482 979 m 453 53 q 763 178 657 53 q 869 535 869 304 q 485 926 869 926 l 243 926 l 211 524 l 454 524 q 486 497 486 524 q 458 472 486 472 l 208 472 l 175 53 l 453 53 z "},"Ď":{"ha":1007,"x_min":110,"x_max":926,"o":"m 147 0 q 120 12 131 0 q 110 40 110 24 l 181 949 q 192 971 182 963 q 214 979 201 979 l 476 979 q 811 864 696 979 q 926 533 926 749 q 801 142 926 283 q 446 0 676 0 l 147 0 m 447 53 q 758 178 651 53 q 864 535 864 304 q 478 926 864 926 l 238 926 l 169 53 l 447 53 m 685 1267 q 708 1281 694 1281 q 732 1270 722 1281 q 742 1246 742 1260 q 735 1228 742 1238 l 600 1075 q 558 1053 581 1053 q 522 1075 536 1053 l 418 1222 q 410 1247 410 1235 q 418 1268 410 1260 q 439 1276 426 1276 q 471 1257 457 1276 l 563 1113 l 685 1267 z "},"Đ":{"ha":1013,"x_min":13,"x_max":932,"o":"m 482 979 q 817 864 701 979 q 932 533 932 749 q 807 142 932 283 q 453 0 682 0 l 153 0 q 126 13 138 0 q 117 40 115 25 l 150 472 l 44 472 q 21 479 29 472 q 13 499 13 486 q 20 516 13 508 q 40 524 28 524 l 154 524 l 186 949 q 197 971 188 963 q 219 979 207 979 l 482 979 m 453 53 q 763 178 657 53 q 869 535 869 304 q 485 926 869 926 l 243 926 l 211 524 l 454 524 q 486 497 486 524 q 458 472 486 472 l 208 472 l 175 53 l 453 53 z "},"Ḍ":{"ha":1007,"x_min":110,"x_max":926,"o":"m 147 0 q 120 12 131 0 q 110 40 110 24 l 181 949 q 192 971 182 963 q 214 979 201 979 l 476 979 q 811 864 696 979 q 926 533 926 749 q 801 142 926 283 q 446 0 676 0 l 147 0 m 447 53 q 758 178 651 53 q 864 535 864 304 q 478 926 864 926 l 238 926 l 169 53 l 447 53 m 463 -247 q 424 -233 439 -247 q 410 -196 410 -219 q 424 -158 410 -172 q 463 -144 439 -144 q 501 -158 486 -144 q 515 -196 515 -172 q 501 -233 515 -219 q 463 -247 486 -247 z "},"Ḏ":{"ha":1007,"x_min":110,"x_max":926,"o":"m 147 0 q 120 12 131 0 q 110 40 110 24 l 181 949 q 192 971 182 963 q 214 979 201 979 l 476 979 q 811 864 696 979 q 926 533 926 749 q 801 142 926 283 q 446 0 676 0 l 147 0 m 447 53 q 758 178 651 53 q 864 535 864 304 q 478 926 864 926 l 238 926 l 169 53 l 447 53 m 292 -225 q 254 -196 254 -225 q 296 -165 254 -165 l 633 -165 q 671 -196 671 -165 q 660 -217 671 -210 q 629 -225 649 -225 l 292 -225 z "},"ǅ":{"ha":1696,"x_min":110,"x_max":1649,"o":"m 147 0 q 120 12 131 0 q 110 40 110 24 l 181 949 q 192 971 182 963 q 214 979 201 979 l 476 979 q 811 864 696 979 q 926 533 926 749 q 801 142 926 283 q 446 0 676 0 l 147 0 m 447 53 q 758 178 651 53 q 864 535 864 304 q 478 926 864 926 l 238 926 l 169 53 l 447 53 m 1628 672 q 1643 666 1638 672 q 1649 650 1649 660 q 1640 625 1649 636 l 1138 51 l 1588 51 q 1605 43 1597 51 q 1613 24 1613 35 q 1606 8 1613 15 q 1589 0 1599 0 l 1067 0 q 1051 6 1057 0 q 1044 19 1044 11 q 1054 40 1044 31 l 1561 622 l 1139 622 q 1123 630 1129 622 q 1117 649 1117 638 q 1122 665 1117 658 q 1138 672 1128 672 l 1628 672 m 1515 1031 q 1542 1047 1525 1047 q 1562 1039 1553 1047 q 1571 1017 1571 1031 q 1564 996 1571 1007 l 1428 783 q 1388 756 1411 756 q 1353 783 1365 756 l 1251 994 q 1247 1011 1247 1003 q 1258 1038 1247 1026 q 1282 1049 1269 1049 q 1304 1032 1296 1049 l 1393 821 l 1515 1031 z "},"E":{"ha":800,"x_min":108,"x_max":775,"o":"m 750 979 q 768 971 761 979 q 775 951 775 963 q 768 933 775 942 q 751 925 761 925 l 238 925 l 206 524 l 686 524 q 706 516 699 524 q 713 496 713 508 q 706 478 713 486 q 688 469 699 469 l 201 469 l 169 54 l 678 54 q 696 46 689 54 q 703 26 703 38 q 697 8 703 17 q 679 0 690 0 l 142 0 q 108 35 108 0 l 181 950 q 213 979 183 979 l 750 979 z "},"É":{"ha":800,"x_min":108,"x_max":775,"o":"m 750 979 q 768 971 761 979 q 775 951 775 963 q 768 933 775 942 q 751 925 761 925 l 238 925 l 206 524 l 686 524 q 706 516 699 524 q 713 496 713 508 q 706 478 713 486 q 688 469 699 469 l 201 469 l 169 54 l 678 54 q 696 46 689 54 q 703 26 703 38 q 697 8 703 17 q 679 0 690 0 l 142 0 q 108 35 108 0 l 181 950 q 213 979 183 979 l 750 979 m 529 1067 q 507 1056 518 1056 q 495 1060 500 1056 q 490 1072 490 1065 q 496 1089 490 1082 l 617 1256 q 657 1281 633 1281 q 678 1272 669 1281 q 688 1251 688 1264 q 671 1217 688 1236 l 529 1067 z "},"Ĕ":{"ha":800,"x_min":108,"x_max":775,"o":"m 750 979 q 768 971 761 979 q 775 951 775 963 q 768 933 775 942 q 751 925 761 925 l 238 925 l 206 524 l 686 524 q 706 516 699 524 q 713 496 713 508 q 706 478 713 486 q 688 469 699 469 l 201 469 l 169 54 l 678 54 q 696 46 689 54 q 703 26 703 38 q 697 8 703 17 q 679 0 690 0 l 142 0 q 108 35 108 0 l 181 950 q 213 979 183 979 l 750 979 m 503 1081 q 385 1112 436 1081 q 310 1207 335 1143 q 307 1222 307 1213 q 315 1244 307 1236 q 336 1253 324 1253 q 368 1229 358 1253 q 425 1159 392 1181 q 506 1138 458 1138 q 591 1159 554 1138 q 658 1229 628 1181 q 696 1253 672 1253 q 717 1246 708 1253 q 725 1226 725 1239 q 719 1207 725 1217 q 628 1112 685 1143 q 503 1081 571 1081 z "},"Ě":{"ha":800,"x_min":108,"x_max":775,"o":"m 750 979 q 768 971 761 979 q 775 951 775 963 q 768 933 775 942 q 751 925 761 925 l 238 925 l 206 524 l 686 524 q 706 516 699 524 q 713 496 713 508 q 706 478 713 486 q 688 469 699 469 l 201 469 l 169 54 l 678 54 q 696 46 689 54 q 703 26 703 38 q 697 8 703 17 q 679 0 690 0 l 142 0 q 108 35 108 0 l 181 950 q 213 979 183 979 l 750 979 m 626 1267 q 650 1281 636 1281 q 674 1270 664 1281 q 683 1246 683 1260 q 676 1228 683 1238 l 542 1075 q 500 1053 522 1053 q 464 1075 478 1053 l 360 1222 q 351 1247 351 1235 q 360 1268 351 1260 q 381 1276 368 1276 q 413 1257 399 1276 l 504 1113 l 626 1267 z "},"Ȩ":{"ha":800,"x_min":108,"x_max":775,"o":"m 750 979 q 768 971 761 979 q 775 951 775 963 q 768 933 775 942 q 751 925 761 925 l 238 925 l 206 524 l 686 524 q 706 516 699 524 q 713 496 713 508 q 706 478 713 486 q 688 469 699 469 l 201 469 l 169 54 l 678 54 q 696 46 689 54 q 703 26 703 38 q 697 8 703 17 q 679 0 690 0 l 436 0 l 425 -62 q 465 -57 440 -57 q 534 -82 508 -57 q 560 -150 560 -107 q 519 -233 560 -203 q 408 -264 479 -264 q 308 -246 356 -264 q 289 -221 289 -237 q 298 -203 289 -211 q 321 -196 307 -196 q 333 -197 329 -196 q 374 -207 357 -204 q 413 -210 390 -210 q 478 -195 456 -210 q 501 -153 501 -181 q 450 -110 501 -110 q 408 -117 428 -110 q 383 -125 389 -125 q 365 -117 372 -125 q 358 -100 357 -110 l 378 0 l 142 0 q 108 35 108 0 l 181 950 q 213 979 183 979 l 750 979 z "},"Ḝ":{"ha":800,"x_min":108,"x_max":775,"o":"m 503 1081 q 385 1112 436 1081 q 310 1207 335 1143 q 307 1222 307 1213 q 316 1244 307 1236 q 336 1253 325 1253 q 368 1229 358 1253 q 425 1159 392 1181 q 506 1138 458 1138 q 591 1159 554 1138 q 658 1229 628 1181 q 696 1253 672 1253 q 717 1246 708 1253 q 725 1226 725 1239 q 719 1207 725 1217 q 628 1112 685 1143 q 503 1081 571 1081 m 750 979 q 768 971 761 979 q 775 951 775 963 q 768 933 775 942 q 751 925 761 925 l 238 925 l 206 524 l 686 524 q 706 516 699 524 q 713 496 713 508 q 706 478 713 486 q 688 469 699 469 l 201 469 l 169 54 l 678 54 q 696 46 689 54 q 703 26 703 38 q 697 8 703 17 q 679 0 690 0 l 436 0 l 425 -62 q 465 -57 440 -57 q 534 -82 508 -57 q 560 -150 560 -107 q 519 -233 560 -203 q 408 -264 479 -264 q 308 -246 356 -264 q 289 -221 289 -237 q 298 -203 289 -211 q 321 -196 307 -196 q 333 -197 329 -196 q 374 -207 357 -204 q 413 -210 390 -210 q 478 -195 456 -210 q 501 -153 501 -181 q 450 -110 501 -110 q 408 -117 428 -110 q 383 -125 389 -125 q 365 -117 372 -125 q 358 -100 357 -110 l 378 0 l 142 0 q 108 35 108 0 l 181 950 q 213 979 183 979 l 750 979 z "},"Ê":{"ha":800,"x_min":108,"x_max":775,"o":"m 750 979 q 768 971 761 979 q 775 951 775 963 q 768 933 775 942 q 751 925 761 925 l 238 925 l 206 524 l 686 524 q 706 516 699 524 q 713 496 713 508 q 706 478 713 486 q 688 469 699 469 l 201 469 l 169 54 l 678 54 q 696 46 689 54 q 703 26 703 38 q 697 8 703 17 q 679 0 690 0 l 142 0 q 108 35 108 0 l 181 950 q 213 979 183 979 l 750 979 m 396 1065 q 371 1053 388 1053 q 347 1063 357 1053 q 338 1086 338 1074 q 344 1104 338 1094 l 479 1257 q 521 1279 499 1279 q 557 1257 543 1279 l 661 1110 q 669 1085 669 1097 q 661 1064 669 1072 q 642 1056 653 1056 q 608 1076 622 1056 l 517 1219 l 396 1065 z "},"Ế":{"ha":800,"x_min":108,"x_max":835,"o":"m 750 979 q 768 971 761 979 q 775 951 775 963 q 768 933 775 942 q 751 925 761 925 l 238 925 l 206 524 l 686 524 q 706 516 699 524 q 713 496 713 508 q 706 478 713 486 q 688 469 699 469 l 201 469 l 169 54 l 678 54 q 696 46 689 54 q 703 26 703 38 q 697 8 703 17 q 679 0 690 0 l 142 0 q 108 35 108 0 l 181 950 q 213 979 183 979 l 750 979 m 675 1204 q 658 1196 667 1196 q 646 1201 651 1196 q 640 1215 640 1207 q 646 1232 640 1225 l 760 1386 q 800 1408 776 1408 q 825 1399 815 1408 q 835 1376 835 1390 q 814 1338 835 1358 l 675 1204 m 397 1067 q 371 1053 385 1053 q 347 1063 357 1053 q 336 1086 336 1072 q 343 1104 336 1094 l 479 1260 q 521 1282 499 1282 q 557 1260 543 1282 l 661 1110 q 669 1086 669 1097 q 660 1065 669 1074 q 640 1056 651 1056 q 607 1078 621 1056 l 517 1222 l 397 1067 z "},"Ệ":{"ha":800,"x_min":108,"x_max":775,"o":"m 750 979 q 768 971 761 979 q 775 951 775 963 q 768 933 775 942 q 751 925 761 925 l 238 925 l 206 524 l 686 524 q 706 516 699 524 q 713 496 713 508 q 706 478 713 486 q 688 469 699 469 l 201 469 l 169 54 l 678 54 q 696 46 689 54 q 703 26 703 38 q 697 8 703 17 q 679 0 690 0 l 142 0 q 108 35 108 0 l 181 950 q 213 979 183 979 l 750 979 m 403 -247 q 365 -233 379 -247 q 350 -196 350 -219 q 365 -158 350 -172 q 403 -144 379 -144 q 441 -158 426 -144 q 456 -196 456 -172 q 441 -233 456 -219 q 403 -247 426 -247 m 396 1065 q 371 1053 388 1053 q 347 1063 357 1053 q 338 1086 338 1074 q 344 1104 338 1094 l 479 1257 q 521 1279 499 1279 q 557 1257 543 1279 l 661 1110 q 669 1085 669 1097 q 661 1064 669 1072 q 642 1056 653 1056 q 608 1076 622 1056 l 517 1219 l 396 1065 z "},"Ề":{"ha":800,"x_min":108,"x_max":775,"o":"m 750 979 q 768 971 761 979 q 775 951 775 963 q 768 933 775 942 q 751 925 761 925 l 238 925 l 206 524 l 686 524 q 706 516 699 524 q 713 496 713 508 q 706 478 713 486 q 688 469 699 469 l 201 469 l 169 54 l 678 54 q 696 46 689 54 q 703 26 703 38 q 697 8 703 17 q 679 0 690 0 l 142 0 q 108 35 108 0 l 181 950 q 213 979 183 979 l 750 979 m 722 1235 q 728 1219 728 1228 q 720 1201 728 1208 q 701 1193 713 1193 q 685 1200 694 1193 l 569 1335 q 551 1374 551 1353 q 565 1405 551 1392 q 597 1418 579 1418 q 640 1390 624 1418 l 722 1235 m 397 1067 q 371 1053 385 1053 q 347 1063 357 1053 q 336 1086 336 1072 q 343 1104 336 1094 l 479 1260 q 521 1282 499 1282 q 557 1260 543 1282 l 661 1110 q 669 1086 669 1097 q 660 1065 669 1074 q 640 1056 651 1056 q 607 1078 621 1056 l 517 1222 l 397 1067 z "},"Ể":{"ha":800,"x_min":108,"x_max":794,"o":"m 750 979 q 768 971 761 979 q 775 951 775 963 q 768 933 775 942 q 751 925 761 925 l 238 925 l 206 524 l 686 524 q 706 516 699 524 q 713 496 713 508 q 706 478 713 486 q 688 469 699 469 l 201 469 l 169 54 l 678 54 q 696 46 689 54 q 703 26 703 38 q 697 8 703 17 q 679 0 690 0 l 142 0 q 108 35 108 0 l 181 950 q 213 979 183 979 l 750 979 m 679 1219 q 670 1202 678 1208 q 653 1196 663 1196 q 635 1205 643 1196 q 628 1229 626 1214 q 644 1260 629 1250 q 686 1285 658 1271 q 717 1301 707 1293 q 728 1321 728 1310 q 710 1341 728 1333 q 665 1349 693 1349 q 592 1338 635 1349 q 579 1336 588 1336 q 560 1343 567 1336 q 554 1358 554 1350 q 560 1377 554 1368 q 579 1390 567 1386 q 668 1407 621 1407 q 762 1385 729 1407 q 794 1328 794 1364 q 776 1282 794 1297 q 724 1253 758 1267 q 691 1235 701 1242 q 679 1219 681 1229 m 397 1067 q 371 1053 385 1053 q 347 1063 357 1053 q 336 1086 336 1072 q 343 1104 336 1094 l 479 1260 q 521 1282 499 1282 q 557 1260 543 1282 l 661 1110 q 669 1086 669 1097 q 660 1065 669 1074 q 640 1056 651 1056 q 607 1078 621 1056 l 517 1222 l 397 1067 z "},"Ễ":{"ha":800,"x_min":108,"x_max":775,"o":"m 750 979 q 768 971 761 979 q 775 951 775 963 q 768 933 775 942 q 751 925 761 925 l 238 925 l 206 524 l 686 524 q 706 516 699 524 q 713 496 713 508 q 706 478 713 486 q 688 469 699 469 l 201 469 l 169 54 l 678 54 q 696 46 689 54 q 703 26 703 38 q 697 8 703 17 q 679 0 690 0 l 142 0 q 108 35 108 0 l 181 950 q 213 979 183 979 l 750 979 m 335 1300 q 319 1308 325 1300 q 314 1326 314 1315 q 330 1370 314 1347 q 374 1408 346 1393 q 436 1422 401 1422 q 483 1413 460 1422 q 543 1388 507 1404 q 565 1376 547 1385 q 597 1364 583 1368 q 621 1360 611 1360 q 664 1371 649 1360 q 694 1401 679 1382 q 717 1419 707 1419 q 733 1412 726 1419 q 739 1393 739 1404 q 703 1328 739 1358 q 615 1297 668 1297 q 569 1306 593 1297 q 510 1331 546 1314 q 431 1358 457 1358 q 388 1348 403 1358 q 357 1318 374 1338 q 335 1300 344 1300 m 397 1067 q 371 1053 385 1053 q 347 1063 357 1053 q 336 1086 336 1072 q 343 1104 336 1094 l 479 1260 q 521 1282 499 1282 q 557 1260 543 1282 l 661 1110 q 669 1086 669 1097 q 660 1065 669 1074 q 640 1056 651 1056 q 607 1078 621 1056 l 517 1222 l 397 1067 z "},"Ȅ":{"ha":800,"x_min":108,"x_max":775,"o":"m 750 979 q 768 971 761 979 q 775 951 775 963 q 768 933 775 942 q 751 925 761 925 l 238 925 l 206 524 l 686 524 q 706 516 699 524 q 713 496 713 508 q 706 478 713 486 q 688 469 699 469 l 201 469 l 169 54 l 678 54 q 696 46 689 54 q 703 26 703 38 q 697 8 703 17 q 679 0 690 0 l 142 0 q 108 35 108 0 l 181 950 q 213 979 183 979 l 750 979 m 313 1222 q 307 1242 307 1232 q 317 1267 307 1256 q 342 1278 328 1278 q 375 1247 365 1278 l 439 1081 q 440 1074 440 1078 q 435 1060 440 1065 q 424 1056 431 1056 q 408 1064 415 1056 l 313 1222 m 464 1222 q 458 1242 458 1232 q 469 1267 458 1256 q 493 1278 479 1278 q 528 1247 517 1278 l 592 1081 l 593 1075 q 588 1061 593 1067 q 575 1056 582 1056 q 561 1064 567 1056 l 464 1222 z "},"Ë":{"ha":800,"x_min":108,"x_max":775,"o":"m 750 979 q 768 971 761 979 q 775 951 775 963 q 768 933 775 942 q 751 925 761 925 l 238 925 l 206 524 l 686 524 q 706 516 699 524 q 713 496 713 508 q 706 478 713 486 q 688 469 699 469 l 201 469 l 169 54 l 678 54 q 696 46 689 54 q 703 26 703 38 q 697 8 703 17 q 679 0 690 0 l 142 0 q 108 35 108 0 l 181 950 q 213 979 183 979 l 750 979 m 400 1119 q 365 1133 379 1119 q 350 1168 350 1147 q 365 1203 350 1189 q 400 1217 379 1217 q 434 1203 419 1217 q 449 1168 449 1189 q 435 1133 449 1147 q 400 1119 421 1119 m 622 1119 q 588 1133 601 1119 q 574 1168 574 1147 q 588 1203 574 1189 q 622 1217 603 1217 q 658 1203 643 1217 q 672 1168 672 1189 q 658 1133 672 1147 q 622 1119 643 1119 z "},"Ė":{"ha":800,"x_min":108,"x_max":775,"o":"m 750 979 q 768 971 761 979 q 775 951 775 963 q 768 933 775 942 q 751 925 761 925 l 238 925 l 206 524 l 686 524 q 706 516 699 524 q 713 496 713 508 q 706 478 713 486 q 688 469 699 469 l 201 469 l 169 54 l 678 54 q 696 46 689 54 q 703 26 703 38 q 697 8 703 17 q 679 0 690 0 l 142 0 q 108 35 108 0 l 181 950 q 213 979 183 979 l 750 979 m 511 1117 q 474 1131 489 1117 q 460 1168 460 1144 q 475 1204 460 1190 q 511 1218 490 1218 q 548 1204 533 1218 q 563 1168 563 1190 q 548 1131 563 1144 q 511 1117 533 1117 z "},"Ẹ":{"ha":800,"x_min":108,"x_max":775,"o":"m 750 979 q 768 971 761 979 q 775 951 775 963 q 768 933 775 942 q 751 925 761 925 l 238 925 l 206 524 l 686 524 q 706 516 699 524 q 713 496 713 508 q 706 478 713 486 q 688 469 699 469 l 201 469 l 169 54 l 678 54 q 696 46 689 54 q 703 26 703 38 q 697 8 703 17 q 679 0 690 0 l 142 0 q 108 35 108 0 l 181 950 q 213 979 183 979 l 750 979 m 403 -247 q 365 -233 379 -247 q 350 -196 350 -219 q 365 -158 350 -172 q 403 -144 379 -144 q 441 -158 426 -144 q 456 -196 456 -172 q 441 -233 456 -219 q 403 -247 426 -247 z "},"È":{"ha":800,"x_min":108,"x_max":775,"o":"m 750 979 q 768 971 761 979 q 775 951 775 963 q 768 933 775 942 q 751 925 761 925 l 238 925 l 206 524 l 686 524 q 706 516 699 524 q 713 496 713 508 q 706 478 713 486 q 688 469 699 469 l 201 469 l 169 54 l 678 54 q 696 46 689 54 q 703 26 703 38 q 697 8 703 17 q 679 0 690 0 l 142 0 q 108 35 108 0 l 181 950 q 213 979 183 979 l 750 979 m 354 1225 q 344 1253 344 1239 q 353 1274 344 1265 q 375 1282 363 1282 q 411 1257 397 1282 l 511 1088 q 515 1074 515 1082 q 510 1060 515 1065 q 496 1056 504 1056 q 475 1067 482 1056 l 354 1225 z "},"Ẻ":{"ha":800,"x_min":108,"x_max":775,"o":"m 750 979 q 768 971 761 979 q 775 951 775 963 q 768 933 775 942 q 751 925 761 925 l 238 925 l 206 524 l 686 524 q 706 516 699 524 q 713 496 713 508 q 706 478 713 486 q 688 469 699 469 l 201 469 l 169 54 l 678 54 q 696 46 689 54 q 703 26 703 38 q 697 8 703 17 q 679 0 690 0 l 142 0 q 108 35 108 0 l 181 950 q 213 979 183 979 l 750 979 m 535 1078 q 525 1061 533 1067 q 506 1056 517 1056 q 485 1064 494 1056 q 478 1088 476 1072 q 495 1124 479 1110 q 538 1151 511 1138 q 569 1172 560 1165 q 578 1192 578 1179 q 519 1218 578 1218 q 446 1207 479 1218 q 433 1206 442 1206 q 414 1213 421 1206 q 407 1229 407 1219 q 413 1247 407 1239 q 432 1260 419 1256 q 522 1276 474 1276 q 612 1255 579 1276 q 644 1196 644 1233 q 628 1149 644 1164 q 579 1117 611 1133 q 547 1098 558 1106 q 535 1078 536 1090 z "},"Ȇ":{"ha":800,"x_min":108,"x_max":775,"o":"m 750 979 q 768 971 761 979 q 775 951 775 963 q 768 933 775 942 q 751 925 761 925 l 238 925 l 206 524 l 686 524 q 706 516 699 524 q 713 496 713 508 q 706 478 713 486 q 688 469 699 469 l 201 469 l 169 54 l 678 54 q 696 46 689 54 q 703 26 703 38 q 697 8 703 17 q 679 0 690 0 l 142 0 q 108 35 108 0 l 181 950 q 213 979 183 979 l 750 979 m 518 1253 q 636 1222 585 1253 q 711 1126 688 1190 q 714 1110 714 1121 q 706 1089 714 1097 q 686 1081 699 1081 q 653 1106 664 1081 q 596 1174 629 1153 q 515 1196 563 1196 q 431 1174 468 1196 q 363 1106 394 1153 q 324 1081 349 1081 q 303 1088 311 1081 q 296 1107 296 1094 q 301 1126 296 1117 q 393 1222 336 1190 q 518 1253 450 1253 z "},"Ē":{"ha":800,"x_min":108,"x_max":775,"o":"m 750 979 q 768 971 761 979 q 775 951 775 963 q 768 933 775 942 q 751 925 761 925 l 238 925 l 206 524 l 686 524 q 706 516 699 524 q 713 496 713 508 q 706 478 713 486 q 688 469 699 469 l 201 469 l 169 54 l 678 54 q 696 46 689 54 q 703 26 703 38 q 697 8 703 17 q 679 0 690 0 l 142 0 q 108 35 108 0 l 181 950 q 213 979 183 979 l 750 979 m 340 1139 q 303 1168 303 1139 q 314 1190 303 1182 q 344 1197 325 1197 l 682 1197 q 719 1168 719 1197 q 708 1147 719 1154 q 678 1139 697 1139 l 340 1139 z "},"Ḗ":{"ha":800,"x_min":108,"x_max":775,"o":"m 750 979 q 768 971 761 979 q 775 951 775 963 q 768 933 775 942 q 751 925 761 925 l 238 925 l 206 524 l 686 524 q 706 516 699 524 q 713 496 713 508 q 706 478 713 486 q 688 469 699 469 l 201 469 l 169 54 l 678 54 q 696 46 689 54 q 703 26 703 38 q 697 8 703 17 q 679 0 690 0 l 142 0 q 108 35 108 0 l 181 950 q 213 979 183 979 l 750 979 m 340 1139 q 303 1168 303 1139 q 314 1190 303 1182 q 344 1197 325 1197 l 682 1197 q 719 1168 719 1197 q 708 1147 719 1154 q 678 1139 697 1139 l 340 1139 m 547 1289 q 525 1278 536 1278 q 513 1283 518 1278 q 508 1294 508 1288 q 514 1311 508 1304 l 635 1478 q 675 1503 651 1503 q 697 1494 688 1503 q 706 1474 706 1486 q 689 1439 706 1458 l 547 1289 z "},"Ḕ":{"ha":800,"x_min":108,"x_max":775,"o":"m 750 979 q 768 971 761 979 q 775 951 775 963 q 768 933 775 942 q 751 925 761 925 l 238 925 l 206 524 l 686 524 q 706 516 699 524 q 713 496 713 508 q 706 478 713 486 q 688 469 699 469 l 201 469 l 169 54 l 678 54 q 696 46 689 54 q 703 26 703 38 q 697 8 703 17 q 679 0 690 0 l 142 0 q 108 35 108 0 l 181 950 q 213 979 183 979 l 750 979 m 340 1139 q 303 1168 303 1139 q 314 1190 303 1182 q 344 1197 325 1197 l 682 1197 q 719 1168 719 1197 q 708 1147 719 1154 q 678 1139 697 1139 l 340 1139 m 372 1447 q 363 1475 363 1461 q 372 1496 363 1488 q 393 1504 381 1504 q 429 1479 415 1504 l 529 1310 q 533 1296 533 1304 q 528 1283 533 1288 q 514 1278 522 1278 q 493 1289 500 1278 l 372 1447 z "},"Ę":{"ha":800,"x_min":108,"x_max":775,"o":"m 750 979 q 768 971 761 979 q 775 951 775 963 q 768 933 775 942 q 751 925 761 925 l 238 925 l 206 524 l 686 524 q 706 516 699 524 q 713 496 713 508 q 706 478 713 486 q 688 469 699 469 l 201 469 l 169 54 l 678 54 q 696 46 689 54 q 703 26 703 38 q 696 7 703 15 q 676 0 689 -1 q 567 -34 603 1 q 531 -122 531 -69 q 553 -188 531 -165 q 618 -211 576 -211 q 650 -206 631 -211 q 686 -192 669 -200 q 706 -186 697 -186 q 721 -192 715 -186 q 726 -207 726 -199 q 720 -226 726 -217 q 704 -242 714 -236 q 610 -264 665 -264 q 506 -228 544 -264 q 467 -132 467 -192 q 529 0 467 -54 l 142 0 q 108 35 108 0 l 181 950 q 213 979 183 979 l 750 979 z "},"Ẽ":{"ha":800,"x_min":108,"x_max":775,"o":"m 750 979 q 768 971 761 979 q 775 951 775 963 q 768 933 775 942 q 751 925 761 925 l 238 925 l 206 524 l 686 524 q 706 516 699 524 q 713 496 713 508 q 706 478 713 486 q 688 469 699 469 l 201 469 l 169 54 l 678 54 q 696 46 689 54 q 703 26 703 38 q 697 8 703 17 q 679 0 690 0 l 142 0 q 108 35 108 0 l 181 950 q 213 979 183 979 l 750 979 m 600 1107 q 494 1143 561 1107 q 452 1163 474 1154 q 415 1171 431 1171 q 374 1160 389 1171 q 343 1128 358 1149 q 319 1108 329 1108 q 304 1116 310 1108 q 299 1133 299 1124 q 315 1177 299 1154 q 360 1215 332 1200 q 422 1231 388 1231 q 528 1194 461 1231 q 570 1175 549 1183 q 607 1167 592 1167 q 649 1178 633 1167 q 678 1208 665 1189 q 701 1228 693 1228 q 717 1221 711 1228 q 724 1203 724 1214 q 707 1160 724 1183 q 663 1122 690 1138 q 600 1107 635 1107 z "},"F":{"ha":761,"x_min":107,"x_max":761,"o":"m 736 979 q 754 971 747 979 q 761 951 761 963 q 754 933 761 942 q 738 925 747 925 l 238 925 l 206 524 l 672 524 q 691 515 683 524 q 699 496 699 507 q 692 479 699 488 q 675 471 685 471 l 201 471 l 165 19 q 156 0 164 7 q 138 -7 149 -7 q 116 2 125 -7 q 107 25 107 11 l 181 950 q 214 979 183 979 l 736 979 z "},"G":{"ha":994,"x_min":103,"x_max":917,"o":"m 906 863 q 917 835 917 851 q 909 813 917 822 q 890 803 901 803 q 869 814 881 803 q 731 905 801 876 q 575 933 661 933 q 355 874 447 933 q 213 702 263 814 q 164 435 164 590 q 257 146 164 247 q 532 44 350 44 q 669 58 599 44 q 799 94 740 71 l 825 438 l 586 438 q 562 446 571 438 q 553 465 553 454 q 561 486 553 479 q 585 493 569 493 l 842 493 q 869 481 858 493 q 881 450 881 468 l 851 72 q 847 59 851 67 q 836 49 842 51 q 693 6 776 22 q 538 -11 610 -11 q 214 105 325 -11 q 103 429 103 221 q 160 726 103 600 q 324 921 218 853 q 575 989 431 989 q 906 863 781 989 z "},"Ğ":{"ha":994,"x_min":103,"x_max":917,"o":"m 906 863 q 917 835 917 851 q 909 813 917 822 q 890 803 901 803 q 869 814 881 803 q 731 905 801 876 q 575 933 661 933 q 355 874 447 933 q 213 702 263 814 q 164 435 164 590 q 257 146 164 247 q 532 44 350 44 q 669 58 599 44 q 799 94 740 71 l 825 438 l 586 438 q 562 446 571 438 q 553 465 553 454 q 561 486 553 479 q 585 493 569 493 l 842 493 q 869 481 858 493 q 881 450 881 468 l 851 72 q 847 59 851 67 q 836 49 842 51 q 693 6 776 22 q 538 -11 610 -11 q 214 105 325 -11 q 103 429 103 221 q 160 726 103 600 q 324 921 218 853 q 575 989 431 989 q 906 863 781 989 m 590 1081 q 473 1112 524 1081 q 397 1207 422 1143 q 394 1222 394 1213 q 403 1244 394 1236 q 424 1253 411 1253 q 456 1229 446 1253 q 513 1159 479 1181 q 593 1138 546 1138 q 678 1159 642 1138 q 746 1229 715 1181 q 783 1253 760 1253 q 804 1246 796 1253 q 813 1226 813 1239 q 807 1207 813 1217 q 715 1112 772 1143 q 590 1081 658 1081 z "},"Ǧ":{"ha":994,"x_min":103,"x_max":917,"o":"m 906 863 q 917 835 917 851 q 909 813 917 822 q 890 803 901 803 q 869 814 881 803 q 731 905 801 876 q 575 933 661 933 q 355 874 447 933 q 213 702 263 814 q 164 435 164 590 q 257 146 164 247 q 532 44 350 44 q 669 58 599 44 q 799 94 740 71 l 825 438 l 586 438 q 562 446 571 438 q 553 465 553 454 q 561 486 553 479 q 585 493 569 493 l 842 493 q 869 481 858 493 q 881 450 881 468 l 851 72 q 847 59 851 67 q 836 49 842 51 q 693 6 776 22 q 538 -11 610 -11 q 214 105 325 -11 q 103 429 103 221 q 160 726 103 600 q 324 921 218 853 q 575 989 431 989 q 906 863 781 989 m 714 1267 q 738 1281 724 1281 q 761 1270 751 1281 q 771 1246 771 1260 q 764 1228 771 1238 l 629 1075 q 588 1053 610 1053 q 551 1075 565 1053 l 447 1222 q 439 1247 439 1235 q 447 1268 439 1260 q 468 1276 456 1276 q 500 1257 486 1276 l 592 1113 l 714 1267 z "},"Ĝ":{"ha":994,"x_min":103,"x_max":917,"o":"m 906 863 q 917 835 917 851 q 909 813 917 822 q 890 803 901 803 q 869 814 881 803 q 731 905 801 876 q 575 933 661 933 q 355 874 447 933 q 213 702 263 814 q 164 435 164 590 q 257 146 164 247 q 532 44 350 44 q 669 58 599 44 q 799 94 740 71 l 825 438 l 586 438 q 562 446 571 438 q 553 465 553 454 q 561 486 553 479 q 585 493 569 493 l 842 493 q 869 481 858 493 q 881 450 881 468 l 851 72 q 847 59 851 67 q 836 49 842 51 q 693 6 776 22 q 538 -11 610 -11 q 214 105 325 -11 q 103 429 103 221 q 160 726 103 600 q 324 921 218 853 q 575 989 431 989 q 906 863 781 989 m 483 1065 q 458 1053 475 1053 q 435 1063 444 1053 q 425 1086 425 1074 q 432 1104 425 1094 l 567 1257 q 608 1279 586 1279 q 644 1257 631 1279 l 749 1110 q 757 1085 757 1097 q 749 1064 757 1072 q 729 1056 740 1056 q 696 1076 710 1056 l 604 1219 l 483 1065 z "},"Ģ":{"ha":994,"x_min":103,"x_max":917,"o":"m 906 863 q 917 835 917 851 q 909 813 917 822 q 890 803 901 803 q 869 814 881 803 q 731 905 801 876 q 575 933 661 933 q 355 874 447 933 q 213 702 263 814 q 164 435 164 590 q 257 146 164 247 q 532 44 350 44 q 669 58 599 44 q 799 94 740 71 l 825 438 l 586 438 q 562 446 571 438 q 553 465 553 454 q 561 486 553 479 q 585 493 569 493 l 842 493 q 869 481 858 493 q 881 450 881 468 l 851 72 q 847 59 851 67 q 836 49 842 51 q 693 6 776 22 q 538 -11 610 -11 q 214 105 325 -11 q 103 429 103 221 q 160 726 103 600 q 324 921 218 853 q 575 989 431 989 q 906 863 781 989 m 508 -99 q 561 -164 561 -99 q 543 -250 561 -206 q 486 -332 525 -294 q 461 -344 474 -344 q 446 -338 451 -344 q 440 -324 440 -332 q 451 -301 440 -312 q 487 -254 475 -278 q 504 -203 499 -231 q 469 -189 482 -201 q 456 -154 456 -176 q 471 -115 456 -131 q 508 -99 486 -99 z "},"Ġ":{"ha":994,"x_min":103,"x_max":917,"o":"m 906 863 q 917 835 917 851 q 909 813 917 822 q 890 803 901 803 q 869 814 881 803 q 731 905 801 876 q 575 933 661 933 q 355 874 447 933 q 213 702 263 814 q 164 435 164 590 q 257 146 164 247 q 532 44 350 44 q 669 58 599 44 q 799 94 740 71 l 825 438 l 586 438 q 562 446 571 438 q 553 465 553 454 q 561 486 553 479 q 585 493 569 493 l 842 493 q 869 481 858 493 q 881 450 881 468 l 851 72 q 847 59 851 67 q 836 49 842 51 q 693 6 776 22 q 538 -11 610 -11 q 214 105 325 -11 q 103 429 103 221 q 160 726 103 600 q 324 921 218 853 q 575 989 431 989 q 906 863 781 989 m 599 1117 q 562 1131 576 1117 q 547 1168 547 1144 q 563 1204 547 1190 q 599 1218 578 1218 q 635 1204 621 1218 q 650 1168 650 1190 q 635 1131 650 1144 q 599 1117 621 1117 z "},"Ḡ":{"ha":994,"x_min":103,"x_max":917,"o":"m 906 863 q 917 835 917 851 q 909 813 917 822 q 890 803 901 803 q 869 814 881 803 q 731 905 801 876 q 575 933 661 933 q 355 874 447 933 q 213 702 263 814 q 164 435 164 590 q 257 146 164 247 q 532 44 350 44 q 669 58 599 44 q 799 94 740 71 l 825 438 l 586 438 q 562 446 571 438 q 553 465 553 454 q 561 486 553 479 q 585 493 569 493 l 842 493 q 869 481 858 493 q 881 450 881 468 l 851 72 q 847 59 851 67 q 836 49 842 51 q 693 6 776 22 q 538 -11 610 -11 q 214 105 325 -11 q 103 429 103 221 q 160 726 103 600 q 324 921 218 853 q 575 989 431 989 q 906 863 781 989 m 428 1139 q 390 1168 390 1139 q 401 1190 390 1182 q 432 1197 413 1197 l 769 1197 q 807 1168 807 1197 q 796 1147 807 1154 q 765 1139 785 1139 l 428 1139 z "},"H":{"ha":1043,"x_min":108,"x_max":958,"o":"m 928 986 q 949 977 940 986 q 957 954 958 968 l 883 19 q 875 0 883 7 q 856 -7 867 -7 q 834 2 843 -7 q 826 25 825 11 l 861 471 l 203 471 l 167 19 q 158 0 165 7 q 139 -7 150 -7 q 117 2 126 -7 q 108 25 108 11 l 182 960 q 191 979 183 972 q 210 986 199 986 q 232 977 222 986 q 240 954 242 968 l 207 524 l 865 524 l 900 960 q 908 979 900 972 q 928 986 917 986 z "},"Ħ":{"ha":1054,"x_min":33,"x_max":1088,"o":"m 1063 785 q 1079 777 1071 785 q 1088 758 1088 769 q 1080 740 1088 749 q 1064 732 1072 732 l 947 732 l 892 19 q 883 0 890 7 q 864 -7 875 -7 q 842 2 851 -7 q 833 25 832 11 l 868 471 l 210 471 l 174 19 q 165 0 174 7 q 146 -7 157 -7 q 124 2 133 -7 q 117 25 115 11 l 172 732 l 58 732 q 41 740 49 732 q 33 758 33 749 q 41 777 33 769 q 57 785 49 785 l 176 785 l 190 960 q 199 979 190 972 q 218 986 207 986 q 240 977 231 986 q 247 954 249 968 l 233 785 l 893 785 l 907 960 q 916 979 908 972 q 935 986 924 986 q 956 977 947 986 q 965 954 965 968 l 951 785 l 1063 785 m 889 732 l 229 732 l 214 524 l 872 524 l 889 732 z "},"Ḫ":{"ha":1043,"x_min":108,"x_max":957,"o":"m 928 986 q 949 977 940 986 q 957 954 958 968 l 883 19 q 875 0 883 7 q 856 -7 867 -7 q 834 2 843 -7 q 826 25 825 11 l 861 471 l 203 471 l 167 19 q 158 0 165 7 q 139 -7 150 -7 q 117 2 126 -7 q 108 25 108 11 l 182 960 q 191 979 183 972 q 210 986 199 986 q 232 977 222 986 q 240 954 242 968 l 207 524 l 865 524 l 900 960 q 908 979 900 972 q 928 986 917 986 m 474 -281 q 358 -248 407 -281 q 283 -149 308 -215 q 281 -132 281 -143 q 290 -108 281 -117 q 313 -99 300 -99 q 344 -125 335 -99 q 478 -225 381 -225 q 628 -125 578 -225 q 664 -99 642 -99 q 683 -107 675 -99 q 690 -128 690 -115 q 685 -149 690 -137 q 596 -247 651 -214 q 474 -281 540 -281 z "},"Ĥ":{"ha":1043,"x_min":108,"x_max":957,"o":"m 928 986 q 949 977 940 986 q 957 954 958 968 l 883 19 q 875 0 883 7 q 856 -7 867 -7 q 834 2 843 -7 q 826 25 825 11 l 861 471 l 203 471 l 167 19 q 158 0 165 7 q 139 -7 150 -7 q 117 2 126 -7 q 108 25 108 11 l 182 960 q 191 979 183 972 q 210 986 199 986 q 232 977 222 986 q 240 954 242 968 l 207 524 l 865 524 l 900 960 q 908 979 900 972 q 928 986 917 986 m 472 1065 q 447 1053 464 1053 q 424 1063 433 1053 q 414 1086 414 1074 q 421 1104 414 1094 l 556 1257 q 597 1279 575 1279 q 633 1257 619 1279 l 738 1110 q 746 1085 746 1097 q 738 1064 746 1072 q 718 1056 729 1056 q 685 1076 699 1056 l 593 1219 l 472 1065 z "},"Ḥ":{"ha":1043,"x_min":108,"x_max":957,"o":"m 928 986 q 949 977 940 986 q 957 954 958 968 l 883 19 q 875 0 883 7 q 856 -7 867 -7 q 834 2 843 -7 q 826 25 825 11 l 861 471 l 203 471 l 167 19 q 158 0 165 7 q 139 -7 150 -7 q 117 2 126 -7 q 108 25 108 11 l 182 960 q 191 979 183 972 q 210 986 199 986 q 232 977 222 986 q 240 954 242 968 l 207 524 l 865 524 l 900 960 q 908 979 900 972 q 928 986 917 986 m 481 -247 q 442 -233 457 -247 q 428 -196 428 -219 q 442 -158 428 -172 q 481 -144 457 -144 q 519 -158 504 -144 q 533 -196 533 -172 q 519 -233 533 -219 q 481 -247 504 -247 z "},"I":{"ha":324,"x_min":108,"x_max":240,"o":"m 139 -7 q 117 2 126 -7 q 108 25 108 11 l 182 960 q 191 979 183 972 q 210 986 199 986 q 231 977 222 986 q 240 954 240 968 l 167 19 q 158 0 165 7 q 139 -7 150 -7 z "},"Í":{"ha":324,"x_min":108,"x_max":404,"o":"m 139 -7 q 117 2 126 -7 q 108 25 108 11 l 182 960 q 191 979 183 972 q 210 986 199 986 q 231 977 222 986 q 240 954 240 968 l 167 19 q 158 0 165 7 q 139 -7 150 -7 m 246 1067 q 224 1056 235 1056 q 212 1060 217 1056 q 207 1072 207 1065 q 213 1089 207 1082 l 333 1256 q 374 1281 350 1281 q 395 1272 386 1281 q 404 1251 404 1264 q 388 1217 404 1236 l 246 1067 z "},"Ĭ":{"ha":324,"x_min":24,"x_max":442,"o":"m 139 -7 q 117 2 126 -7 q 108 25 108 11 l 182 960 q 191 979 183 972 q 210 986 199 986 q 231 977 222 986 q 240 954 240 968 l 167 19 q 158 0 165 7 q 139 -7 150 -7 m 219 1081 q 102 1112 153 1081 q 26 1207 51 1143 q 24 1222 24 1213 q 32 1244 24 1236 q 53 1253 40 1253 q 85 1229 75 1253 q 142 1159 108 1181 q 222 1138 175 1138 q 308 1159 271 1138 q 375 1229 344 1181 q 413 1253 389 1253 q 433 1246 425 1253 q 442 1226 442 1239 q 436 1207 442 1217 q 344 1112 401 1143 q 219 1081 288 1081 z "},"Î":{"ha":324,"x_min":54,"x_max":386,"o":"m 139 -7 q 117 2 126 -7 q 108 25 108 11 l 182 960 q 191 979 183 972 q 210 986 199 986 q 231 977 222 986 q 240 954 240 968 l 167 19 q 158 0 165 7 q 139 -7 150 -7 m 113 1065 q 88 1053 104 1053 q 64 1063 74 1053 q 54 1086 54 1074 q 61 1104 54 1094 l 196 1257 q 238 1279 215 1279 q 274 1257 260 1279 l 378 1110 q 386 1085 386 1097 q 378 1064 386 1072 q 358 1056 369 1056 q 325 1076 339 1056 l 233 1219 l 113 1065 z "},"Ȉ":{"ha":324,"x_min":24,"x_max":310,"o":"m 139 -7 q 117 2 126 -7 q 108 25 108 11 l 182 960 q 191 979 183 972 q 210 986 199 986 q 231 977 222 986 q 240 954 240 968 l 167 19 q 158 0 165 7 q 139 -7 150 -7 m 29 1222 q 24 1242 24 1232 q 34 1267 24 1256 q 58 1278 44 1278 q 92 1247 82 1278 l 156 1081 q 157 1074 157 1078 q 152 1060 157 1065 q 140 1056 147 1056 q 125 1064 132 1056 l 29 1222 m 181 1222 q 175 1242 175 1232 q 185 1267 175 1256 q 210 1278 196 1278 q 244 1247 233 1278 l 308 1081 l 310 1075 q 304 1061 310 1067 q 292 1056 299 1056 q 278 1064 283 1056 l 181 1222 z "},"Ï":{"ha":324,"x_min":67,"x_max":389,"o":"m 139 -7 q 117 2 126 -7 q 108 25 108 11 l 182 960 q 191 979 183 972 q 210 986 199 986 q 231 977 222 986 q 240 954 240 968 l 167 19 q 158 0 165 7 q 139 -7 150 -7 m 117 1119 q 81 1133 96 1119 q 67 1168 67 1147 q 81 1203 67 1189 q 117 1217 96 1217 q 151 1203 136 1217 q 165 1168 165 1189 q 151 1133 165 1147 q 117 1119 138 1119 m 339 1119 q 304 1133 318 1119 q 290 1168 290 1147 q 305 1203 290 1189 q 339 1217 319 1217 q 374 1203 360 1217 q 389 1168 389 1189 q 374 1133 389 1147 q 339 1119 360 1119 z "},"Ḯ":{"ha":324,"x_min":67,"x_max":422,"o":"m 139 -7 q 117 2 126 -7 q 108 25 108 11 l 182 960 q 191 979 183 972 q 210 986 199 986 q 231 977 222 986 q 240 954 240 968 l 167 19 q 158 0 165 7 q 139 -7 150 -7 m 117 1119 q 81 1133 96 1119 q 67 1168 67 1147 q 81 1203 67 1189 q 117 1217 96 1217 q 151 1203 136 1217 q 165 1168 165 1189 q 151 1133 165 1147 q 117 1119 138 1119 m 339 1119 q 304 1133 318 1119 q 290 1168 290 1147 q 305 1203 290 1189 q 339 1217 319 1217 q 374 1203 360 1217 q 389 1168 389 1189 q 374 1133 389 1147 q 339 1119 360 1119 m 264 1289 q 242 1278 253 1278 q 230 1283 235 1278 q 225 1294 225 1288 q 231 1311 225 1304 l 351 1478 q 392 1503 368 1503 q 413 1494 404 1503 q 422 1474 422 1486 q 406 1439 422 1458 l 264 1289 z "},"İ":{"ha":324,"x_min":108,"x_max":279,"o":"m 139 -7 q 117 2 126 -7 q 108 25 108 11 l 182 960 q 191 979 183 972 q 210 986 199 986 q 231 977 222 986 q 240 954 240 968 l 167 19 q 158 0 165 7 q 139 -7 150 -7 m 228 1117 q 191 1131 206 1117 q 176 1168 176 1144 q 192 1204 176 1190 q 228 1218 207 1218 q 265 1204 250 1218 q 279 1168 279 1190 q 265 1131 279 1144 q 228 1117 250 1117 z "},"Ị":{"ha":324,"x_min":67,"x_max":240,"o":"m 139 -7 q 117 2 126 -7 q 108 25 108 11 l 182 960 q 191 979 183 972 q 210 986 199 986 q 231 977 222 986 q 240 954 240 968 l 167 19 q 158 0 165 7 q 139 -7 150 -7 m 119 -247 q 81 -233 96 -247 q 67 -196 67 -219 q 81 -158 67 -172 q 119 -144 96 -144 q 158 -158 143 -144 q 172 -196 172 -172 q 158 -233 172 -219 q 119 -247 143 -247 z "},"Ì":{"ha":324,"x_min":61,"x_max":240,"o":"m 139 -7 q 117 2 126 -7 q 108 25 108 11 l 182 960 q 191 979 183 972 q 210 986 199 986 q 231 977 222 986 q 240 954 240 968 l 167 19 q 158 0 165 7 q 139 -7 150 -7 m 71 1225 q 61 1253 61 1239 q 70 1274 61 1265 q 92 1282 79 1282 q 128 1257 114 1282 l 228 1088 q 232 1074 232 1082 q 226 1060 232 1065 q 213 1056 221 1056 q 192 1067 199 1056 l 71 1225 z "},"Ỉ":{"ha":324,"x_min":108,"x_max":361,"o":"m 139 -7 q 117 2 126 -7 q 108 25 108 11 l 182 960 q 191 979 183 972 q 210 986 199 986 q 231 977 222 986 q 240 954 240 968 l 167 19 q 158 0 165 7 q 139 -7 150 -7 m 251 1078 q 242 1061 250 1067 q 222 1056 233 1056 q 202 1064 211 1056 q 194 1088 193 1072 q 212 1124 196 1110 q 254 1151 228 1138 q 285 1172 276 1165 q 294 1192 294 1179 q 236 1218 294 1218 q 163 1207 196 1218 q 150 1206 158 1206 q 131 1213 138 1206 q 124 1229 124 1219 q 130 1247 124 1239 q 149 1260 136 1256 q 239 1276 190 1276 q 328 1255 296 1276 q 361 1196 361 1233 q 344 1149 361 1164 q 296 1117 328 1133 q 264 1098 275 1106 q 251 1078 253 1090 z "},"Ȋ":{"ha":324,"x_min":13,"x_max":431,"o":"m 139 -7 q 117 2 126 -7 q 108 25 108 11 l 182 960 q 191 979 183 972 q 210 986 199 986 q 231 977 222 986 q 240 954 240 968 l 167 19 q 158 0 165 7 q 139 -7 150 -7 m 235 1253 q 353 1222 301 1253 q 428 1126 404 1190 q 431 1110 431 1121 q 423 1089 431 1097 q 403 1081 415 1081 q 369 1106 381 1081 q 313 1174 346 1153 q 232 1196 279 1196 q 148 1174 185 1196 q 79 1106 111 1153 q 40 1081 65 1081 q 20 1088 28 1081 q 13 1107 13 1094 q 18 1126 13 1117 q 110 1222 53 1190 q 235 1253 167 1253 z "},"Ī":{"ha":324,"x_min":19,"x_max":436,"o":"m 139 -7 q 117 2 126 -7 q 108 25 108 11 l 182 960 q 191 979 183 972 q 210 986 199 986 q 231 977 222 986 q 240 954 240 968 l 167 19 q 158 0 165 7 q 139 -7 150 -7 m 57 1139 q 19 1168 19 1139 q 31 1190 19 1182 q 61 1197 42 1197 l 399 1197 q 436 1168 436 1197 q 425 1147 436 1154 q 394 1139 414 1139 l 57 1139 z "},"Į":{"ha":324,"x_min":-40,"x_max":240,"o":"m 179 -192 q 199 -186 189 -186 q 213 -192 207 -186 q 218 -207 218 -199 q 197 -242 218 -229 q 103 -264 153 -264 q -1 -228 38 -264 q -40 -133 -40 -192 q 0 -16 -40 -64 q 110 46 40 32 l 182 960 q 191 979 183 972 q 210 986 199 986 q 231 977 222 986 q 240 954 240 968 l 167 19 q 155 -1 165 6 q 128 -8 144 -8 q 49 -42 76 -11 q 22 -122 22 -74 q 45 -188 22 -165 q 110 -211 68 -211 q 179 -192 140 -211 z "},"Ĩ":{"ha":324,"x_min":15,"x_max":440,"o":"m 139 -7 q 117 2 126 -7 q 108 25 108 11 l 182 960 q 191 979 183 972 q 210 986 199 986 q 231 977 222 986 q 240 954 240 968 l 167 19 q 158 0 165 7 q 139 -7 150 -7 m 317 1107 q 211 1143 278 1107 q 169 1163 190 1154 q 132 1171 147 1171 q 90 1160 106 1171 q 60 1128 75 1149 q 36 1108 46 1108 q 21 1116 26 1108 q 15 1133 15 1124 q 32 1177 15 1154 q 76 1215 49 1200 q 139 1231 104 1231 q 244 1194 178 1231 q 287 1175 265 1183 q 324 1167 308 1167 q 366 1178 350 1167 q 394 1208 382 1189 q 418 1228 410 1228 q 434 1221 428 1228 q 440 1203 440 1214 q 424 1160 440 1183 q 379 1122 407 1138 q 317 1107 351 1107 z "},"J":{"ha":413,"x_min":-37,"x_max":329,"o":"m -14 -7 q -31 2 -25 -7 q -36 22 -37 11 q -29 37 -36 29 q -11 46 -22 44 l 33 49 q 160 105 114 54 q 215 249 207 156 l 272 956 q 281 978 272 969 q 303 986 290 986 q 329 956 329 986 l 272 246 q 202 65 263 128 q 33 -4 142 3 l -12 -7 l -14 -7 z "},"Ĵ":{"ha":413,"x_min":-36,"x_max":476,"o":"m -14 -7 q -31 2 -25 -7 q -36 22 -37 11 q -29 37 -36 29 q -11 46 -22 44 l 33 49 q 160 105 114 54 q 215 249 207 156 l 272 956 q 281 978 272 969 q 303 986 290 986 q 329 956 329 986 l 272 246 q 202 65 263 128 q 33 -4 142 3 l -12 -7 l -14 -7 m 203 1065 q 178 1053 194 1053 q 154 1063 164 1053 q 144 1086 144 1074 q 151 1104 144 1094 l 286 1257 q 328 1279 306 1279 q 364 1257 350 1279 l 468 1110 q 476 1085 476 1097 q 468 1064 476 1072 q 449 1056 460 1056 q 415 1076 429 1056 l 324 1219 l 203 1065 z "},"K":{"ha":832,"x_min":108,"x_max":828,"o":"m 788 981 q 801 985 794 985 q 819 976 811 985 q 828 958 828 968 q 818 940 828 949 l 257 500 l 769 40 q 779 19 779 31 q 772 1 779 10 q 754 -7 764 -7 q 739 -1 744 -7 l 203 475 l 167 19 q 157 1 165 10 q 139 -7 149 -7 q 118 3 128 -7 q 108 25 108 14 l 182 960 q 192 978 183 969 q 210 986 200 986 q 231 976 221 986 q 240 954 240 965 l 207 525 l 788 981 z "},"Ķ":{"ha":832,"x_min":108,"x_max":828,"o":"m 788 981 q 801 985 794 985 q 819 976 811 985 q 828 958 828 968 q 818 940 828 949 l 257 500 l 769 40 q 779 19 779 31 q 772 1 779 10 q 754 -7 764 -7 q 739 -1 744 -7 l 203 475 l 167 19 q 157 1 165 10 q 139 -7 149 -7 q 118 3 128 -7 q 108 25 108 14 l 182 960 q 192 978 183 969 q 210 986 200 986 q 231 976 221 986 q 240 954 240 965 l 207 525 l 788 981 m 386 -99 q 439 -164 439 -99 q 421 -250 439 -206 q 364 -332 403 -294 q 339 -344 351 -344 q 324 -338 329 -344 q 318 -324 318 -332 q 329 -301 318 -312 q 365 -254 353 -278 q 382 -203 376 -231 q 347 -189 360 -201 q 333 -154 333 -176 q 349 -115 333 -131 q 386 -99 364 -99 z "},"L":{"ha":732,"x_min":107,"x_max":692,"o":"m 142 0 q 116 9 125 0 q 108 35 107 18 l 182 960 q 191 979 183 972 q 211 986 199 986 q 232 977 224 986 q 240 954 240 968 l 169 53 l 667 53 q 685 44 678 53 q 692 25 692 36 q 685 8 692 17 q 668 0 678 0 l 142 0 z "},"Ǉ":{"ha":1142,"x_min":107,"x_max":1058,"o":"m 142 0 q 116 9 125 0 q 108 35 107 18 l 182 960 q 191 979 183 972 q 211 986 199 986 q 232 977 224 986 q 240 954 240 968 l 169 53 l 625 53 q 643 44 636 53 q 650 25 650 36 q 643 8 650 17 q 626 0 636 0 l 142 0 m 711 -7 q 697 1 703 -7 q 692 18 692 8 q 697 36 692 28 q 714 46 703 44 l 761 49 q 890 104 843 53 q 943 249 936 156 l 1000 956 q 1010 978 1001 969 q 1031 986 1018 986 q 1051 978 1044 986 q 1057 956 1058 969 l 1000 246 q 931 66 992 129 q 761 -4 869 3 l 713 -7 l 711 -7 z "},"Ĺ":{"ha":732,"x_min":108,"x_max":692,"o":"m 142 0 q 116 9 125 0 q 108 35 107 18 l 182 960 q 191 979 183 972 q 211 986 199 986 q 232 977 224 986 q 240 954 240 968 l 169 53 l 667 53 q 685 44 678 53 q 692 25 692 36 q 685 8 692 17 q 668 0 678 0 l 142 0 m 247 1067 q 225 1056 236 1056 q 213 1060 218 1056 q 208 1072 208 1065 q 214 1089 208 1082 l 335 1256 q 375 1281 351 1281 q 397 1272 388 1281 q 406 1251 406 1264 q 389 1217 406 1236 l 247 1067 z "},"Ľ":{"ha":732,"x_min":108,"x_max":692,"o":"m 142 0 q 116 9 125 0 q 108 35 107 18 l 182 960 q 191 979 183 972 q 211 986 199 986 q 232 977 224 986 q 240 954 240 968 l 169 53 l 667 53 q 685 44 678 53 q 692 25 692 36 q 685 8 692 17 q 668 0 678 0 l 142 0 m 379 732 q 357 714 375 714 q 342 719 347 714 q 338 736 336 725 l 353 943 q 365 975 354 964 q 390 986 376 986 q 414 976 404 986 q 424 949 424 967 q 422 936 424 940 l 379 732 z "},"Ļ":{"ha":732,"x_min":108,"x_max":692,"o":"m 142 0 q 116 9 125 0 q 108 35 107 18 l 182 960 q 191 979 183 972 q 211 986 199 986 q 232 977 224 986 q 240 954 240 968 l 169 53 l 667 53 q 685 44 678 53 q 692 25 692 36 q 685 8 692 17 q 668 0 678 0 l 142 0 m 392 -99 q 444 -164 444 -99 q 426 -250 444 -206 q 369 -332 408 -294 q 344 -344 357 -344 q 329 -338 335 -344 q 324 -324 324 -332 q 335 -301 324 -312 q 370 -254 358 -278 q 388 -203 382 -231 q 352 -189 365 -201 q 339 -154 339 -176 q 354 -115 339 -131 q 392 -99 369 -99 z "},"Ŀ":{"ha":732,"x_min":108,"x_max":692,"o":"m 142 0 q 116 9 125 0 q 108 35 107 18 l 182 960 q 191 979 183 972 q 211 986 199 986 q 232 977 224 986 q 240 954 240 968 l 169 53 l 667 53 q 685 44 678 53 q 692 25 692 36 q 685 8 692 17 q 668 0 678 0 l 142 0 m 467 439 q 430 453 444 439 q 415 490 415 467 q 431 527 415 513 q 467 542 446 542 q 503 527 489 542 q 518 490 518 513 q 503 453 518 467 q 467 439 489 439 z "},"Ḷ":{"ha":732,"x_min":108,"x_max":692,"o":"m 142 0 q 116 9 125 0 q 108 35 107 18 l 182 960 q 191 979 183 972 q 211 986 199 986 q 232 977 224 986 q 240 954 240 968 l 169 53 l 667 53 q 685 44 678 53 q 692 25 692 36 q 685 8 692 17 q 668 0 678 0 l 142 0 m 383 -247 q 345 -233 360 -247 q 331 -196 331 -219 q 345 -158 331 -172 q 383 -144 360 -144 q 422 -158 407 -144 q 436 -196 436 -172 q 422 -233 436 -219 q 383 -247 407 -247 z "},"ǈ":{"ha":1026,"x_min":108,"x_max":976,"o":"m 142 0 q 116 9 125 0 q 108 35 107 18 l 182 960 q 191 979 183 972 q 211 986 199 986 q 232 977 224 986 q 240 954 240 968 l 169 53 l 667 53 q 685 44 678 53 q 692 25 692 36 q 685 8 692 17 q 668 0 678 0 l 142 0 m 582 -254 q 567 -247 572 -254 q 561 -229 561 -239 l 561 -226 q 569 -211 561 -218 q 588 -203 576 -204 l 628 -200 q 770 -144 724 -194 q 824 10 817 -93 l 875 657 q 904 686 879 686 q 926 678 917 686 q 933 657 935 671 l 883 18 q 808 -182 874 -118 q 608 -253 742 -246 l 585 -254 l 582 -254 m 925 853 q 889 867 904 853 q 874 903 874 881 q 888 940 874 926 q 925 954 903 954 q 962 940 947 954 q 976 903 976 926 q 961 867 976 881 q 925 853 946 853 z "},"Ḻ":{"ha":732,"x_min":108,"x_max":692,"o":"m 142 0 q 116 9 125 0 q 108 35 107 18 l 182 960 q 191 979 183 972 q 211 986 199 986 q 232 977 224 986 q 240 954 240 968 l 169 53 l 667 53 q 685 44 678 53 q 692 25 692 36 q 685 8 692 17 q 668 0 678 0 l 142 0 m 213 -225 q 175 -196 175 -225 q 217 -165 175 -165 l 554 -165 q 592 -196 592 -165 q 581 -217 592 -210 q 550 -225 569 -225 l 213 -225 z "},"Ł":{"ha":738,"x_min":8,"x_max":697,"o":"m 672 53 q 690 44 683 53 q 697 25 697 36 q 691 8 697 15 q 674 0 685 0 l 147 0 q 122 9 131 0 q 115 35 114 18 l 147 449 l 47 393 q 33 389 39 389 q 16 397 24 389 q 8 417 8 406 q 24 440 8 433 l 153 511 l 188 960 q 197 979 189 972 q 218 986 206 986 q 239 977 231 986 q 246 954 247 968 l 214 544 l 454 676 q 467 679 458 679 q 484 671 476 679 q 492 651 492 663 q 479 632 492 639 l 208 482 l 175 53 l 672 53 z "},"M":{"ha":1167,"x_min":107,"x_max":1083,"o":"m 1060 989 q 1083 968 1083 989 l 1008 18 q 999 0 1007 7 q 981 -7 990 -7 q 959 2 968 -7 q 950 25 950 11 l 1017 849 l 604 168 q 592 156 601 161 q 572 151 582 151 q 551 157 561 151 q 539 172 542 163 l 232 854 l 167 18 q 157 0 165 7 q 139 -7 149 -7 q 117 2 126 -7 q 108 25 107 11 l 182 957 q 191 978 183 969 q 213 986 199 986 q 242 963 233 986 l 575 207 l 1028 971 q 1060 989 1036 989 z "},"Ṃ":{"ha":1167,"x_min":108,"x_max":1083,"o":"m 1060 989 q 1083 968 1083 989 l 1008 18 q 999 0 1007 7 q 981 -7 990 -7 q 959 2 968 -7 q 950 25 950 11 l 1017 849 l 604 168 q 592 156 601 161 q 572 151 582 151 q 551 157 561 151 q 539 172 542 163 l 232 854 l 167 18 q 157 0 165 7 q 139 -7 149 -7 q 117 2 126 -7 q 108 25 107 11 l 182 957 q 191 978 183 969 q 213 986 199 986 q 242 963 233 986 l 575 207 l 1028 971 q 1060 989 1036 989 m 542 -247 q 503 -233 518 -247 q 489 -196 489 -219 q 503 -158 489 -172 q 542 -144 518 -144 q 580 -158 565 -144 q 594 -196 594 -172 q 580 -233 594 -219 q 542 -247 565 -247 z "},"N":{"ha":1017,"x_min":107,"x_max":933,"o":"m 906 986 q 925 977 917 986 q 933 956 933 968 l 860 21 q 835 -7 857 -7 q 815 -1 821 -7 q 801 14 808 4 l 231 885 l 163 18 q 135 -7 161 -7 q 115 2 124 -7 q 107 24 107 11 l 181 957 q 210 986 182 986 q 240 965 228 986 l 808 100 l 878 961 q 906 986 879 986 z "},"Ǌ":{"ha":1429,"x_min":107,"x_max":1346,"o":"m 906 986 q 925 977 917 986 q 933 956 933 968 l 860 21 q 835 -7 857 -7 q 815 -1 821 -7 q 801 14 808 4 l 231 885 l 163 18 q 135 -7 161 -7 q 115 2 124 -7 q 107 24 107 11 l 181 957 q 210 986 182 986 q 240 965 228 986 l 808 100 l 878 961 q 906 986 879 986 m 1003 -7 q 985 2 992 -7 q 981 22 979 11 q 988 37 981 29 q 1006 46 994 44 l 1050 49 q 1177 105 1131 54 q 1232 249 1224 156 l 1289 956 q 1298 978 1289 969 q 1319 986 1307 986 q 1346 956 1346 986 l 1289 246 q 1219 65 1279 128 q 1050 -4 1158 3 l 1004 -7 l 1003 -7 z "},"Ń":{"ha":1017,"x_min":107,"x_max":933,"o":"m 906 986 q 925 977 917 986 q 933 956 933 968 l 860 21 q 835 -7 857 -7 q 815 -1 821 -7 q 801 14 808 4 l 231 885 l 163 18 q 135 -7 161 -7 q 115 2 124 -7 q 107 24 107 11 l 181 957 q 210 986 182 986 q 240 965 228 986 l 808 100 l 878 961 q 906 986 879 986 m 593 1067 q 571 1056 582 1056 q 559 1060 564 1056 q 554 1072 554 1065 q 560 1089 554 1082 l 681 1256 q 721 1281 697 1281 q 742 1272 733 1281 q 751 1251 751 1264 q 735 1217 751 1236 l 593 1067 z "},"Ň":{"ha":1017,"x_min":107,"x_max":933,"o":"m 906 986 q 925 977 917 986 q 933 956 933 968 l 860 21 q 835 -7 857 -7 q 815 -1 821 -7 q 801 14 808 4 l 231 885 l 163 18 q 135 -7 161 -7 q 115 2 124 -7 q 107 24 107 11 l 181 957 q 210 986 182 986 q 240 965 228 986 l 808 100 l 878 961 q 906 986 879 986 m 690 1267 q 714 1281 700 1281 q 738 1270 728 1281 q 747 1246 747 1260 q 740 1228 747 1238 l 606 1075 q 564 1053 586 1053 q 528 1075 542 1053 l 424 1222 q 415 1247 415 1235 q 424 1268 415 1260 q 444 1276 432 1276 q 476 1257 463 1276 l 568 1113 l 690 1267 z "},"Ņ":{"ha":1017,"x_min":107,"x_max":933,"o":"m 906 986 q 925 977 917 986 q 933 956 933 968 l 860 21 q 835 -7 857 -7 q 815 -1 821 -7 q 801 14 808 4 l 231 885 l 163 18 q 135 -7 161 -7 q 115 2 124 -7 q 107 24 107 11 l 181 957 q 210 986 182 986 q 240 965 228 986 l 808 100 l 878 961 q 906 986 879 986 m 475 -99 q 528 -164 528 -99 q 510 -250 528 -206 q 453 -332 492 -294 q 428 -344 440 -344 q 413 -338 418 -344 q 407 -324 407 -332 q 418 -301 407 -312 q 453 -254 442 -278 q 471 -203 465 -231 q 435 -189 449 -201 q 422 -154 422 -176 q 438 -115 422 -131 q 475 -99 453 -99 z "},"Ṅ":{"ha":1017,"x_min":107,"x_max":933,"o":"m 906 986 q 925 977 917 986 q 933 956 933 968 l 860 21 q 835 -7 857 -7 q 815 -1 821 -7 q 801 14 808 4 l 231 885 l 163 18 q 135 -7 161 -7 q 115 2 124 -7 q 107 24 107 11 l 181 957 q 210 986 182 986 q 240 965 228 986 l 808 100 l 878 961 q 906 986 879 986 m 575 1117 q 538 1131 553 1117 q 524 1168 524 1144 q 539 1204 524 1190 q 575 1218 554 1218 q 612 1204 597 1218 q 626 1168 626 1190 q 612 1131 626 1144 q 575 1117 597 1117 z "},"Ṇ":{"ha":1017,"x_min":107,"x_max":933,"o":"m 906 986 q 925 977 917 986 q 933 956 933 968 l 860 21 q 835 -7 857 -7 q 815 -1 821 -7 q 801 14 808 4 l 231 885 l 163 18 q 135 -7 161 -7 q 115 2 124 -7 q 107 24 107 11 l 181 957 q 210 986 182 986 q 240 965 228 986 l 808 100 l 878 961 q 906 986 879 986 m 467 -247 q 428 -233 443 -247 q 414 -196 414 -219 q 428 -158 414 -172 q 467 -144 443 -144 q 505 -158 490 -144 q 519 -196 519 -172 q 505 -233 519 -219 q 467 -247 490 -247 z "},"Ŋ":{"ha":1017,"x_min":107,"x_max":933,"o":"m 906 986 q 925 977 917 986 q 933 956 933 968 l 857 -6 q 786 -185 847 -122 q 617 -254 725 -247 l 568 -257 l 567 -257 q 553 -249 558 -257 q 547 -232 547 -242 q 553 -212 547 -221 q 571 -204 560 -203 l 631 -201 q 749 -145 703 -199 q 803 0 794 -92 l 803 10 l 231 885 l 163 18 q 135 -7 161 -7 q 115 2 124 -7 q 107 24 107 11 l 181 957 q 210 986 182 986 q 240 965 228 986 l 808 100 l 878 961 q 906 986 879 986 z "},"ǋ":{"ha":1311,"x_min":107,"x_max":1261,"o":"m 906 986 q 925 977 917 986 q 933 956 933 968 l 860 21 q 835 -7 857 -7 q 815 -1 821 -7 q 801 14 808 4 l 231 885 l 163 18 q 135 -7 161 -7 q 115 2 124 -7 q 107 24 107 11 l 181 957 q 210 986 182 986 q 240 965 228 986 l 808 100 l 878 961 q 906 986 879 986 m 867 -254 q 851 -247 857 -254 q 846 -229 846 -239 l 846 -226 q 853 -211 846 -218 q 872 -203 861 -204 l 913 -200 q 1055 -144 1008 -194 q 1108 10 1101 -93 l 1160 657 q 1189 686 1164 686 q 1210 678 1201 686 q 1218 657 1219 671 l 1168 18 q 1092 -182 1158 -118 q 893 -253 1026 -246 l 869 -254 l 867 -254 m 1210 853 q 1174 867 1189 853 q 1158 903 1158 881 q 1173 940 1158 926 q 1210 954 1188 954 q 1247 940 1232 954 q 1261 903 1261 926 q 1246 867 1261 881 q 1210 853 1231 853 z "},"Ṉ":{"ha":1017,"x_min":107,"x_max":933,"o":"m 906 986 q 925 977 917 986 q 933 956 933 968 l 860 21 q 835 -7 857 -7 q 815 -1 821 -7 q 801 14 808 4 l 231 885 l 163 18 q 135 -7 161 -7 q 115 2 124 -7 q 107 24 107 11 l 181 957 q 210 986 182 986 q 240 965 228 986 l 808 100 l 878 961 q 906 986 879 986 m 296 -225 q 258 -196 258 -225 q 300 -165 258 -165 l 638 -165 q 675 -196 675 -165 q 664 -217 675 -210 q 633 -225 653 -225 l 296 -225 z "},"Ñ":{"ha":1017,"x_min":107,"x_max":933,"o":"m 906 986 q 925 977 917 986 q 933 956 933 968 l 860 21 q 835 -7 857 -7 q 815 -1 821 -7 q 801 14 808 4 l 231 885 l 163 18 q 135 -7 161 -7 q 115 2 124 -7 q 107 24 107 11 l 181 957 q 210 986 182 986 q 240 965 228 986 l 808 100 l 878 961 q 906 986 879 986 m 664 1107 q 558 1143 625 1107 q 516 1163 538 1154 q 479 1171 494 1171 q 438 1160 453 1171 q 407 1128 422 1149 q 383 1108 393 1108 q 368 1116 374 1108 q 363 1133 363 1124 q 379 1177 363 1154 q 424 1215 396 1200 q 486 1231 451 1231 q 592 1194 525 1231 q 634 1175 613 1183 q 671 1167 656 1167 q 713 1178 697 1167 q 742 1208 729 1189 q 765 1228 757 1228 q 781 1221 775 1228 q 788 1203 788 1214 q 771 1160 788 1183 q 726 1122 754 1138 q 664 1107 699 1107 z "},"O":{"ha":1043,"x_min":104,"x_max":963,"o":"m 521 -11 q 298 44 392 -11 q 154 201 204 99 q 104 444 104 304 q 158 733 104 610 q 312 924 213 857 q 544 990 411 990 q 768 935 674 990 q 913 778 863 881 q 963 533 963 675 q 908 246 963 369 q 754 56 854 122 q 521 -11 654 -11 m 522 47 q 724 106 639 47 q 855 274 810 164 q 900 535 900 383 q 808 829 900 726 q 544 932 717 932 q 342 874 428 932 q 212 705 257 815 q 167 443 167 594 q 259 150 167 253 q 522 47 351 47 z "},"Ó":{"ha":1043,"x_min":104,"x_max":963,"o":"m 521 -11 q 298 44 392 -11 q 154 201 204 99 q 104 444 104 304 q 158 733 104 610 q 312 924 213 857 q 544 990 411 990 q 768 935 674 990 q 913 778 863 881 q 963 533 963 675 q 908 246 963 369 q 754 56 854 122 q 521 -11 654 -11 m 522 47 q 724 106 639 47 q 855 274 810 164 q 900 535 900 383 q 808 829 900 726 q 544 932 717 932 q 342 874 428 932 q 212 705 257 815 q 167 443 167 594 q 259 150 167 253 q 522 47 351 47 m 606 1067 q 583 1056 594 1056 q 572 1060 576 1056 q 567 1072 567 1065 q 572 1089 567 1082 l 693 1256 q 733 1281 710 1281 q 755 1272 746 1281 q 764 1251 764 1264 q 747 1217 764 1236 l 606 1067 z "},"Ŏ":{"ha":1043,"x_min":104,"x_max":963,"o":"m 521 -11 q 298 44 392 -11 q 154 201 204 99 q 104 444 104 304 q 158 733 104 610 q 312 924 213 857 q 544 990 411 990 q 768 935 674 990 q 913 778 863 881 q 963 533 963 675 q 908 246 963 369 q 754 56 854 122 q 521 -11 654 -11 m 522 47 q 724 106 639 47 q 855 274 810 164 q 900 535 900 383 q 808 829 900 726 q 544 932 717 932 q 342 874 428 932 q 212 705 257 815 q 167 443 167 594 q 259 150 167 253 q 522 47 351 47 m 579 1081 q 462 1112 513 1081 q 386 1207 411 1143 q 383 1222 383 1213 q 392 1244 383 1236 q 413 1253 400 1253 q 444 1229 435 1253 q 501 1159 468 1181 q 582 1138 535 1138 q 667 1159 631 1138 q 735 1229 704 1181 q 772 1253 749 1253 q 793 1246 785 1253 q 801 1226 801 1239 q 796 1207 801 1217 q 704 1112 761 1143 q 579 1081 647 1081 z "},"Ô":{"ha":1043,"x_min":104,"x_max":963,"o":"m 521 -11 q 298 44 392 -11 q 154 201 204 99 q 104 444 104 304 q 158 733 104 610 q 312 924 213 857 q 544 990 411 990 q 768 935 674 990 q 913 778 863 881 q 963 533 963 675 q 908 246 963 369 q 754 56 854 122 q 521 -11 654 -11 m 522 47 q 724 106 639 47 q 855 274 810 164 q 900 535 900 383 q 808 829 900 726 q 544 932 717 932 q 342 874 428 932 q 212 705 257 815 q 167 443 167 594 q 259 150 167 253 q 522 47 351 47 m 472 1065 q 447 1053 464 1053 q 424 1063 433 1053 q 414 1086 414 1074 q 421 1104 414 1094 l 556 1257 q 597 1279 575 1279 q 633 1257 619 1279 l 738 1110 q 746 1085 746 1097 q 738 1064 746 1072 q 718 1056 729 1056 q 685 1076 699 1056 l 593 1219 l 472 1065 z "},"Ố":{"ha":1043,"x_min":104,"x_max":963,"o":"m 521 -11 q 298 44 392 -11 q 154 201 204 99 q 104 444 104 304 q 158 733 104 610 q 312 924 213 857 q 544 990 411 990 q 768 935 674 990 q 913 778 863 881 q 963 533 963 675 q 908 246 963 369 q 754 56 854 122 q 521 -11 654 -11 m 522 47 q 724 106 639 47 q 855 274 810 164 q 900 535 900 383 q 808 829 900 726 q 544 932 717 932 q 342 874 428 932 q 212 705 257 815 q 167 443 167 594 q 259 150 167 253 q 522 47 351 47 m 751 1204 q 735 1196 743 1196 q 722 1201 728 1196 q 717 1215 717 1207 q 722 1232 717 1225 l 836 1386 q 876 1408 853 1408 q 901 1399 892 1408 q 911 1376 911 1390 q 890 1338 911 1358 l 751 1204 m 474 1067 q 447 1053 461 1053 q 423 1063 433 1053 q 413 1086 413 1072 q 419 1104 413 1094 l 556 1260 q 597 1282 575 1282 q 633 1260 619 1282 l 738 1110 q 746 1086 746 1097 q 737 1065 746 1074 q 717 1056 728 1056 q 683 1078 697 1056 l 593 1222 l 474 1067 z "},"Ộ":{"ha":1043,"x_min":104,"x_max":963,"o":"m 521 -11 q 298 44 392 -11 q 154 201 204 99 q 104 444 104 304 q 158 733 104 610 q 312 924 213 857 q 544 990 411 990 q 768 935 674 990 q 913 778 863 881 q 963 533 963 675 q 908 246 963 369 q 754 56 854 122 q 521 -11 654 -11 m 522 47 q 724 106 639 47 q 855 274 810 164 q 900 535 900 383 q 808 829 900 726 q 544 932 717 932 q 342 874 428 932 q 212 705 257 815 q 167 443 167 594 q 259 150 167 253 q 522 47 351 47 m 479 -247 q 441 -233 456 -247 q 426 -196 426 -219 q 441 -158 426 -172 q 479 -144 456 -144 q 517 -158 503 -144 q 532 -196 532 -172 q 517 -233 532 -219 q 479 -247 503 -247 m 472 1065 q 447 1053 464 1053 q 424 1063 433 1053 q 414 1086 414 1074 q 421 1104 414 1094 l 556 1257 q 597 1279 575 1279 q 633 1257 619 1279 l 738 1110 q 746 1085 746 1097 q 738 1064 746 1072 q 718 1056 729 1056 q 685 1076 699 1056 l 593 1219 l 472 1065 z "},"Ồ":{"ha":1043,"x_min":104,"x_max":963,"o":"m 521 -11 q 298 44 392 -11 q 154 201 204 99 q 104 444 104 304 q 158 733 104 610 q 312 924 213 857 q 544 990 411 990 q 768 935 674 990 q 913 778 863 881 q 963 533 963 675 q 908 246 963 369 q 754 56 854 122 q 521 -11 654 -11 m 522 47 q 724 106 639 47 q 855 274 810 164 q 900 535 900 383 q 808 829 900 726 q 544 932 717 932 q 342 874 428 932 q 212 705 257 815 q 167 443 167 594 q 259 150 167 253 q 522 47 351 47 m 799 1235 q 804 1219 804 1228 q 797 1201 804 1208 q 778 1193 789 1193 q 761 1200 771 1193 l 646 1335 q 628 1374 628 1353 q 642 1405 628 1392 q 674 1418 656 1418 q 717 1390 700 1418 l 799 1235 m 474 1067 q 447 1053 461 1053 q 423 1063 433 1053 q 413 1086 413 1072 q 419 1104 413 1094 l 556 1260 q 597 1282 575 1282 q 633 1260 619 1282 l 738 1110 q 746 1086 746 1097 q 737 1065 746 1074 q 717 1056 728 1056 q 683 1078 697 1056 l 593 1222 l 474 1067 z "},"Ổ":{"ha":1043,"x_min":104,"x_max":963,"o":"m 521 -11 q 298 44 392 -11 q 154 201 204 99 q 104 444 104 304 q 158 733 104 610 q 312 924 213 857 q 544 990 411 990 q 768 935 674 990 q 913 778 863 881 q 963 533 963 675 q 908 246 963 369 q 754 56 854 122 q 521 -11 654 -11 m 522 47 q 724 106 639 47 q 855 274 810 164 q 900 535 900 383 q 808 829 900 726 q 544 932 717 932 q 342 874 428 932 q 212 705 257 815 q 167 443 167 594 q 259 150 167 253 q 522 47 351 47 m 756 1219 q 747 1202 754 1208 q 729 1196 739 1196 q 711 1205 719 1196 q 704 1229 703 1214 q 720 1260 706 1250 q 763 1285 735 1271 q 794 1301 783 1293 q 804 1321 804 1310 q 787 1341 804 1333 q 742 1349 769 1349 q 668 1338 711 1349 q 656 1336 664 1336 q 637 1343 643 1336 q 631 1358 631 1350 q 637 1377 631 1368 q 656 1390 643 1386 q 744 1407 697 1407 q 838 1385 806 1407 q 871 1328 871 1364 q 853 1282 871 1297 q 800 1253 835 1267 q 767 1235 778 1242 q 756 1219 757 1229 m 474 1067 q 447 1053 461 1053 q 423 1063 433 1053 q 413 1086 413 1072 q 419 1104 413 1094 l 556 1260 q 597 1282 575 1282 q 633 1260 619 1282 l 738 1110 q 746 1086 746 1097 q 737 1065 746 1074 q 717 1056 728 1056 q 683 1078 697 1056 l 593 1222 l 474 1067 z "},"Ỗ":{"ha":1043,"x_min":104,"x_max":963,"o":"m 521 -11 q 298 44 392 -11 q 154 201 204 99 q 104 444 104 304 q 158 733 104 610 q 312 924 213 857 q 544 990 411 990 q 768 935 674 990 q 913 778 863 881 q 963 533 963 675 q 908 246 963 369 q 754 56 854 122 q 521 -11 654 -11 m 522 47 q 724 106 639 47 q 855 274 810 164 q 900 535 900 383 q 808 829 900 726 q 544 932 717 932 q 342 874 428 932 q 212 705 257 815 q 167 443 167 594 q 259 150 167 253 q 522 47 351 47 m 411 1300 q 396 1308 401 1300 q 390 1326 390 1315 q 406 1370 390 1347 q 450 1408 422 1393 q 513 1422 478 1422 q 560 1413 536 1422 q 619 1388 583 1404 q 642 1376 624 1385 q 674 1364 660 1368 q 697 1360 688 1360 q 740 1371 725 1360 q 771 1401 756 1382 q 793 1419 783 1419 q 809 1412 803 1419 q 815 1393 815 1404 q 780 1328 815 1358 q 692 1297 744 1297 q 646 1306 669 1297 q 586 1331 622 1314 q 507 1358 533 1358 q 465 1348 479 1358 q 433 1318 450 1338 q 411 1300 421 1300 m 474 1067 q 447 1053 461 1053 q 423 1063 433 1053 q 413 1086 413 1072 q 419 1104 413 1094 l 556 1260 q 597 1282 575 1282 q 633 1260 619 1282 l 738 1110 q 746 1086 746 1097 q 737 1065 746 1074 q 717 1056 728 1056 q 683 1078 697 1056 l 593 1222 l 474 1067 z "},"Ȍ":{"ha":1043,"x_min":104,"x_max":963,"o":"m 521 -11 q 298 44 392 -11 q 154 201 204 99 q 104 444 104 304 q 158 733 104 610 q 312 924 213 857 q 544 990 411 990 q 768 935 674 990 q 913 778 863 881 q 963 533 963 675 q 908 246 963 369 q 754 56 854 122 q 521 -11 654 -11 m 522 47 q 724 106 639 47 q 855 274 810 164 q 900 535 900 383 q 808 829 900 726 q 544 932 717 932 q 342 874 428 932 q 212 705 257 815 q 167 443 167 594 q 259 150 167 253 q 522 47 351 47 m 389 1222 q 383 1242 383 1232 q 394 1267 383 1256 q 418 1278 404 1278 q 451 1247 442 1278 l 515 1081 q 517 1074 517 1078 q 512 1060 517 1065 q 500 1056 507 1056 q 485 1064 492 1056 l 389 1222 m 540 1222 q 535 1242 535 1232 q 545 1267 535 1256 q 569 1278 556 1278 q 604 1247 593 1278 l 668 1081 l 669 1075 q 664 1061 669 1067 q 651 1056 658 1056 q 638 1064 643 1056 l 540 1222 z "},"Ö":{"ha":1043,"x_min":104,"x_max":963,"o":"m 521 -11 q 298 44 392 -11 q 154 201 204 99 q 104 444 104 304 q 158 733 104 610 q 312 924 213 857 q 544 990 411 990 q 768 935 674 990 q 913 778 863 881 q 963 533 963 675 q 908 246 963 369 q 754 56 854 122 q 521 -11 654 -11 m 522 47 q 724 106 639 47 q 855 274 810 164 q 900 535 900 383 q 808 829 900 726 q 544 932 717 932 q 342 874 428 932 q 212 705 257 815 q 167 443 167 594 q 259 150 167 253 q 522 47 351 47 m 476 1119 q 441 1133 456 1119 q 426 1168 426 1147 q 441 1203 426 1189 q 476 1217 456 1217 q 510 1203 496 1217 q 525 1168 525 1189 q 511 1133 525 1147 q 476 1119 497 1119 m 699 1119 q 664 1133 678 1119 q 650 1168 650 1147 q 665 1203 650 1189 q 699 1217 679 1217 q 734 1203 719 1217 q 749 1168 749 1189 q 734 1133 749 1147 q 699 1119 719 1119 z "},"Ȫ":{"ha":1043,"x_min":104,"x_max":963,"o":"m 521 -11 q 298 44 392 -11 q 154 201 204 99 q 104 444 104 304 q 158 733 104 610 q 312 924 213 857 q 544 990 411 990 q 768 935 674 990 q 913 778 863 881 q 963 533 963 675 q 908 246 963 369 q 754 56 854 122 q 521 -11 654 -11 m 522 47 q 724 106 639 47 q 855 274 810 164 q 900 535 900 383 q 808 829 900 726 q 544 932 717 932 q 342 874 428 932 q 212 705 257 815 q 167 443 167 594 q 259 150 167 253 q 522 47 351 47 m 476 1119 q 441 1133 456 1119 q 426 1168 426 1147 q 441 1203 426 1189 q 476 1217 456 1217 q 510 1203 496 1217 q 525 1168 525 1189 q 511 1133 525 1147 q 476 1119 497 1119 m 699 1119 q 664 1133 678 1119 q 650 1168 650 1147 q 665 1203 650 1189 q 699 1217 679 1217 q 734 1203 719 1217 q 749 1168 749 1189 q 734 1133 749 1147 q 699 1119 719 1119 m 435 1361 q 397 1390 397 1361 q 408 1412 397 1404 q 439 1419 419 1419 l 776 1419 q 814 1390 814 1419 q 803 1369 814 1376 q 772 1361 792 1361 l 435 1361 z "},"Ȱ":{"ha":1043,"x_min":104,"x_max":963,"o":"m 521 -11 q 298 44 392 -11 q 154 201 204 99 q 104 444 104 304 q 158 733 104 610 q 312 924 213 857 q 544 990 411 990 q 768 935 674 990 q 913 778 863 881 q 963 533 963 675 q 908 246 963 369 q 754 56 854 122 q 521 -11 654 -11 m 522 47 q 724 106 639 47 q 855 274 810 164 q 900 535 900 383 q 808 829 900 726 q 544 932 717 932 q 342 874 428 932 q 212 705 257 815 q 167 443 167 594 q 259 150 167 253 q 522 47 351 47 m 588 1117 q 551 1131 565 1117 q 536 1168 536 1144 q 551 1204 536 1190 q 588 1218 567 1218 q 624 1204 610 1218 q 639 1168 639 1190 q 624 1131 639 1144 q 588 1117 610 1117 m 435 1361 q 397 1390 397 1361 q 408 1412 397 1404 q 439 1419 419 1419 l 776 1419 q 814 1390 814 1419 q 803 1369 814 1376 q 772 1361 792 1361 l 435 1361 z "},"Ọ":{"ha":1043,"x_min":104,"x_max":963,"o":"m 521 -11 q 298 44 392 -11 q 154 201 204 99 q 104 444 104 304 q 158 733 104 610 q 312 924 213 857 q 544 990 411 990 q 768 935 674 990 q 913 778 863 881 q 963 533 963 675 q 908 246 963 369 q 754 56 854 122 q 521 -11 654 -11 m 522 47 q 724 106 639 47 q 855 274 810 164 q 900 535 900 383 q 808 829 900 726 q 544 932 717 932 q 342 874 428 932 q 212 705 257 815 q 167 443 167 594 q 259 150 167 253 q 522 47 351 47 m 479 -247 q 441 -233 456 -247 q 426 -196 426 -219 q 441 -158 426 -172 q 479 -144 456 -144 q 517 -158 503 -144 q 532 -196 532 -172 q 517 -233 532 -219 q 479 -247 503 -247 z "},"Ò":{"ha":1043,"x_min":104,"x_max":963,"o":"m 521 -11 q 298 44 392 -11 q 154 201 204 99 q 104 444 104 304 q 158 733 104 610 q 312 924 213 857 q 544 990 411 990 q 768 935 674 990 q 913 778 863 881 q 963 533 963 675 q 908 246 963 369 q 754 56 854 122 q 521 -11 654 -11 m 522 47 q 724 106 639 47 q 855 274 810 164 q 900 535 900 383 q 808 829 900 726 q 544 932 717 932 q 342 874 428 932 q 212 705 257 815 q 167 443 167 594 q 259 150 167 253 q 522 47 351 47 m 431 1225 q 421 1253 421 1239 q 430 1274 421 1265 q 451 1282 439 1282 q 488 1257 474 1282 l 588 1088 q 592 1074 592 1082 q 586 1060 592 1065 q 572 1056 581 1056 q 551 1067 558 1056 l 431 1225 z "},"Ỏ":{"ha":1043,"x_min":104,"x_max":963,"o":"m 521 -11 q 298 44 392 -11 q 154 201 204 99 q 104 444 104 304 q 158 733 104 610 q 312 924 213 857 q 544 990 411 990 q 768 935 674 990 q 913 778 863 881 q 963 533 963 675 q 908 246 963 369 q 754 56 854 122 q 521 -11 654 -11 m 522 47 q 724 106 639 47 q 855 274 810 164 q 900 535 900 383 q 808 829 900 726 q 544 932 717 932 q 342 874 428 932 q 212 705 257 815 q 167 443 167 594 q 259 150 167 253 q 522 47 351 47 m 611 1078 q 601 1061 610 1067 q 582 1056 593 1056 q 562 1064 571 1056 q 554 1088 553 1072 q 572 1124 556 1110 q 614 1151 588 1138 q 645 1172 636 1165 q 654 1192 654 1179 q 596 1218 654 1218 q 522 1207 556 1218 q 510 1206 518 1206 q 490 1213 497 1206 q 483 1229 483 1219 q 490 1247 483 1239 q 508 1260 496 1256 q 599 1276 550 1276 q 688 1255 656 1276 q 721 1196 721 1233 q 704 1149 721 1164 q 656 1117 688 1133 q 624 1098 635 1106 q 611 1078 613 1090 z "},"Ơ":{"ha":1043,"x_min":104,"x_max":1013,"o":"m 786 926 q 913 777 864 876 q 963 533 963 678 q 908 246 963 369 q 754 56 854 122 q 521 -11 654 -11 q 298 44 392 -11 q 154 201 204 99 q 104 444 104 304 q 158 734 104 611 q 315 924 213 857 q 558 990 418 990 q 651 985 588 990 q 775 979 726 979 q 909 1016 868 979 q 957 1140 950 1053 q 986 1172 960 1172 q 1013 1136 1013 1172 q 954 985 1013 1042 q 786 926 896 929 m 522 47 q 724 106 639 47 q 855 274 810 164 q 900 535 900 383 q 808 829 900 726 q 544 932 717 932 q 342 874 428 932 q 212 705 257 815 q 167 443 167 594 q 259 150 167 253 q 522 47 351 47 z "},"Ớ":{"ha":1043,"x_min":104,"x_max":1013,"o":"m 786 926 q 913 777 864 876 q 963 533 963 678 q 908 246 963 369 q 754 56 854 122 q 521 -11 654 -11 q 298 44 392 -11 q 154 201 204 99 q 104 444 104 304 q 158 734 104 611 q 315 924 213 857 q 558 990 418 990 q 651 985 588 990 q 775 979 726 979 q 909 1016 868 979 q 957 1140 950 1053 q 986 1172 960 1172 q 1013 1136 1013 1172 q 954 985 1013 1042 q 786 926 896 929 m 522 47 q 724 106 639 47 q 855 274 810 164 q 900 535 900 383 q 808 829 900 726 q 544 932 717 932 q 342 874 428 932 q 212 705 257 815 q 167 443 167 594 q 259 150 167 253 q 522 47 351 47 m 606 1067 q 583 1056 594 1056 q 572 1060 576 1056 q 567 1072 567 1065 q 572 1089 567 1082 l 693 1256 q 733 1281 710 1281 q 755 1272 746 1281 q 764 1251 764 1264 q 747 1217 764 1236 l 606 1067 z "},"Ợ":{"ha":1043,"x_min":104,"x_max":1013,"o":"m 786 926 q 913 777 864 876 q 963 533 963 678 q 908 246 963 369 q 754 56 854 122 q 521 -11 654 -11 q 298 44 392 -11 q 154 201 204 99 q 104 444 104 304 q 158 734 104 611 q 315 924 213 857 q 558 990 418 990 q 651 985 588 990 q 775 979 726 979 q 909 1016 868 979 q 957 1140 950 1053 q 986 1172 960 1172 q 1013 1136 1013 1172 q 954 985 1013 1042 q 786 926 896 929 m 522 47 q 724 106 639 47 q 855 274 810 164 q 900 535 900 383 q 808 829 900 726 q 544 932 717 932 q 342 874 428 932 q 212 705 257 815 q 167 443 167 594 q 259 150 167 253 q 522 47 351 47 m 481 -247 q 442 -233 457 -247 q 428 -196 428 -219 q 442 -158 428 -172 q 481 -144 457 -144 q 519 -158 504 -144 q 533 -196 533 -172 q 519 -233 533 -219 q 481 -247 504 -247 z "},"Ờ":{"ha":1043,"x_min":104,"x_max":1013,"o":"m 786 926 q 913 777 864 876 q 963 533 963 678 q 908 246 963 369 q 754 56 854 122 q 521 -11 654 -11 q 298 44 392 -11 q 154 201 204 99 q 104 444 104 304 q 158 734 104 611 q 315 924 213 857 q 558 990 418 990 q 651 985 588 990 q 775 979 726 979 q 909 1016 868 979 q 957 1140 950 1053 q 986 1172 960 1172 q 1013 1136 1013 1172 q 954 985 1013 1042 q 786 926 896 929 m 522 47 q 724 106 639 47 q 855 274 810 164 q 900 535 900 383 q 808 829 900 726 q 544 932 717 932 q 342 874 428 932 q 212 705 257 815 q 167 443 167 594 q 259 150 167 253 q 522 47 351 47 m 431 1225 q 421 1253 421 1239 q 430 1274 421 1265 q 451 1282 439 1282 q 488 1257 474 1282 l 588 1088 q 592 1074 592 1082 q 586 1060 592 1065 q 572 1056 581 1056 q 551 1067 558 1056 l 431 1225 z "},"Ở":{"ha":1043,"x_min":104,"x_max":1013,"o":"m 786 926 q 913 777 864 876 q 963 533 963 678 q 908 246 963 369 q 754 56 854 122 q 521 -11 654 -11 q 298 44 392 -11 q 154 201 204 99 q 104 444 104 304 q 158 734 104 611 q 315 924 213 857 q 558 990 418 990 q 651 985 588 990 q 775 979 726 979 q 909 1016 868 979 q 957 1140 950 1053 q 986 1172 960 1172 q 1013 1136 1013 1172 q 954 985 1013 1042 q 786 926 896 929 m 522 47 q 724 106 639 47 q 855 274 810 164 q 900 535 900 383 q 808 829 900 726 q 544 932 717 932 q 342 874 428 932 q 212 705 257 815 q 167 443 167 594 q 259 150 167 253 q 522 47 351 47 m 611 1078 q 601 1061 610 1067 q 582 1056 593 1056 q 562 1064 571 1056 q 554 1088 553 1072 q 572 1124 556 1110 q 614 1151 588 1138 q 645 1172 636 1165 q 654 1192 654 1179 q 596 1218 654 1218 q 522 1207 556 1218 q 510 1206 518 1206 q 490 1213 497 1206 q 483 1229 483 1219 q 490 1247 483 1239 q 508 1260 496 1256 q 599 1276 550 1276 q 688 1255 656 1276 q 721 1196 721 1233 q 704 1149 721 1164 q 656 1117 688 1133 q 624 1098 635 1106 q 611 1078 613 1090 z "},"Ỡ":{"ha":1043,"x_min":104,"x_max":1013,"o":"m 786 926 q 913 777 864 876 q 963 533 963 678 q 908 246 963 369 q 754 56 854 122 q 521 -11 654 -11 q 298 44 392 -11 q 154 201 204 99 q 104 444 104 304 q 158 734 104 611 q 315 924 213 857 q 558 990 418 990 q 651 985 588 990 q 775 979 726 979 q 909 1016 868 979 q 957 1140 950 1053 q 986 1172 960 1172 q 1013 1136 1013 1172 q 954 985 1013 1042 q 786 926 896 929 m 522 47 q 724 106 639 47 q 855 274 810 164 q 900 535 900 383 q 808 829 900 726 q 544 932 717 932 q 342 874 428 932 q 212 705 257 815 q 167 443 167 594 q 259 150 167 253 q 522 47 351 47 m 676 1107 q 571 1143 638 1107 q 528 1163 550 1154 q 492 1171 507 1171 q 450 1160 465 1171 q 419 1128 435 1149 q 396 1108 406 1108 q 381 1116 386 1108 q 375 1133 375 1124 q 392 1177 375 1154 q 436 1215 408 1200 q 499 1231 464 1231 q 604 1194 538 1231 q 647 1175 625 1183 q 683 1167 668 1167 q 726 1178 710 1167 q 754 1208 742 1189 q 778 1228 769 1228 q 794 1221 788 1228 q 800 1203 800 1214 q 783 1160 800 1183 q 739 1122 767 1138 q 676 1107 711 1107 z "},"Ő":{"ha":1043,"x_min":104,"x_max":963,"o":"m 521 -11 q 298 44 392 -11 q 154 201 204 99 q 104 444 104 304 q 158 733 104 610 q 312 924 213 857 q 544 990 411 990 q 768 935 674 990 q 913 778 863 881 q 963 533 963 675 q 908 246 963 369 q 754 56 854 122 q 521 -11 654 -11 m 522 47 q 724 106 639 47 q 855 274 810 164 q 900 535 900 383 q 808 829 900 726 q 544 932 717 932 q 342 874 428 932 q 212 705 257 815 q 167 443 167 594 q 259 150 167 253 q 522 47 351 47 m 519 1064 q 504 1056 514 1056 q 492 1063 496 1056 q 493 1081 488 1071 l 581 1247 q 621 1278 597 1278 q 641 1269 632 1278 q 650 1249 650 1261 q 639 1222 650 1238 l 519 1064 m 672 1064 q 657 1056 667 1056 q 644 1063 649 1056 q 646 1081 640 1071 l 733 1247 q 774 1278 749 1278 q 794 1269 785 1278 q 803 1249 803 1261 q 792 1222 803 1238 l 672 1064 z "},"Ȏ":{"ha":1043,"x_min":104,"x_max":963,"o":"m 521 -11 q 298 44 392 -11 q 154 201 204 99 q 104 444 104 304 q 158 733 104 610 q 312 924 213 857 q 544 990 411 990 q 768 935 674 990 q 913 778 863 881 q 963 533 963 675 q 908 246 963 369 q 754 56 854 122 q 521 -11 654 -11 m 522 47 q 724 106 639 47 q 855 274 810 164 q 900 535 900 383 q 808 829 900 726 q 544 932 717 932 q 342 874 428 932 q 212 705 257 815 q 167 443 167 594 q 259 150 167 253 q 522 47 351 47 m 594 1253 q 713 1222 661 1253 q 788 1126 764 1190 q 790 1110 790 1121 q 783 1089 790 1097 q 763 1081 775 1081 q 729 1106 740 1081 q 672 1174 706 1153 q 592 1196 639 1196 q 508 1174 544 1196 q 439 1106 471 1153 q 400 1081 425 1081 q 380 1088 388 1081 q 372 1107 372 1094 q 378 1126 372 1117 q 469 1222 413 1190 q 594 1253 526 1253 z "},"Ō":{"ha":1043,"x_min":104,"x_max":963,"o":"m 521 -11 q 298 44 392 -11 q 154 201 204 99 q 104 444 104 304 q 158 733 104 610 q 312 924 213 857 q 544 990 411 990 q 768 935 674 990 q 913 778 863 881 q 963 533 963 675 q 908 246 963 369 q 754 56 854 122 q 521 -11 654 -11 m 522 47 q 724 106 639 47 q 855 274 810 164 q 900 535 900 383 q 808 829 900 726 q 544 932 717 932 q 342 874 428 932 q 212 705 257 815 q 167 443 167 594 q 259 150 167 253 q 522 47 351 47 m 417 1139 q 379 1168 379 1139 q 390 1190 379 1182 q 421 1197 401 1197 l 758 1197 q 796 1168 796 1197 q 785 1147 796 1154 q 754 1139 774 1139 l 417 1139 z "},"Ṓ":{"ha":1043,"x_min":104,"x_max":963,"o":"m 521 -11 q 298 44 392 -11 q 154 201 204 99 q 104 444 104 304 q 158 733 104 610 q 312 924 213 857 q 544 990 411 990 q 768 935 674 990 q 913 778 863 881 q 963 533 963 675 q 908 246 963 369 q 754 56 854 122 q 521 -11 654 -11 m 522 47 q 724 106 639 47 q 855 274 810 164 q 900 535 900 383 q 808 829 900 726 q 544 932 717 932 q 342 874 428 932 q 212 705 257 815 q 167 443 167 594 q 259 150 167 253 q 522 47 351 47 m 417 1139 q 379 1168 379 1139 q 390 1190 379 1182 q 421 1197 401 1197 l 758 1197 q 796 1168 796 1197 q 785 1147 796 1154 q 754 1139 774 1139 l 417 1139 m 624 1289 q 601 1278 613 1278 q 590 1283 594 1278 q 585 1294 585 1288 q 590 1311 585 1304 l 711 1478 q 751 1503 728 1503 q 773 1494 764 1503 q 782 1474 782 1486 q 765 1439 782 1458 l 624 1289 z "},"Ṑ":{"ha":1043,"x_min":104,"x_max":963,"o":"m 521 -11 q 298 44 392 -11 q 154 201 204 99 q 104 444 104 304 q 158 733 104 610 q 312 924 213 857 q 544 990 411 990 q 768 935 674 990 q 913 778 863 881 q 963 533 963 675 q 908 246 963 369 q 754 56 854 122 q 521 -11 654 -11 m 522 47 q 724 106 639 47 q 855 274 810 164 q 900 535 900 383 q 808 829 900 726 q 544 932 717 932 q 342 874 428 932 q 212 705 257 815 q 167 443 167 594 q 259 150 167 253 q 522 47 351 47 m 417 1139 q 379 1168 379 1139 q 390 1190 379 1182 q 421 1197 401 1197 l 758 1197 q 796 1168 796 1197 q 785 1147 796 1154 q 754 1139 774 1139 l 417 1139 m 449 1447 q 439 1475 439 1461 q 448 1496 439 1488 q 469 1504 457 1504 q 506 1479 492 1504 l 606 1310 q 610 1296 610 1304 q 604 1283 610 1288 q 590 1278 599 1278 q 569 1289 576 1278 l 449 1447 z "},"Ǫ":{"ha":1043,"x_min":104,"x_max":963,"o":"m 618 0 q 528 -45 558 -14 q 499 -122 499 -76 q 522 -188 499 -165 q 586 -211 544 -211 q 654 -192 621 -211 q 674 -186 665 -186 q 689 -192 683 -186 q 694 -207 694 -199 q 688 -226 694 -217 q 672 -242 682 -236 q 581 -264 633 -264 q 474 -227 513 -264 q 435 -129 435 -190 q 449 -62 435 -93 q 489 -10 464 -31 q 284 51 371 -6 q 151 208 197 107 q 104 444 104 308 q 158 733 104 610 q 312 924 213 857 q 544 990 411 990 q 768 935 674 990 q 913 778 863 881 q 963 533 963 675 q 869 172 963 308 q 618 0 775 36 m 167 443 q 259 150 167 253 q 522 47 351 47 q 724 106 639 47 q 855 274 810 164 q 900 535 900 383 q 808 829 900 726 q 544 932 717 932 q 342 874 428 932 q 212 705 257 815 q 167 443 167 594 z "},"Ø":{"ha":1043,"x_min":104,"x_max":963,"o":"m 832 888 q 929 739 896 829 q 963 533 963 649 q 908 246 963 369 q 754 56 854 122 q 521 -11 654 -11 q 278 56 379 -11 l 224 -26 q 199 -40 214 -40 q 180 -33 188 -40 q 172 -15 172 -25 q 179 4 172 -7 l 236 89 q 138 239 172 149 q 104 444 104 329 q 158 733 104 610 q 312 924 213 857 q 544 990 411 990 q 789 922 689 990 l 844 1006 q 869 1021 856 1021 q 889 1013 881 1021 q 897 994 897 1006 q 890 975 897 986 l 832 888 m 167 443 q 269 139 167 244 l 757 874 q 544 932 674 932 q 342 874 428 932 q 212 705 257 815 q 167 443 167 594 m 522 47 q 724 106 639 47 q 855 274 810 164 q 900 535 900 383 q 800 839 900 735 l 311 104 q 522 47 396 47 z "},"Ǿ":{"ha":1043,"x_min":104,"x_max":963,"o":"m 832 888 q 929 739 896 829 q 963 533 963 649 q 908 246 963 369 q 754 56 854 122 q 521 -11 654 -11 q 278 56 379 -11 l 224 -26 q 199 -40 214 -40 q 180 -33 188 -40 q 172 -15 172 -25 q 179 4 172 -7 l 236 89 q 138 239 172 149 q 104 444 104 329 q 158 733 104 610 q 312 924 213 857 q 544 990 411 990 q 789 922 689 990 l 844 1006 q 869 1021 856 1021 q 889 1013 881 1021 q 897 994 897 1006 q 890 975 897 986 l 832 888 m 167 443 q 269 139 167 244 l 757 874 q 544 932 674 932 q 342 874 428 932 q 212 705 257 815 q 167 443 167 594 m 522 47 q 724 106 639 47 q 855 274 810 164 q 900 535 900 383 q 800 839 900 735 l 311 104 q 522 47 396 47 m 606 1067 q 583 1056 594 1056 q 572 1060 576 1056 q 567 1072 567 1065 q 572 1089 567 1082 l 693 1256 q 733 1281 710 1281 q 755 1272 746 1281 q 764 1251 764 1264 q 747 1217 764 1236 l 606 1067 z "},"Õ":{"ha":1043,"x_min":104,"x_max":963,"o":"m 521 -11 q 298 44 392 -11 q 154 201 204 99 q 104 444 104 304 q 158 733 104 610 q 312 924 213 857 q 544 990 411 990 q 768 935 674 990 q 913 778 863 881 q 963 533 963 675 q 908 246 963 369 q 754 56 854 122 q 521 -11 654 -11 m 522 47 q 724 106 639 47 q 855 274 810 164 q 900 535 900 383 q 808 829 900 726 q 544 932 717 932 q 342 874 428 932 q 212 705 257 815 q 167 443 167 594 q 259 150 167 253 q 522 47 351 47 m 676 1107 q 571 1143 638 1107 q 528 1163 550 1154 q 492 1171 507 1171 q 450 1160 465 1171 q 419 1128 435 1149 q 396 1108 406 1108 q 381 1116 386 1108 q 375 1133 375 1124 q 392 1177 375 1154 q 436 1215 408 1200 q 499 1231 464 1231 q 604 1194 538 1231 q 647 1175 625 1183 q 683 1167 668 1167 q 726 1178 710 1167 q 754 1208 742 1189 q 778 1228 769 1228 q 794 1221 788 1228 q 800 1203 800 1214 q 783 1160 800 1183 q 739 1122 767 1138 q 676 1107 711 1107 z "},"Ṍ":{"ha":1043,"x_min":104,"x_max":963,"o":"m 521 -11 q 298 44 392 -11 q 154 201 204 99 q 104 444 104 304 q 158 733 104 610 q 312 924 213 857 q 544 990 411 990 q 768 935 674 990 q 913 778 863 881 q 963 533 963 675 q 908 246 963 369 q 754 56 854 122 q 521 -11 654 -11 m 522 47 q 724 106 639 47 q 855 274 810 164 q 900 535 900 383 q 808 829 900 726 q 544 932 717 932 q 342 874 428 932 q 212 705 257 815 q 167 443 167 594 q 259 150 167 253 q 522 47 351 47 m 676 1107 q 571 1143 638 1107 q 528 1163 550 1154 q 492 1171 507 1171 q 450 1160 465 1171 q 419 1128 435 1149 q 396 1108 406 1108 q 381 1116 386 1108 q 375 1133 375 1124 q 392 1177 375 1154 q 436 1215 408 1200 q 499 1231 464 1231 q 604 1194 538 1231 q 647 1175 625 1183 q 683 1167 668 1167 q 726 1178 710 1167 q 754 1208 742 1189 q 778 1228 769 1228 q 794 1221 788 1228 q 800 1203 800 1214 q 783 1160 800 1183 q 739 1122 767 1138 q 676 1107 711 1107 m 624 1289 q 601 1278 613 1278 q 590 1283 594 1278 q 585 1294 585 1288 q 590 1311 585 1304 l 711 1478 q 751 1503 728 1503 q 773 1494 764 1503 q 782 1474 782 1486 q 765 1439 782 1458 l 624 1289 z "},"Ṏ":{"ha":1043,"x_min":104,"x_max":963,"o":"m 521 -11 q 298 44 392 -11 q 154 201 204 99 q 104 444 104 304 q 158 733 104 610 q 312 924 213 857 q 544 990 411 990 q 768 935 674 990 q 913 778 863 881 q 963 533 963 675 q 908 246 963 369 q 754 56 854 122 q 521 -11 654 -11 m 522 47 q 724 106 639 47 q 855 274 810 164 q 900 535 900 383 q 808 829 900 726 q 544 932 717 932 q 342 874 428 932 q 212 705 257 815 q 167 443 167 594 q 259 150 167 253 q 522 47 351 47 m 676 1107 q 571 1143 638 1107 q 528 1163 550 1154 q 492 1171 507 1171 q 450 1160 465 1171 q 419 1128 435 1149 q 396 1108 406 1108 q 381 1116 386 1108 q 375 1133 375 1124 q 392 1177 375 1154 q 436 1215 408 1200 q 499 1231 464 1231 q 604 1194 538 1231 q 647 1175 625 1183 q 683 1167 668 1167 q 726 1178 710 1167 q 754 1208 742 1189 q 778 1228 769 1228 q 794 1221 788 1228 q 800 1203 800 1214 q 783 1160 800 1183 q 739 1122 767 1138 q 676 1107 711 1107 m 494 1342 q 459 1356 474 1342 q 444 1390 444 1369 q 459 1425 444 1411 q 494 1439 474 1439 q 528 1425 514 1439 q 543 1390 543 1411 q 529 1356 543 1369 q 494 1342 515 1342 m 717 1342 q 682 1356 696 1342 q 668 1390 668 1369 q 683 1425 668 1411 q 717 1439 697 1439 q 752 1425 738 1439 q 767 1390 767 1411 q 752 1356 767 1369 q 717 1342 738 1342 z "},"Ȭ":{"ha":1043,"x_min":104,"x_max":963,"o":"m 521 -11 q 298 44 392 -11 q 154 201 204 99 q 104 444 104 304 q 158 733 104 610 q 312 924 213 857 q 544 990 411 990 q 768 935 674 990 q 913 778 863 881 q 963 533 963 675 q 908 246 963 369 q 754 56 854 122 q 521 -11 654 -11 m 522 47 q 724 106 639 47 q 855 274 810 164 q 900 535 900 383 q 808 829 900 726 q 544 932 717 932 q 342 874 428 932 q 212 705 257 815 q 167 443 167 594 q 259 150 167 253 q 522 47 351 47 m 676 1107 q 571 1143 638 1107 q 528 1163 550 1154 q 492 1171 507 1171 q 450 1160 465 1171 q 419 1128 435 1149 q 396 1108 406 1108 q 381 1116 386 1108 q 375 1133 375 1124 q 392 1177 375 1154 q 436 1215 408 1200 q 499 1231 464 1231 q 604 1194 538 1231 q 647 1175 625 1183 q 683 1167 668 1167 q 726 1178 710 1167 q 754 1208 742 1189 q 778 1228 769 1228 q 794 1221 788 1228 q 800 1203 800 1214 q 783 1160 800 1183 q 739 1122 767 1138 q 676 1107 711 1107 m 435 1361 q 397 1390 397 1361 q 408 1412 397 1404 q 439 1419 419 1419 l 776 1419 q 814 1390 814 1419 q 803 1369 814 1376 q 772 1361 792 1361 l 435 1361 z "},"Œ":{"ha":1453,"x_min":104,"x_max":1429,"o":"m 1404 979 q 1422 971 1415 979 q 1429 951 1429 963 q 1423 933 1429 942 q 1406 925 1417 925 l 889 925 l 857 524 l 1342 524 q 1360 515 1353 524 q 1367 496 1367 507 q 1360 478 1367 486 q 1343 469 1353 469 l 853 469 l 821 54 l 1332 54 q 1351 46 1343 54 q 1358 26 1358 38 q 1351 8 1358 17 q 1333 0 1344 0 l 554 0 q 219 115 335 0 q 104 446 104 231 q 229 838 104 696 q 585 979 354 979 l 1404 979 m 833 925 l 583 925 q 273 800 379 925 q 167 444 167 675 q 551 54 167 54 l 764 54 l 833 925 z "},"P":{"ha":878,"x_min":107,"x_max":835,"o":"m 531 979 q 757 909 679 979 q 835 718 835 839 q 744 496 835 571 q 493 421 653 421 l 197 421 l 165 19 q 156 1 164 8 q 138 -7 147 -7 q 116 2 125 -7 q 107 25 107 11 l 181 950 q 213 979 183 979 l 531 979 m 496 476 q 774 718 774 476 q 714 871 774 817 q 532 925 654 925 l 236 925 l 201 476 l 496 476 z "},"Þ":{"ha":878,"x_min":108,"x_max":818,"o":"m 526 754 q 742 693 667 754 q 818 513 818 632 q 735 314 818 386 q 494 242 651 242 l 185 242 l 167 19 q 158 0 165 7 q 139 -7 150 -7 q 117 2 126 -7 q 108 25 108 11 l 182 960 q 191 979 183 972 q 210 986 199 986 q 232 977 222 986 q 240 954 242 968 l 225 754 l 526 754 m 494 297 q 692 351 628 297 q 757 513 757 406 q 699 655 757 610 q 526 700 640 700 l 221 700 l 189 297 l 494 297 z "},"Q":{"ha":1043,"x_min":104,"x_max":963,"o":"m 963 533 q 878 187 963 328 q 633 6 793 46 q 679 -29 658 -6 q 722 -94 700 -53 l 788 -215 q 790 -229 790 -221 q 783 -248 790 -240 q 764 -256 775 -256 q 733 -235 746 -256 l 661 -103 q 492 -10 614 -14 q 289 49 376 -6 q 153 204 201 103 q 104 444 104 306 q 158 733 104 610 q 312 924 213 857 q 544 990 411 990 q 768 935 674 990 q 913 778 863 881 q 963 533 963 675 m 522 47 q 724 106 639 47 q 855 274 810 164 q 900 535 900 383 q 808 829 900 726 q 544 932 717 932 q 342 874 428 932 q 212 705 257 815 q 167 443 167 594 q 259 150 167 253 q 522 47 351 47 z "},"R":{"ha":940,"x_min":107,"x_max":858,"o":"m 833 33 q 838 18 838 25 q 829 1 838 8 q 810 -6 821 -6 q 781 13 790 -6 l 615 314 q 534 408 578 383 q 408 433 490 433 l 199 433 l 167 19 q 158 0 165 7 q 138 -7 150 -7 q 115 2 124 -7 q 108 26 107 11 l 181 949 q 192 971 182 963 q 214 979 201 979 l 553 979 q 779 916 700 979 q 858 728 858 853 q 784 527 858 601 q 569 443 710 453 q 619 406 597 432 q 667 335 642 381 l 833 33 m 521 489 q 729 547 661 489 q 797 725 797 604 q 737 876 797 826 q 556 925 676 925 l 238 925 l 203 489 l 521 489 z "},"Ŕ":{"ha":940,"x_min":108,"x_max":858,"o":"m 833 33 q 838 18 838 25 q 829 1 838 8 q 810 -6 821 -6 q 781 13 790 -6 l 615 314 q 534 408 578 383 q 408 433 490 433 l 199 433 l 167 19 q 158 0 165 7 q 138 -7 150 -7 q 115 2 124 -7 q 108 26 107 11 l 181 949 q 192 971 182 963 q 214 979 201 979 l 553 979 q 779 916 700 979 q 858 728 858 853 q 784 527 858 601 q 569 443 710 453 q 619 406 597 432 q 667 335 642 381 l 833 33 m 521 489 q 729 547 661 489 q 797 725 797 604 q 737 876 797 826 q 556 925 676 925 l 238 925 l 203 489 l 521 489 m 549 1067 q 526 1056 538 1056 q 515 1060 519 1056 q 510 1072 510 1065 q 515 1089 510 1082 l 636 1256 q 676 1281 653 1281 q 698 1272 689 1281 q 707 1251 707 1264 q 690 1217 707 1236 l 549 1067 z "},"Ř":{"ha":940,"x_min":108,"x_max":858,"o":"m 833 33 q 838 18 838 25 q 829 1 838 8 q 810 -6 821 -6 q 781 13 790 -6 l 615 314 q 534 408 578 383 q 408 433 490 433 l 199 433 l 167 19 q 158 0 165 7 q 138 -7 150 -7 q 115 2 124 -7 q 108 26 107 11 l 181 949 q 192 971 182 963 q 214 979 201 979 l 553 979 q 779 916 700 979 q 858 728 858 853 q 784 527 858 601 q 569 443 710 453 q 619 406 597 432 q 667 335 642 381 l 833 33 m 521 489 q 729 547 661 489 q 797 725 797 604 q 737 876 797 826 q 556 925 676 925 l 238 925 l 203 489 l 521 489 m 646 1267 q 669 1281 656 1281 q 693 1270 683 1281 q 703 1246 703 1260 q 696 1228 703 1238 l 561 1075 q 519 1053 542 1053 q 483 1075 497 1053 l 379 1222 q 371 1247 371 1235 q 379 1268 371 1260 q 400 1276 388 1276 q 432 1257 418 1276 l 524 1113 l 646 1267 z "},"Ŗ":{"ha":940,"x_min":108,"x_max":858,"o":"m 833 33 q 838 18 838 25 q 829 1 838 8 q 810 -6 821 -6 q 781 13 790 -6 l 615 314 q 534 408 578 383 q 408 433 490 433 l 199 433 l 167 19 q 158 0 165 7 q 138 -7 150 -7 q 115 2 124 -7 q 108 26 107 11 l 181 949 q 192 971 182 963 q 214 979 201 979 l 553 979 q 779 916 700 979 q 858 728 858 853 q 784 527 858 601 q 569 443 710 453 q 619 406 597 432 q 667 335 642 381 l 833 33 m 521 489 q 729 547 661 489 q 797 725 797 604 q 737 876 797 826 q 556 925 676 925 l 238 925 l 203 489 l 521 489 m 431 -99 q 483 -164 483 -99 q 465 -250 483 -206 q 408 -332 447 -294 q 383 -344 396 -344 q 368 -338 374 -344 q 363 -324 363 -332 q 374 -301 363 -312 q 409 -254 397 -278 q 426 -203 421 -231 q 391 -189 404 -201 q 378 -154 378 -176 q 393 -115 378 -131 q 431 -99 408 -99 z "},"Ȑ":{"ha":940,"x_min":108,"x_max":858,"o":"m 833 33 q 838 18 838 25 q 829 1 838 8 q 810 -6 821 -6 q 781 13 790 -6 l 615 314 q 534 408 578 383 q 408 433 490 433 l 199 433 l 167 19 q 158 0 165 7 q 138 -7 150 -7 q 115 2 124 -7 q 108 26 107 11 l 181 949 q 192 971 182 963 q 214 979 201 979 l 553 979 q 779 916 700 979 q 858 728 858 853 q 784 527 858 601 q 569 443 710 453 q 619 406 597 432 q 667 335 642 381 l 833 33 m 521 489 q 729 547 661 489 q 797 725 797 604 q 737 876 797 826 q 556 925 676 925 l 238 925 l 203 489 l 521 489 m 332 1222 q 326 1242 326 1232 q 337 1267 326 1256 q 361 1278 347 1278 q 394 1247 385 1278 l 458 1081 q 460 1074 460 1078 q 455 1060 460 1065 q 443 1056 450 1056 q 428 1064 435 1056 l 332 1222 m 483 1222 q 478 1242 478 1232 q 488 1267 478 1256 q 513 1278 499 1278 q 547 1247 536 1278 l 611 1081 l 613 1075 q 607 1061 613 1067 q 594 1056 601 1056 q 581 1064 586 1056 l 483 1222 z "},"Ṛ":{"ha":940,"x_min":108,"x_max":858,"o":"m 833 33 q 838 18 838 25 q 829 1 838 8 q 810 -6 821 -6 q 781 13 790 -6 l 615 314 q 534 408 578 383 q 408 433 490 433 l 199 433 l 167 19 q 158 0 165 7 q 138 -7 150 -7 q 115 2 124 -7 q 108 26 107 11 l 181 949 q 192 971 182 963 q 214 979 201 979 l 553 979 q 779 916 700 979 q 858 728 858 853 q 784 527 858 601 q 569 443 710 453 q 619 406 597 432 q 667 335 642 381 l 833 33 m 521 489 q 729 547 661 489 q 797 725 797 604 q 737 876 797 826 q 556 925 676 925 l 238 925 l 203 489 l 521 489 m 422 -247 q 384 -233 399 -247 q 369 -196 369 -219 q 384 -158 369 -172 q 422 -144 399 -144 q 460 -158 446 -144 q 475 -196 475 -172 q 460 -233 475 -219 q 422 -247 446 -247 z "},"Ȓ":{"ha":940,"x_min":108,"x_max":858,"o":"m 833 33 q 838 18 838 25 q 829 1 838 8 q 810 -6 821 -6 q 781 13 790 -6 l 615 314 q 534 408 578 383 q 408 433 490 433 l 199 433 l 167 19 q 158 0 165 7 q 138 -7 150 -7 q 115 2 124 -7 q 108 26 107 11 l 181 949 q 192 971 182 963 q 214 979 201 979 l 553 979 q 779 916 700 979 q 858 728 858 853 q 784 527 858 601 q 569 443 710 453 q 619 406 597 432 q 667 335 642 381 l 833 33 m 521 489 q 729 547 661 489 q 797 725 797 604 q 737 876 797 826 q 556 925 676 925 l 238 925 l 203 489 l 521 489 m 538 1253 q 656 1222 604 1253 q 731 1126 707 1190 q 733 1110 733 1121 q 726 1089 733 1097 q 706 1081 718 1081 q 672 1106 683 1081 q 615 1174 649 1153 q 535 1196 582 1196 q 451 1174 488 1196 q 382 1106 414 1153 q 343 1081 368 1081 q 323 1088 331 1081 q 315 1107 315 1094 q 321 1126 315 1117 q 413 1222 356 1190 q 538 1253 469 1253 z "},"Ṟ":{"ha":940,"x_min":108,"x_max":858,"o":"m 833 33 q 838 18 838 25 q 829 1 838 8 q 810 -6 821 -6 q 781 13 790 -6 l 615 314 q 534 408 578 383 q 408 433 490 433 l 199 433 l 167 19 q 158 0 165 7 q 138 -7 150 -7 q 115 2 124 -7 q 108 26 107 11 l 181 949 q 192 971 182 963 q 214 979 201 979 l 553 979 q 779 916 700 979 q 858 728 858 853 q 784 527 858 601 q 569 443 710 453 q 619 406 597 432 q 667 335 642 381 l 833 33 m 521 489 q 729 547 661 489 q 797 725 797 604 q 737 876 797 826 q 556 925 676 925 l 238 925 l 203 489 l 521 489 m 251 -225 q 214 -196 214 -225 q 256 -165 214 -165 l 593 -165 q 631 -196 631 -165 q 619 -217 631 -210 q 589 -225 608 -225 l 251 -225 z "},"S":{"ha":831,"x_min":49,"x_max":807,"o":"m 417 -11 q 218 19 303 -11 q 67 110 133 49 q 49 144 49 126 q 56 165 49 157 q 74 174 64 174 q 90 165 83 174 q 239 73 163 101 q 415 44 315 44 q 625 99 553 44 q 697 250 697 153 q 663 344 697 308 q 578 401 629 381 q 439 446 528 421 q 272 502 336 475 q 164 583 208 529 q 119 725 119 638 q 161 865 119 806 q 280 958 203 925 q 460 990 357 990 q 647 957 560 990 q 797 861 735 924 q 807 838 807 851 q 799 816 807 825 q 779 807 790 807 q 751 821 765 807 q 619 906 693 876 q 461 935 546 935 q 251 879 324 935 q 179 724 179 824 q 216 617 179 658 q 308 553 253 576 q 454 506 363 531 q 615 451 556 476 q 715 378 674 426 q 757 250 757 329 q 715 112 757 171 q 597 21 674 53 q 417 -11 519 -11 z "},"Ś":{"ha":831,"x_min":49,"x_max":807,"o":"m 417 -11 q 218 19 303 -11 q 67 110 133 49 q 49 144 49 126 q 56 165 49 157 q 74 174 64 174 q 90 165 83 174 q 239 73 163 101 q 415 44 315 44 q 625 99 553 44 q 697 250 697 153 q 663 344 697 308 q 578 401 629 381 q 439 446 528 421 q 272 502 336 475 q 164 583 208 529 q 119 725 119 638 q 161 865 119 806 q 280 958 203 925 q 460 990 357 990 q 647 957 560 990 q 797 861 735 924 q 807 838 807 851 q 799 816 807 825 q 779 807 790 807 q 751 821 765 807 q 619 906 693 876 q 461 935 546 935 q 251 879 324 935 q 179 724 179 824 q 216 617 179 658 q 308 553 253 576 q 454 506 363 531 q 615 451 556 476 q 715 378 674 426 q 757 250 757 329 q 715 112 757 171 q 597 21 674 53 q 417 -11 519 -11 m 500 1067 q 478 1056 489 1056 q 466 1060 471 1056 q 461 1072 461 1065 q 467 1089 461 1082 l 588 1256 q 628 1281 604 1281 q 649 1272 640 1281 q 658 1251 658 1264 q 642 1217 658 1236 l 500 1067 z "},"Ṥ":{"ha":831,"x_min":49,"x_max":807,"o":"m 417 -11 q 218 19 303 -11 q 67 110 133 49 q 49 144 49 126 q 56 165 49 157 q 74 174 64 174 q 90 165 83 174 q 239 73 163 101 q 415 44 315 44 q 625 99 553 44 q 697 250 697 153 q 663 344 697 308 q 578 401 629 381 q 439 446 528 421 q 272 502 336 475 q 164 583 208 529 q 119 725 119 638 q 161 865 119 806 q 280 958 203 925 q 460 990 357 990 q 647 957 560 990 q 797 861 735 924 q 807 838 807 851 q 799 816 807 825 q 779 807 790 807 q 751 821 765 807 q 619 906 693 876 q 461 935 546 935 q 251 879 324 935 q 179 724 179 824 q 216 617 179 658 q 308 553 253 576 q 454 506 363 531 q 615 451 556 476 q 715 378 674 426 q 757 250 757 329 q 715 112 757 171 q 597 21 674 53 q 417 -11 519 -11 m 496 1067 q 474 1056 485 1056 q 462 1060 467 1056 q 457 1072 457 1065 q 463 1089 457 1082 l 583 1256 q 624 1281 600 1281 q 645 1272 636 1281 q 654 1251 654 1264 q 638 1217 654 1236 l 496 1067 m 332 1175 q 295 1189 310 1175 q 281 1226 281 1203 q 296 1263 281 1249 q 332 1276 311 1276 q 369 1263 354 1276 q 383 1226 383 1249 q 369 1189 383 1203 q 332 1175 354 1175 z "},"Š":{"ha":831,"x_min":49,"x_max":807,"o":"m 417 -11 q 218 19 303 -11 q 67 110 133 49 q 49 144 49 126 q 56 165 49 157 q 74 174 64 174 q 90 165 83 174 q 239 73 163 101 q 415 44 315 44 q 625 99 553 44 q 697 250 697 153 q 663 344 697 308 q 578 401 629 381 q 439 446 528 421 q 272 502 336 475 q 164 583 208 529 q 119 725 119 638 q 161 865 119 806 q 280 958 203 925 q 460 990 357 990 q 647 957 560 990 q 797 861 735 924 q 807 838 807 851 q 799 816 807 825 q 779 807 790 807 q 751 821 765 807 q 619 906 693 876 q 461 935 546 935 q 251 879 324 935 q 179 724 179 824 q 216 617 179 658 q 308 553 253 576 q 454 506 363 531 q 615 451 556 476 q 715 378 674 426 q 757 250 757 329 q 715 112 757 171 q 597 21 674 53 q 417 -11 519 -11 m 597 1267 q 621 1281 607 1281 q 644 1270 635 1281 q 654 1246 654 1260 q 647 1228 654 1238 l 513 1075 q 471 1053 493 1053 q 435 1075 449 1053 l 331 1222 q 322 1247 322 1235 q 331 1268 322 1260 q 351 1276 339 1276 q 383 1257 369 1276 l 475 1113 l 597 1267 z "},"Ṧ":{"ha":831,"x_min":49,"x_max":807,"o":"m 417 -11 q 218 19 303 -11 q 67 110 133 49 q 49 144 49 126 q 56 165 49 157 q 74 174 64 174 q 90 165 83 174 q 239 73 163 101 q 415 44 315 44 q 625 99 553 44 q 697 250 697 153 q 663 344 697 308 q 578 401 629 381 q 439 446 528 421 q 272 502 336 475 q 164 583 208 529 q 119 725 119 638 q 161 865 119 806 q 280 958 203 925 q 460 990 357 990 q 647 957 560 990 q 797 861 735 924 q 807 838 807 851 q 799 816 807 825 q 779 807 790 807 q 751 821 765 807 q 619 906 693 876 q 461 935 546 935 q 251 879 324 935 q 179 724 179 824 q 216 617 179 658 q 308 553 253 576 q 454 506 363 531 q 615 451 556 476 q 715 378 674 426 q 757 250 757 329 q 715 112 757 171 q 597 21 674 53 q 417 -11 519 -11 m 597 1267 q 621 1281 607 1281 q 644 1270 635 1281 q 654 1246 654 1260 q 647 1228 654 1238 l 513 1075 q 471 1053 493 1053 q 435 1075 449 1053 l 331 1222 q 322 1247 322 1235 q 331 1268 322 1260 q 351 1276 339 1276 q 383 1257 369 1276 l 475 1113 l 597 1267 m 500 1339 q 463 1353 478 1339 q 449 1390 449 1367 q 464 1426 449 1413 q 500 1440 479 1440 q 537 1426 522 1440 q 551 1390 551 1413 q 537 1353 551 1367 q 500 1339 522 1339 z "},"Ş":{"ha":831,"x_min":49,"x_max":807,"o":"m 797 861 q 807 838 807 851 q 799 816 807 825 q 779 807 790 807 q 751 821 765 807 q 619 906 693 876 q 461 935 546 935 q 251 879 324 935 q 179 724 179 824 q 216 617 179 658 q 308 553 253 576 q 454 506 363 531 q 615 451 556 476 q 715 378 674 426 q 757 250 757 329 q 715 112 757 171 q 597 21 674 53 q 417 -11 519 -11 l 414 -11 l 404 -62 q 444 -57 419 -57 q 513 -82 488 -57 q 539 -150 539 -107 q 499 -233 539 -203 q 388 -264 458 -264 q 288 -246 335 -264 q 268 -221 268 -237 q 277 -203 268 -211 q 300 -196 286 -196 q 313 -197 308 -196 q 353 -207 336 -204 q 392 -210 369 -210 q 458 -195 435 -210 q 481 -153 481 -181 q 429 -110 481 -110 q 388 -117 407 -110 q 363 -125 368 -125 q 344 -117 351 -125 q 338 -100 336 -110 l 356 -8 q 194 28 265 -1 q 67 110 124 57 q 49 144 49 126 q 56 165 49 157 q 74 174 64 174 q 90 165 83 174 q 239 73 163 101 q 415 44 315 44 q 625 99 553 44 q 697 250 697 153 q 663 344 697 308 q 578 401 629 381 q 439 446 528 421 q 272 502 336 475 q 164 583 208 529 q 119 725 119 638 q 161 865 119 806 q 280 958 203 925 q 460 990 357 990 q 647 957 560 990 q 797 861 735 924 z "},"Ŝ":{"ha":831,"x_min":49,"x_max":807,"o":"m 417 -11 q 218 19 303 -11 q 67 110 133 49 q 49 144 49 126 q 56 165 49 157 q 74 174 64 174 q 90 165 83 174 q 239 73 163 101 q 415 44 315 44 q 625 99 553 44 q 697 250 697 153 q 663 344 697 308 q 578 401 629 381 q 439 446 528 421 q 272 502 336 475 q 164 583 208 529 q 119 725 119 638 q 161 865 119 806 q 280 958 203 925 q 460 990 357 990 q 647 957 560 990 q 797 861 735 924 q 807 838 807 851 q 799 816 807 825 q 779 807 790 807 q 751 821 765 807 q 619 906 693 876 q 461 935 546 935 q 251 879 324 935 q 179 724 179 824 q 216 617 179 658 q 308 553 253 576 q 454 506 363 531 q 615 451 556 476 q 715 378 674 426 q 757 250 757 329 q 715 112 757 171 q 597 21 674 53 q 417 -11 519 -11 m 367 1065 q 342 1053 358 1053 q 318 1063 328 1053 q 308 1086 308 1074 q 315 1104 308 1094 l 450 1257 q 492 1279 469 1279 q 528 1257 514 1279 l 632 1110 q 640 1085 640 1097 q 632 1064 640 1072 q 613 1056 624 1056 q 579 1076 593 1056 l 488 1219 l 367 1065 z "},"Ș":{"ha":831,"x_min":49,"x_max":807,"o":"m 417 -11 q 218 19 303 -11 q 67 110 133 49 q 49 144 49 126 q 56 165 49 157 q 74 174 64 174 q 90 165 83 174 q 239 73 163 101 q 415 44 315 44 q 625 99 553 44 q 697 250 697 153 q 663 344 697 308 q 578 401 629 381 q 439 446 528 421 q 272 502 336 475 q 164 583 208 529 q 119 725 119 638 q 161 865 119 806 q 280 958 203 925 q 460 990 357 990 q 647 957 560 990 q 797 861 735 924 q 807 838 807 851 q 799 816 807 825 q 779 807 790 807 q 751 821 765 807 q 619 906 693 876 q 461 935 546 935 q 251 879 324 935 q 179 724 179 824 q 216 617 179 658 q 308 553 253 576 q 454 506 363 531 q 615 451 556 476 q 715 378 674 426 q 757 250 757 329 q 715 112 757 171 q 597 21 674 53 q 417 -11 519 -11 m 390 -99 q 443 -164 443 -99 q 425 -250 443 -206 q 368 -332 407 -294 q 343 -344 356 -344 q 328 -338 333 -344 q 322 -324 322 -332 q 333 -301 322 -312 q 369 -254 357 -278 q 386 -203 381 -231 q 351 -189 364 -201 q 338 -154 338 -176 q 353 -115 338 -131 q 390 -99 368 -99 z "},"Ṡ":{"ha":831,"x_min":49,"x_max":807,"o":"m 417 -11 q 218 19 303 -11 q 67 110 133 49 q 49 144 49 126 q 56 165 49 157 q 74 174 64 174 q 90 165 83 174 q 239 73 163 101 q 415 44 315 44 q 625 99 553 44 q 697 250 697 153 q 663 344 697 308 q 578 401 629 381 q 439 446 528 421 q 272 502 336 475 q 164 583 208 529 q 119 725 119 638 q 161 865 119 806 q 280 958 203 925 q 460 990 357 990 q 647 957 560 990 q 797 861 735 924 q 807 838 807 851 q 799 816 807 825 q 779 807 790 807 q 751 821 765 807 q 619 906 693 876 q 461 935 546 935 q 251 879 324 935 q 179 724 179 824 q 216 617 179 658 q 308 553 253 576 q 454 506 363 531 q 615 451 556 476 q 715 378 674 426 q 757 250 757 329 q 715 112 757 171 q 597 21 674 53 q 417 -11 519 -11 m 482 1117 q 445 1131 460 1117 q 431 1168 431 1144 q 446 1204 431 1190 q 482 1218 461 1218 q 519 1204 504 1218 q 533 1168 533 1190 q 519 1131 533 1144 q 482 1117 504 1117 z "},"Ṣ":{"ha":831,"x_min":49,"x_max":807,"o":"m 417 -11 q 218 19 303 -11 q 67 110 133 49 q 49 144 49 126 q 56 165 49 157 q 74 174 64 174 q 90 165 83 174 q 239 73 163 101 q 415 44 315 44 q 625 99 553 44 q 697 250 697 153 q 663 344 697 308 q 578 401 629 381 q 439 446 528 421 q 272 502 336 475 q 164 583 208 529 q 119 725 119 638 q 161 865 119 806 q 280 958 203 925 q 460 990 357 990 q 647 957 560 990 q 797 861 735 924 q 807 838 807 851 q 799 816 807 825 q 779 807 790 807 q 751 821 765 807 q 619 906 693 876 q 461 935 546 935 q 251 879 324 935 q 179 724 179 824 q 216 617 179 658 q 308 553 253 576 q 454 506 363 531 q 615 451 556 476 q 715 378 674 426 q 757 250 757 329 q 715 112 757 171 q 597 21 674 53 q 417 -11 519 -11 m 382 -247 q 344 -233 358 -247 q 329 -196 329 -219 q 344 -158 329 -172 q 382 -144 358 -144 q 420 -158 406 -144 q 435 -196 435 -172 q 420 -233 435 -219 q 382 -247 406 -247 z "},"Ṩ":{"ha":831,"x_min":49,"x_max":807,"o":"m 417 -11 q 218 19 303 -11 q 67 110 133 49 q 49 144 49 126 q 56 165 49 157 q 74 174 64 174 q 90 165 83 174 q 239 73 163 101 q 415 44 315 44 q 625 99 553 44 q 697 250 697 153 q 663 344 697 308 q 578 401 629 381 q 439 446 528 421 q 272 502 336 475 q 164 583 208 529 q 119 725 119 638 q 161 865 119 806 q 280 958 203 925 q 460 990 357 990 q 647 957 560 990 q 797 861 735 924 q 807 838 807 851 q 799 816 807 825 q 779 807 790 807 q 751 821 765 807 q 619 906 693 876 q 461 935 546 935 q 251 879 324 935 q 179 724 179 824 q 216 617 179 658 q 308 553 253 576 q 454 506 363 531 q 615 451 556 476 q 715 378 674 426 q 757 250 757 329 q 715 112 757 171 q 597 21 674 53 q 417 -11 519 -11 m 382 -247 q 344 -233 358 -247 q 329 -196 329 -219 q 344 -158 329 -172 q 382 -144 358 -144 q 420 -158 406 -144 q 435 -196 435 -172 q 420 -233 435 -219 q 382 -247 406 -247 m 482 1117 q 445 1131 460 1117 q 431 1168 431 1144 q 446 1204 431 1190 q 482 1218 461 1218 q 519 1204 504 1218 q 533 1168 533 1190 q 519 1131 533 1144 q 482 1117 504 1117 z "},"ẞ":{"ha":939,"x_min":104,"x_max":835,"o":"m 647 510 q 787 433 739 490 q 835 286 835 376 q 796 131 835 199 q 685 27 757 64 q 522 -10 614 -10 q 383 14 449 -10 q 275 78 318 38 q 265 100 265 88 q 274 122 265 113 q 294 131 282 131 q 317 121 307 131 q 409 67 358 86 q 514 49 460 49 q 706 112 636 49 q 775 288 775 175 q 713 424 775 378 q 529 471 650 471 l 367 471 q 341 480 350 471 q 332 500 332 489 q 340 517 332 510 q 363 525 347 525 l 485 525 q 679 585 610 525 q 749 753 749 644 q 687 884 749 836 q 521 932 625 932 q 296 860 368 932 q 211 632 224 788 l 164 24 q 154 1 163 10 q 133 -8 146 -8 q 112 1 119 -8 q 106 24 104 10 l 156 650 q 260 905 169 821 q 521 989 350 989 q 731 926 653 989 q 808 753 808 863 q 766 601 808 664 q 647 510 724 538 z "},"Ə":{"ha":1011,"x_min":103,"x_max":931,"o":"m 526 990 q 741 936 650 990 q 881 778 832 882 q 931 533 931 675 q 876 245 931 368 q 719 56 822 122 q 478 -11 617 -11 q 274 42 358 -11 q 146 192 189 96 q 103 414 103 288 q 107 496 103 457 q 117 518 108 510 q 140 526 126 526 l 868 526 l 868 535 q 777 830 868 726 q 515 933 686 933 q 349 906 425 933 q 206 819 272 878 q 182 807 193 807 q 167 815 172 807 q 161 833 161 822 q 175 865 161 851 q 328 958 239 925 q 526 990 418 990 m 483 46 q 750 157 649 46 q 865 468 851 268 l 167 468 q 165 422 165 453 q 245 146 165 246 q 483 46 325 46 z "},"T":{"ha":811,"x_min":61,"x_max":849,"o":"m 382 -7 q 360 3 369 -7 q 353 25 351 13 l 424 926 l 86 926 q 68 935 75 926 q 61 954 61 943 q 67 972 61 964 q 85 979 74 979 l 822 979 q 842 971 835 979 q 849 951 849 963 q 842 935 849 943 q 825 926 835 926 l 481 926 l 410 19 q 401 1 408 8 q 382 -7 393 -7 z "},"Ŧ":{"ha":811,"x_min":61,"x_max":849,"o":"m 822 979 q 842 971 835 979 q 849 951 849 963 q 842 935 849 943 q 825 926 835 926 l 481 926 l 449 524 l 631 524 q 648 516 640 524 q 656 497 656 508 q 649 479 656 486 q 632 472 642 472 l 444 472 l 410 19 q 401 1 408 8 q 382 -7 393 -7 q 360 3 369 -7 q 353 25 351 13 l 388 472 l 206 472 q 188 480 194 472 q 181 499 181 488 q 188 516 181 508 q 204 524 194 524 l 392 524 l 424 926 l 86 926 q 68 935 75 926 q 61 954 61 943 q 67 972 61 964 q 85 979 74 979 l 822 979 z "},"Ť":{"ha":811,"x_min":61,"x_max":849,"o":"m 382 -7 q 360 3 369 -7 q 353 25 351 13 l 424 926 l 86 926 q 68 935 75 926 q 61 954 61 943 q 67 972 61 964 q 85 979 74 979 l 822 979 q 842 971 835 979 q 849 951 849 963 q 842 935 849 943 q 825 926 835 926 l 481 926 l 410 19 q 401 1 408 8 q 382 -7 393 -7 m 588 1267 q 611 1281 597 1281 q 635 1270 625 1281 q 644 1246 644 1260 q 638 1228 644 1238 l 503 1075 q 461 1053 483 1053 q 425 1075 439 1053 l 321 1222 q 313 1247 313 1235 q 321 1268 313 1260 q 342 1276 329 1276 q 374 1257 360 1276 l 465 1113 l 588 1267 z "},"Ţ":{"ha":811,"x_min":61,"x_max":849,"o":"m 822 979 q 842 971 835 979 q 849 951 849 963 q 842 935 849 943 q 825 926 835 926 l 481 926 l 410 19 q 397 -1 408 4 l 386 -62 q 426 -57 401 -57 q 495 -82 469 -57 q 521 -150 521 -107 q 481 -233 521 -203 q 369 -264 440 -264 q 269 -246 317 -264 q 250 -221 250 -237 q 259 -203 250 -211 q 282 -196 268 -196 q 294 -197 290 -196 q 335 -207 318 -204 q 374 -210 351 -210 q 440 -195 417 -210 q 463 -153 463 -181 q 411 -110 463 -110 q 369 -117 389 -110 q 344 -125 350 -125 q 326 -117 333 -125 q 319 -100 318 -110 l 344 28 l 353 28 l 424 926 l 86 926 q 68 935 75 926 q 61 954 61 943 q 67 972 61 964 q 85 979 74 979 l 822 979 z "},"Ț":{"ha":811,"x_min":61,"x_max":849,"o":"m 382 -7 q 360 3 369 -7 q 353 25 351 13 l 424 926 l 86 926 q 68 935 75 926 q 61 954 61 943 q 67 972 61 964 q 85 979 74 979 l 822 979 q 842 971 835 979 q 849 951 849 963 q 842 935 849 943 q 825 926 835 926 l 481 926 l 410 19 q 401 1 408 8 q 382 -7 393 -7 m 372 -99 q 425 -164 425 -99 q 407 -250 425 -206 q 350 -332 389 -294 q 325 -344 338 -344 q 310 -338 315 -344 q 304 -324 304 -332 q 315 -301 304 -312 q 351 -254 339 -278 q 368 -203 363 -231 q 333 -189 346 -201 q 319 -154 319 -176 q 335 -115 319 -131 q 372 -99 350 -99 z "},"Ṭ":{"ha":811,"x_min":61,"x_max":849,"o":"m 382 -7 q 360 3 369 -7 q 353 25 351 13 l 424 926 l 86 926 q 68 935 75 926 q 61 954 61 943 q 67 972 61 964 q 85 979 74 979 l 822 979 q 842 971 835 979 q 849 951 849 963 q 842 935 849 943 q 825 926 835 926 l 481 926 l 410 19 q 401 1 408 8 q 382 -7 393 -7 m 364 -247 q 326 -233 340 -247 q 311 -196 311 -219 q 326 -158 311 -172 q 364 -144 340 -144 q 402 -158 388 -144 q 417 -196 417 -172 q 402 -233 417 -219 q 364 -247 388 -247 z "},"Ṯ":{"ha":811,"x_min":61,"x_max":849,"o":"m 382 -7 q 360 3 369 -7 q 353 25 351 13 l 424 926 l 86 926 q 68 935 75 926 q 61 954 61 943 q 67 972 61 964 q 85 979 74 979 l 822 979 q 842 971 835 979 q 849 951 849 963 q 842 935 849 943 q 825 926 835 926 l 481 926 l 410 19 q 401 1 408 8 q 382 -7 393 -7 m 193 -225 q 156 -196 156 -225 q 197 -165 156 -165 l 535 -165 q 572 -196 572 -165 q 561 -217 572 -210 q 531 -225 550 -225 l 193 -225 z "},"U":{"ha":993,"x_min":126,"x_max":918,"o":"m 472 -11 q 214 76 301 -11 q 126 322 126 163 q 128 369 126 353 l 175 960 q 184 978 176 971 q 203 986 192 986 q 225 977 215 986 q 233 954 235 968 l 186 375 q 185 328 185 358 q 471 46 185 46 q 715 125 631 46 q 813 363 800 204 l 860 960 q 868 978 860 971 q 888 986 876 986 q 909 977 900 986 q 917 954 918 968 l 871 372 q 755 85 856 181 q 472 -11 654 -11 z "},"Ú":{"ha":993,"x_min":126,"x_max":917,"o":"m 472 -11 q 214 76 301 -11 q 126 322 126 163 q 128 369 126 353 l 175 960 q 184 978 176 971 q 203 986 192 986 q 225 977 215 986 q 233 954 235 968 l 186 375 q 185 328 185 358 q 471 46 185 46 q 715 125 631 46 q 813 363 800 204 l 860 960 q 868 978 860 971 q 888 986 876 986 q 909 977 900 986 q 917 954 918 968 l 871 372 q 755 85 856 181 q 472 -11 654 -11 m 582 1067 q 560 1056 571 1056 q 548 1060 553 1056 q 543 1072 543 1065 q 549 1089 543 1082 l 669 1256 q 710 1281 686 1281 q 731 1272 722 1281 q 740 1251 740 1264 q 724 1217 740 1236 l 582 1067 z "},"Ŭ":{"ha":993,"x_min":126,"x_max":917,"o":"m 472 -11 q 214 76 301 -11 q 126 322 126 163 q 128 369 126 353 l 175 960 q 184 978 176 971 q 203 986 192 986 q 225 977 215 986 q 233 954 235 968 l 186 375 q 185 328 185 358 q 471 46 185 46 q 715 125 631 46 q 813 363 800 204 l 860 960 q 868 978 860 971 q 888 986 876 986 q 909 977 900 986 q 917 954 918 968 l 871 372 q 755 85 856 181 q 472 -11 654 -11 m 556 1081 q 438 1112 489 1081 q 363 1207 388 1143 q 360 1222 360 1213 q 368 1244 360 1236 q 389 1253 376 1253 q 421 1229 411 1253 q 478 1159 444 1181 q 558 1138 511 1138 q 644 1159 607 1138 q 711 1229 681 1181 q 749 1253 725 1253 q 769 1246 761 1253 q 778 1226 778 1239 q 772 1207 778 1217 q 681 1112 738 1143 q 556 1081 624 1081 z "},"Û":{"ha":993,"x_min":126,"x_max":917,"o":"m 472 -11 q 214 76 301 -11 q 126 322 126 163 q 128 369 126 353 l 175 960 q 184 978 176 971 q 203 986 192 986 q 225 977 215 986 q 233 954 235 968 l 186 375 q 185 328 185 358 q 471 46 185 46 q 715 125 631 46 q 813 363 800 204 l 860 960 q 868 978 860 971 q 888 986 876 986 q 909 977 900 986 q 917 954 918 968 l 871 372 q 755 85 856 181 q 472 -11 654 -11 m 449 1065 q 424 1053 440 1053 q 400 1063 410 1053 q 390 1086 390 1074 q 397 1104 390 1094 l 532 1257 q 574 1279 551 1279 q 610 1257 596 1279 l 714 1110 q 722 1085 722 1097 q 714 1064 722 1072 q 694 1056 706 1056 q 661 1076 675 1056 l 569 1219 l 449 1065 z "},"Ȕ":{"ha":993,"x_min":126,"x_max":917,"o":"m 472 -11 q 214 76 301 -11 q 126 322 126 163 q 128 369 126 353 l 175 960 q 184 978 176 971 q 203 986 192 986 q 225 977 215 986 q 233 954 235 968 l 186 375 q 185 328 185 358 q 471 46 185 46 q 715 125 631 46 q 813 363 800 204 l 860 960 q 868 978 860 971 q 888 986 876 986 q 909 977 900 986 q 917 954 918 968 l 871 372 q 755 85 856 181 q 472 -11 654 -11 m 365 1222 q 360 1242 360 1232 q 370 1267 360 1256 q 394 1278 381 1278 q 428 1247 418 1278 l 492 1081 q 493 1074 493 1078 q 488 1060 493 1065 q 476 1056 483 1056 q 461 1064 468 1056 l 365 1222 m 517 1222 q 511 1242 511 1232 q 522 1267 511 1256 q 546 1278 532 1278 q 581 1247 569 1278 l 644 1081 l 646 1075 q 640 1061 646 1067 q 628 1056 635 1056 q 614 1064 619 1056 l 517 1222 z "},"Ü":{"ha":993,"x_min":126,"x_max":917,"o":"m 472 -11 q 214 76 301 -11 q 126 322 126 163 q 128 369 126 353 l 175 960 q 184 978 176 971 q 203 986 192 986 q 225 977 215 986 q 233 954 235 968 l 186 375 q 185 328 185 358 q 471 46 185 46 q 715 125 631 46 q 813 363 800 204 l 860 960 q 868 978 860 971 q 888 986 876 986 q 909 977 900 986 q 917 954 918 968 l 871 372 q 755 85 856 181 q 472 -11 654 -11 m 453 1119 q 417 1133 432 1119 q 403 1168 403 1147 q 417 1203 403 1189 q 453 1217 432 1217 q 487 1203 472 1217 q 501 1168 501 1189 q 488 1133 501 1147 q 453 1119 474 1119 m 675 1119 q 640 1133 654 1119 q 626 1168 626 1147 q 641 1203 626 1189 q 675 1217 656 1217 q 710 1203 696 1217 q 725 1168 725 1189 q 710 1133 725 1147 q 675 1119 696 1119 z "},"Ụ":{"ha":993,"x_min":126,"x_max":917,"o":"m 472 -11 q 214 76 301 -11 q 126 322 126 163 q 128 369 126 353 l 175 960 q 184 978 176 971 q 203 986 192 986 q 225 977 215 986 q 233 954 235 968 l 186 375 q 185 328 185 358 q 471 46 185 46 q 715 125 631 46 q 813 363 800 204 l 860 960 q 868 978 860 971 q 888 986 876 986 q 909 977 900 986 q 917 954 918 968 l 871 372 q 755 85 856 181 q 472 -11 654 -11 m 456 -247 q 417 -233 432 -247 q 403 -196 403 -219 q 417 -158 403 -172 q 456 -144 432 -144 q 494 -158 479 -144 q 508 -196 508 -172 q 494 -233 508 -219 q 456 -247 479 -247 z "},"Ù":{"ha":993,"x_min":126,"x_max":917,"o":"m 472 -11 q 214 76 301 -11 q 126 322 126 163 q 128 369 126 353 l 175 960 q 184 978 176 971 q 203 986 192 986 q 225 977 215 986 q 233 954 235 968 l 186 375 q 185 328 185 358 q 471 46 185 46 q 715 125 631 46 q 813 363 800 204 l 860 960 q 868 978 860 971 q 888 986 876 986 q 909 977 900 986 q 917 954 918 968 l 871 372 q 755 85 856 181 q 472 -11 654 -11 m 407 1225 q 397 1253 397 1239 q 406 1274 397 1265 q 428 1282 415 1282 q 464 1257 450 1282 l 564 1088 q 568 1074 568 1082 q 563 1060 568 1065 q 549 1056 557 1056 q 528 1067 535 1056 l 407 1225 z "},"Ủ":{"ha":993,"x_min":126,"x_max":917,"o":"m 472 -11 q 214 76 301 -11 q 126 322 126 163 q 128 369 126 353 l 175 960 q 184 978 176 971 q 203 986 192 986 q 225 977 215 986 q 233 954 235 968 l 186 375 q 185 328 185 358 q 471 46 185 46 q 715 125 631 46 q 813 363 800 204 l 860 960 q 868 978 860 971 q 888 986 876 986 q 909 977 900 986 q 917 954 918 968 l 871 372 q 755 85 856 181 q 472 -11 654 -11 m 588 1078 q 578 1061 586 1067 q 558 1056 569 1056 q 538 1064 547 1056 q 531 1088 529 1072 q 548 1124 532 1110 q 590 1151 564 1138 q 622 1172 613 1165 q 631 1192 631 1179 q 572 1218 631 1218 q 499 1207 532 1218 q 486 1206 494 1206 q 467 1213 474 1206 q 460 1229 460 1219 q 466 1247 460 1239 q 485 1260 472 1256 q 575 1276 526 1276 q 665 1255 632 1276 q 697 1196 697 1233 q 681 1149 697 1164 q 632 1117 664 1133 q 600 1098 611 1106 q 588 1078 589 1090 z "},"Ư":{"ha":993,"x_min":126,"x_max":1097,"o":"m 1097 1136 q 1050 996 1097 1050 q 914 929 1003 942 l 871 372 q 755 85 856 181 q 472 -11 654 -11 q 214 76 301 -11 q 126 322 126 163 q 128 369 126 353 l 175 960 q 184 978 176 971 q 203 986 192 986 q 225 977 215 986 q 233 954 235 968 l 186 378 q 185 331 185 361 q 471 46 185 46 q 813 363 790 46 l 857 954 q 866 972 858 967 q 893 978 874 978 q 997 1019 956 978 q 1042 1140 1039 1060 q 1069 1172 1042 1172 q 1097 1136 1097 1172 z "},"Ứ":{"ha":993,"x_min":126,"x_max":1097,"o":"m 1097 1136 q 1050 996 1097 1050 q 914 929 1003 942 l 871 372 q 755 85 856 181 q 472 -11 654 -11 q 214 76 301 -11 q 126 322 126 163 q 128 369 126 353 l 175 960 q 184 978 176 971 q 203 986 192 986 q 225 977 215 986 q 233 954 235 968 l 186 378 q 185 331 185 361 q 471 46 185 46 q 813 363 790 46 l 857 954 q 866 972 858 967 q 893 978 874 978 q 997 1019 956 978 q 1042 1140 1039 1060 q 1069 1172 1042 1172 q 1097 1136 1097 1172 m 582 1067 q 560 1056 571 1056 q 548 1060 553 1056 q 543 1072 543 1065 q 549 1089 543 1082 l 669 1256 q 710 1281 686 1281 q 731 1272 722 1281 q 740 1251 740 1264 q 724 1217 740 1236 l 582 1067 z "},"Ự":{"ha":993,"x_min":126,"x_max":1097,"o":"m 1097 1136 q 1050 996 1097 1050 q 914 929 1003 942 l 871 372 q 755 85 856 181 q 472 -11 654 -11 q 214 76 301 -11 q 126 322 126 163 q 128 369 126 353 l 175 960 q 184 978 176 971 q 203 986 192 986 q 225 977 215 986 q 233 954 235 968 l 186 378 q 185 331 185 361 q 471 46 185 46 q 813 363 790 46 l 857 954 q 866 972 858 967 q 893 978 874 978 q 997 1019 956 978 q 1042 1140 1039 1060 q 1069 1172 1042 1172 q 1097 1136 1097 1172 m 456 -247 q 417 -233 432 -247 q 403 -196 403 -219 q 417 -158 403 -172 q 456 -144 432 -144 q 494 -158 479 -144 q 508 -196 508 -172 q 494 -233 508 -219 q 456 -247 479 -247 z "},"Ừ":{"ha":993,"x_min":126,"x_max":1097,"o":"m 1097 1136 q 1050 996 1097 1050 q 914 929 1003 942 l 871 372 q 755 85 856 181 q 472 -11 654 -11 q 214 76 301 -11 q 126 322 126 163 q 128 369 126 353 l 175 960 q 184 978 176 971 q 203 986 192 986 q 225 977 215 986 q 233 954 235 968 l 186 378 q 185 331 185 361 q 471 46 185 46 q 813 363 790 46 l 857 954 q 866 972 858 967 q 893 978 874 978 q 997 1019 956 978 q 1042 1140 1039 1060 q 1069 1172 1042 1172 q 1097 1136 1097 1172 m 407 1225 q 397 1253 397 1239 q 406 1274 397 1265 q 428 1282 415 1282 q 464 1257 450 1282 l 564 1088 q 568 1074 568 1082 q 563 1060 568 1065 q 549 1056 557 1056 q 528 1067 535 1056 l 407 1225 z "},"Ử":{"ha":993,"x_min":126,"x_max":1097,"o":"m 1097 1136 q 1050 996 1097 1050 q 914 929 1003 942 l 871 372 q 755 85 856 181 q 472 -11 654 -11 q 214 76 301 -11 q 126 322 126 163 q 128 369 126 353 l 175 960 q 184 978 176 971 q 203 986 192 986 q 225 977 215 986 q 233 954 235 968 l 186 378 q 185 331 185 361 q 471 46 185 46 q 813 363 790 46 l 857 954 q 866 972 858 967 q 893 978 874 978 q 997 1019 956 978 q 1042 1140 1039 1060 q 1069 1172 1042 1172 q 1097 1136 1097 1172 m 588 1078 q 578 1061 586 1067 q 558 1056 569 1056 q 538 1064 547 1056 q 531 1088 529 1072 q 548 1124 532 1110 q 590 1151 564 1138 q 622 1172 613 1165 q 631 1192 631 1179 q 572 1218 631 1218 q 499 1207 532 1218 q 486 1206 494 1206 q 467 1213 474 1206 q 460 1229 460 1219 q 466 1247 460 1239 q 485 1260 472 1256 q 575 1276 526 1276 q 665 1255 632 1276 q 697 1196 697 1233 q 681 1149 697 1164 q 632 1117 664 1133 q 600 1098 611 1106 q 588 1078 589 1090 z "},"Ữ":{"ha":993,"x_min":126,"x_max":1097,"o":"m 1097 1136 q 1050 996 1097 1050 q 914 929 1003 942 l 871 372 q 755 85 856 181 q 472 -11 654 -11 q 214 76 301 -11 q 126 322 126 163 q 128 369 126 353 l 175 960 q 184 978 176 971 q 203 986 192 986 q 225 977 215 986 q 233 954 235 968 l 186 378 q 185 331 185 361 q 471 46 185 46 q 813 363 790 46 l 857 954 q 866 972 858 967 q 893 978 874 978 q 997 1019 956 978 q 1042 1140 1039 1060 q 1069 1172 1042 1172 q 1097 1136 1097 1172 m 653 1107 q 547 1143 614 1107 q 505 1163 526 1154 q 468 1171 483 1171 q 426 1160 442 1171 q 396 1128 411 1149 q 372 1108 382 1108 q 357 1116 363 1108 q 351 1133 351 1124 q 368 1177 351 1154 q 413 1215 385 1200 q 475 1231 440 1231 q 581 1194 514 1231 q 623 1175 601 1183 q 660 1167 644 1167 q 702 1178 686 1167 q 731 1208 718 1189 q 754 1228 746 1228 q 770 1221 764 1228 q 776 1203 776 1214 q 760 1160 776 1183 q 715 1122 743 1138 q 653 1107 688 1107 z "},"Ű":{"ha":993,"x_min":126,"x_max":917,"o":"m 472 -11 q 214 76 301 -11 q 126 322 126 163 q 128 369 126 353 l 175 960 q 184 978 176 971 q 203 986 192 986 q 225 977 215 986 q 233 954 235 968 l 186 375 q 185 328 185 358 q 471 46 185 46 q 715 125 631 46 q 813 363 800 204 l 860 960 q 868 978 860 971 q 888 986 876 986 q 909 977 900 986 q 917 954 918 968 l 871 372 q 755 85 856 181 q 472 -11 654 -11 m 496 1064 q 481 1056 490 1056 q 468 1063 472 1056 q 469 1081 464 1071 l 557 1247 q 597 1278 574 1278 q 617 1269 608 1278 q 626 1249 626 1261 q 615 1222 626 1238 l 496 1064 m 649 1064 q 633 1056 643 1056 q 621 1063 625 1056 q 622 1081 617 1071 l 710 1247 q 750 1278 725 1278 q 770 1269 761 1278 q 779 1249 779 1261 q 768 1222 779 1238 l 649 1064 z "},"Ȗ":{"ha":993,"x_min":126,"x_max":917,"o":"m 472 -11 q 214 76 301 -11 q 126 322 126 163 q 128 369 126 353 l 175 960 q 184 978 176 971 q 203 986 192 986 q 225 977 215 986 q 233 954 235 968 l 186 375 q 185 328 185 358 q 471 46 185 46 q 715 125 631 46 q 813 363 800 204 l 860 960 q 868 978 860 971 q 888 986 876 986 q 909 977 900 986 q 917 954 918 968 l 871 372 q 755 85 856 181 q 472 -11 654 -11 m 571 1253 q 689 1222 638 1253 q 764 1126 740 1190 q 767 1110 767 1121 q 759 1089 767 1097 q 739 1081 751 1081 q 706 1106 717 1081 q 649 1174 682 1153 q 568 1196 615 1196 q 484 1174 521 1196 q 415 1106 447 1153 q 376 1081 401 1081 q 356 1088 364 1081 q 349 1107 349 1094 q 354 1126 349 1117 q 446 1222 389 1190 q 571 1253 503 1253 z "},"Ū":{"ha":993,"x_min":126,"x_max":917,"o":"m 472 -11 q 214 76 301 -11 q 126 322 126 163 q 128 369 126 353 l 175 960 q 184 978 176 971 q 203 986 192 986 q 225 977 215 986 q 233 954 235 968 l 186 375 q 185 328 185 358 q 471 46 185 46 q 715 125 631 46 q 813 363 800 204 l 860 960 q 868 978 860 971 q 888 986 876 986 q 909 977 900 986 q 917 954 918 968 l 871 372 q 755 85 856 181 q 472 -11 654 -11 m 393 1139 q 356 1168 356 1139 q 367 1190 356 1182 q 397 1197 378 1197 l 735 1197 q 772 1168 772 1197 q 761 1147 772 1154 q 731 1139 750 1139 l 393 1139 z "},"Ṻ":{"ha":993,"x_min":126,"x_max":917,"o":"m 472 -11 q 214 76 301 -11 q 126 322 126 163 q 128 369 126 353 l 175 960 q 184 978 176 971 q 203 986 192 986 q 225 977 215 986 q 233 954 235 968 l 186 375 q 185 328 185 358 q 471 46 185 46 q 715 125 631 46 q 813 363 800 204 l 860 960 q 868 978 860 971 q 888 986 876 986 q 909 977 900 986 q 917 954 918 968 l 871 372 q 755 85 856 181 q 472 -11 654 -11 m 393 1139 q 356 1168 356 1139 q 367 1190 356 1182 q 397 1197 378 1197 l 735 1197 q 772 1168 772 1197 q 761 1147 772 1154 q 731 1139 750 1139 l 393 1139 m 471 1342 q 435 1356 450 1342 q 421 1390 421 1369 q 435 1425 421 1411 q 471 1439 450 1439 q 505 1425 490 1439 q 519 1390 519 1411 q 506 1356 519 1369 q 471 1342 492 1342 m 693 1342 q 658 1356 672 1342 q 644 1390 644 1369 q 659 1425 644 1411 q 693 1439 674 1439 q 728 1425 714 1439 q 743 1390 743 1411 q 728 1356 743 1369 q 693 1342 714 1342 z "},"Ų":{"ha":993,"x_min":126,"x_max":918,"o":"m 888 986 q 909 977 900 986 q 917 954 918 968 l 871 372 q 794 132 858 224 q 618 8 731 40 q 517 -42 550 -11 q 485 -122 485 -74 q 508 -188 485 -165 q 572 -211 531 -211 q 604 -206 585 -211 q 640 -192 624 -200 q 660 -186 650 -186 q 675 -192 669 -186 q 681 -207 681 -199 q 674 -226 681 -217 q 658 -242 668 -236 q 567 -264 619 -264 q 461 -228 500 -264 q 422 -132 422 -192 q 483 -11 422 -53 l 468 -11 q 213 76 300 -11 q 126 322 126 163 q 128 369 126 353 l 175 960 q 184 978 176 971 q 203 986 192 986 q 225 977 215 986 q 233 954 235 968 l 186 375 q 185 328 185 358 q 471 46 185 46 q 715 125 631 46 q 813 363 800 204 l 860 960 q 868 978 860 971 q 888 986 876 986 z "},"Ů":{"ha":993,"x_min":126,"x_max":917,"o":"m 472 -11 q 214 76 301 -11 q 126 322 126 163 q 128 369 126 353 l 175 960 q 184 978 176 971 q 203 986 192 986 q 225 977 215 986 q 233 954 235 968 l 186 375 q 185 328 185 358 q 471 46 185 46 q 715 125 631 46 q 813 363 800 204 l 860 960 q 868 978 860 971 q 888 986 876 986 q 909 977 900 986 q 917 954 918 968 l 871 372 q 755 85 856 181 q 472 -11 654 -11 m 564 1056 q 469 1094 508 1056 q 429 1188 429 1132 q 469 1280 429 1242 q 564 1318 508 1318 q 658 1281 619 1318 q 697 1188 697 1243 q 658 1094 697 1132 q 564 1056 619 1056 m 564 1114 q 615 1135 594 1114 q 635 1188 635 1156 q 615 1239 635 1218 q 564 1260 594 1260 q 513 1239 533 1260 q 493 1188 493 1218 q 513 1135 493 1156 q 564 1114 533 1114 z "},"Ũ":{"ha":993,"x_min":126,"x_max":917,"o":"m 472 -11 q 214 76 301 -11 q 126 322 126 163 q 128 369 126 353 l 175 960 q 184 978 176 971 q 203 986 192 986 q 225 977 215 986 q 233 954 235 968 l 186 375 q 185 328 185 358 q 471 46 185 46 q 715 125 631 46 q 813 363 800 204 l 860 960 q 868 978 860 971 q 888 986 876 986 q 909 977 900 986 q 917 954 918 968 l 871 372 q 755 85 856 181 q 472 -11 654 -11 m 653 1107 q 547 1143 614 1107 q 505 1163 526 1154 q 468 1171 483 1171 q 426 1160 442 1171 q 396 1128 411 1149 q 372 1108 382 1108 q 357 1116 363 1108 q 351 1133 351 1124 q 368 1177 351 1154 q 413 1215 385 1200 q 475 1231 440 1231 q 581 1194 514 1231 q 623 1175 601 1183 q 660 1167 644 1167 q 702 1178 686 1167 q 731 1208 718 1189 q 754 1228 746 1228 q 770 1221 764 1228 q 776 1203 776 1214 q 760 1160 776 1183 q 715 1122 743 1138 q 653 1107 688 1107 z "},"Ṹ":{"ha":993,"x_min":126,"x_max":917,"o":"m 472 -11 q 214 76 301 -11 q 126 322 126 163 q 128 369 126 353 l 175 960 q 184 978 176 971 q 203 986 192 986 q 225 977 215 986 q 233 954 235 968 l 186 375 q 185 328 185 358 q 471 46 185 46 q 715 125 631 46 q 813 363 800 204 l 860 960 q 868 978 860 971 q 888 986 876 986 q 909 977 900 986 q 917 954 918 968 l 871 372 q 755 85 856 181 q 472 -11 654 -11 m 653 1107 q 547 1143 614 1107 q 505 1163 526 1154 q 468 1171 483 1171 q 426 1160 442 1171 q 396 1128 411 1149 q 372 1108 382 1108 q 357 1116 363 1108 q 351 1133 351 1124 q 368 1177 351 1154 q 413 1215 385 1200 q 475 1231 440 1231 q 581 1194 514 1231 q 623 1175 601 1183 q 660 1167 644 1167 q 702 1178 686 1167 q 731 1208 718 1189 q 754 1228 746 1228 q 770 1221 764 1228 q 776 1203 776 1214 q 760 1160 776 1183 q 715 1122 743 1138 q 653 1107 688 1107 m 600 1289 q 578 1278 589 1278 q 566 1283 571 1278 q 561 1294 561 1288 q 567 1311 561 1304 l 688 1478 q 728 1503 704 1503 q 749 1494 740 1503 q 758 1474 758 1486 q 742 1439 758 1458 l 600 1289 z "},"V":{"ha":931,"x_min":74,"x_max":950,"o":"m 899 971 q 924 985 904 985 q 942 978 935 985 q 950 963 950 972 q 946 946 950 954 l 475 17 q 442 -7 465 -7 q 418 1 429 -7 q 401 22 407 8 l 76 949 q 74 961 74 957 q 81 980 74 974 q 100 986 89 986 q 131 965 124 986 l 443 72 l 899 971 z "},"W":{"ha":1518,"x_min":113,"x_max":1499,"o":"m 1449 971 q 1472 986 1454 986 q 1491 980 1483 986 q 1499 963 1499 974 q 1496 949 1499 957 l 1100 17 q 1068 -7 1089 -7 q 1048 1 1057 -7 q 1035 22 1039 8 l 801 885 l 431 17 q 397 -6 421 -6 q 377 1 386 -6 q 365 22 368 8 l 114 951 l 113 958 q 121 978 113 971 q 140 986 129 986 q 169 963 164 986 l 403 83 l 775 958 q 807 985 786 985 q 826 978 818 985 q 838 958 835 971 l 1072 85 l 1449 971 z "},"Ẃ":{"ha":1518,"x_min":113,"x_max":1499,"o":"m 1449 971 q 1472 986 1454 986 q 1491 980 1483 986 q 1499 963 1499 974 q 1496 949 1499 957 l 1100 17 q 1068 -7 1089 -7 q 1048 1 1057 -7 q 1035 22 1039 8 l 801 885 l 431 17 q 397 -6 421 -6 q 377 1 386 -6 q 365 22 368 8 l 114 951 l 113 958 q 121 978 113 971 q 140 986 129 986 q 169 963 164 986 l 403 83 l 775 958 q 807 985 786 985 q 826 978 818 985 q 838 958 835 971 l 1072 85 l 1449 971 m 843 1067 q 821 1056 832 1056 q 809 1060 814 1056 q 804 1072 804 1065 q 810 1089 804 1082 l 931 1256 q 971 1281 947 1281 q 992 1272 983 1281 q 1001 1251 1001 1264 q 985 1217 1001 1236 l 843 1067 z "},"Ŵ":{"ha":1518,"x_min":113,"x_max":1499,"o":"m 1449 971 q 1472 986 1454 986 q 1491 980 1483 986 q 1499 963 1499 974 q 1496 949 1499 957 l 1100 17 q 1068 -7 1089 -7 q 1048 1 1057 -7 q 1035 22 1039 8 l 801 885 l 431 17 q 397 -6 421 -6 q 377 1 386 -6 q 365 22 368 8 l 114 951 l 113 958 q 121 978 113 971 q 140 986 129 986 q 169 963 164 986 l 403 83 l 775 958 q 807 985 786 985 q 826 978 818 985 q 838 958 835 971 l 1072 85 l 1449 971 m 710 1065 q 685 1053 701 1053 q 661 1063 671 1053 q 651 1086 651 1074 q 658 1104 651 1094 l 793 1257 q 835 1279 813 1279 q 871 1257 857 1279 l 975 1110 q 983 1085 983 1097 q 975 1064 983 1072 q 956 1056 967 1056 q 922 1076 936 1056 l 831 1219 l 710 1065 z "},"Ẅ":{"ha":1518,"x_min":113,"x_max":1499,"o":"m 1449 971 q 1472 986 1454 986 q 1491 980 1483 986 q 1499 963 1499 974 q 1496 949 1499 957 l 1100 17 q 1068 -7 1089 -7 q 1048 1 1057 -7 q 1035 22 1039 8 l 801 885 l 431 17 q 397 -6 421 -6 q 377 1 386 -6 q 365 22 368 8 l 114 951 l 113 958 q 121 978 113 971 q 140 986 129 986 q 169 963 164 986 l 403 83 l 775 958 q 807 985 786 985 q 826 978 818 985 q 838 958 835 971 l 1072 85 l 1449 971 m 714 1119 q 678 1133 693 1119 q 664 1168 664 1147 q 678 1203 664 1189 q 714 1217 693 1217 q 748 1203 733 1217 q 763 1168 763 1189 q 749 1133 763 1147 q 714 1119 735 1119 m 936 1119 q 901 1133 915 1119 q 888 1168 888 1147 q 902 1203 888 1189 q 936 1217 917 1217 q 972 1203 957 1217 q 986 1168 986 1189 q 972 1133 986 1147 q 936 1119 957 1119 z "},"Ẁ":{"ha":1518,"x_min":113,"x_max":1499,"o":"m 1449 971 q 1472 986 1454 986 q 1491 980 1483 986 q 1499 963 1499 974 q 1496 949 1499 957 l 1100 17 q 1068 -7 1089 -7 q 1048 1 1057 -7 q 1035 22 1039 8 l 801 885 l 431 17 q 397 -6 421 -6 q 377 1 386 -6 q 365 22 368 8 l 114 951 l 113 958 q 121 978 113 971 q 140 986 129 986 q 169 963 164 986 l 403 83 l 775 958 q 807 985 786 985 q 826 978 818 985 q 838 958 835 971 l 1072 85 l 1449 971 m 668 1225 q 658 1253 658 1239 q 667 1274 658 1265 q 689 1282 676 1282 q 725 1257 711 1282 l 825 1088 q 829 1074 829 1082 q 824 1060 829 1065 q 810 1056 818 1056 q 789 1067 796 1056 l 668 1225 z "},"X":{"ha":875,"x_min":18,"x_max":858,"o":"m 806 975 q 829 986 815 986 q 849 978 840 986 q 858 960 858 971 q 850 940 858 951 l 483 503 l 800 39 q 807 19 807 28 q 799 0 807 7 q 778 -7 790 -7 q 749 10 760 -7 l 449 456 l 69 4 q 46 -7 60 -7 q 26 1 35 -7 q 18 18 18 8 q 28 42 18 31 l 418 504 l 119 940 q 113 958 113 951 q 122 978 113 971 q 143 985 131 985 q 168 972 160 985 l 454 549 l 806 975 z "},"Y":{"ha":807,"x_min":64,"x_max":838,"o":"m 779 965 q 815 986 796 986 q 831 981 825 986 q 838 965 838 975 q 829 944 838 956 l 443 476 l 407 19 q 398 1 406 8 q 379 -7 390 -7 q 358 3 367 -7 q 350 25 349 13 l 385 474 l 72 942 q 64 964 64 954 q 72 981 64 975 q 89 986 79 986 q 117 971 110 986 l 417 525 l 779 965 z "},"Ý":{"ha":807,"x_min":64,"x_max":838,"o":"m 779 965 q 815 986 796 986 q 831 981 825 986 q 838 965 838 975 q 829 944 838 956 l 443 476 l 407 19 q 398 1 406 8 q 379 -7 390 -7 q 358 3 367 -7 q 350 25 349 13 l 385 474 l 72 942 q 64 964 64 954 q 72 981 64 975 q 89 986 79 986 q 117 971 110 986 l 417 525 l 779 965 m 488 1067 q 465 1056 476 1056 q 453 1060 458 1056 q 449 1072 449 1065 q 454 1089 449 1082 l 575 1256 q 615 1281 592 1281 q 637 1272 628 1281 q 646 1251 646 1264 q 629 1217 646 1236 l 488 1067 z "},"Ŷ":{"ha":807,"x_min":64,"x_max":838,"o":"m 779 965 q 815 986 796 986 q 831 981 825 986 q 838 965 838 975 q 829 944 838 956 l 443 476 l 407 19 q 398 1 406 8 q 379 -7 390 -7 q 358 3 367 -7 q 350 25 349 13 l 385 474 l 72 942 q 64 964 64 954 q 72 981 64 975 q 89 986 79 986 q 117 971 110 986 l 417 525 l 779 965 m 354 1065 q 329 1053 346 1053 q 306 1063 315 1053 q 296 1086 296 1074 q 303 1104 296 1094 l 438 1257 q 479 1279 457 1279 q 515 1257 501 1279 l 619 1110 q 628 1085 628 1097 q 619 1064 628 1072 q 600 1056 611 1056 q 567 1076 581 1056 l 475 1219 l 354 1065 z "},"Ÿ":{"ha":807,"x_min":64,"x_max":838,"o":"m 779 965 q 815 986 796 986 q 831 981 825 986 q 838 965 838 975 q 829 944 838 956 l 443 476 l 407 19 q 398 1 406 8 q 379 -7 390 -7 q 358 3 367 -7 q 350 25 349 13 l 385 474 l 72 942 q 64 964 64 954 q 72 981 64 975 q 89 986 79 986 q 117 971 110 986 l 417 525 l 779 965 m 358 1119 q 323 1133 338 1119 q 308 1168 308 1147 q 323 1203 308 1189 q 358 1217 338 1217 q 392 1203 378 1217 q 407 1168 407 1189 q 393 1133 407 1147 q 358 1119 379 1119 m 581 1119 q 546 1133 560 1119 q 532 1168 532 1147 q 547 1203 532 1189 q 581 1217 561 1217 q 616 1203 601 1217 q 631 1168 631 1189 q 616 1133 631 1147 q 581 1119 601 1119 z "},"Ẏ":{"ha":807,"x_min":64,"x_max":838,"o":"m 779 965 q 815 986 796 986 q 831 981 825 986 q 838 965 838 975 q 829 944 838 956 l 443 476 l 407 19 q 398 1 406 8 q 379 -7 390 -7 q 358 3 367 -7 q 350 25 349 13 l 385 474 l 72 942 q 64 964 64 954 q 72 981 64 975 q 89 986 79 986 q 117 971 110 986 l 417 525 l 779 965 m 469 1117 q 433 1131 447 1117 q 418 1168 418 1144 q 433 1204 418 1190 q 469 1218 449 1218 q 506 1204 492 1218 q 521 1168 521 1190 q 506 1131 521 1144 q 469 1117 492 1117 z "},"Ỵ":{"ha":807,"x_min":64,"x_max":838,"o":"m 779 965 q 815 986 796 986 q 831 981 825 986 q 838 965 838 975 q 829 944 838 956 l 443 476 l 407 19 q 398 1 406 8 q 379 -7 390 -7 q 358 3 367 -7 q 350 25 349 13 l 385 474 l 72 942 q 64 964 64 954 q 72 981 64 975 q 89 986 79 986 q 117 971 110 986 l 417 525 l 779 965 m 361 -247 q 323 -233 338 -247 q 308 -196 308 -219 q 323 -158 308 -172 q 361 -144 338 -144 q 399 -158 385 -144 q 414 -196 414 -172 q 399 -233 414 -219 q 361 -247 385 -247 z "},"Ỳ":{"ha":807,"x_min":64,"x_max":838,"o":"m 779 965 q 815 986 796 986 q 831 981 825 986 q 838 965 838 975 q 829 944 838 956 l 443 476 l 407 19 q 398 1 406 8 q 379 -7 390 -7 q 358 3 367 -7 q 350 25 349 13 l 385 474 l 72 942 q 64 964 64 954 q 72 981 64 975 q 89 986 79 986 q 117 971 110 986 l 417 525 l 779 965 m 313 1225 q 303 1253 303 1239 q 312 1274 303 1265 q 333 1282 321 1282 q 369 1257 356 1282 l 469 1088 q 474 1074 474 1082 q 468 1060 474 1065 q 454 1056 463 1056 q 433 1067 440 1056 l 313 1225 z "},"Ỷ":{"ha":807,"x_min":64,"x_max":838,"o":"m 779 965 q 815 986 796 986 q 831 981 825 986 q 838 965 838 975 q 829 944 838 956 l 443 476 l 407 19 q 398 1 406 8 q 379 -7 390 -7 q 358 3 367 -7 q 350 25 349 13 l 385 474 l 72 942 q 64 964 64 954 q 72 981 64 975 q 89 986 79 986 q 117 971 110 986 l 417 525 l 779 965 m 493 1078 q 483 1061 492 1067 q 464 1056 475 1056 q 444 1064 453 1056 q 436 1088 435 1072 q 453 1124 438 1110 q 496 1151 469 1138 q 527 1172 518 1165 q 536 1192 536 1179 q 478 1218 536 1218 q 404 1207 438 1218 q 392 1206 400 1206 q 372 1213 379 1206 q 365 1229 365 1219 q 372 1247 365 1239 q 390 1260 378 1256 q 481 1276 432 1276 q 570 1255 538 1276 q 603 1196 603 1233 q 586 1149 603 1164 q 538 1117 569 1133 q 506 1098 517 1106 q 493 1078 494 1090 z "},"Ȳ":{"ha":807,"x_min":64,"x_max":838,"o":"m 779 965 q 815 986 796 986 q 831 981 825 986 q 838 965 838 975 q 829 944 838 956 l 443 476 l 407 19 q 398 1 406 8 q 379 -7 390 -7 q 358 3 367 -7 q 350 25 349 13 l 385 474 l 72 942 q 64 964 64 954 q 72 981 64 975 q 89 986 79 986 q 117 971 110 986 l 417 525 l 779 965 m 299 1139 q 261 1168 261 1139 q 272 1190 261 1182 q 303 1197 283 1197 l 640 1197 q 678 1168 678 1197 q 667 1147 678 1154 q 636 1139 656 1139 l 299 1139 z "},"Ỹ":{"ha":807,"x_min":64,"x_max":838,"o":"m 779 965 q 815 986 796 986 q 831 981 825 986 q 838 965 838 975 q 829 944 838 956 l 443 476 l 407 19 q 398 1 406 8 q 379 -7 390 -7 q 358 3 367 -7 q 350 25 349 13 l 385 474 l 72 942 q 64 964 64 954 q 72 981 64 975 q 89 986 79 986 q 117 971 110 986 l 417 525 l 779 965 m 558 1107 q 453 1143 519 1107 q 410 1163 432 1154 q 374 1171 389 1171 q 332 1160 347 1171 q 301 1128 317 1149 q 278 1108 288 1108 q 263 1116 268 1108 q 257 1133 257 1124 q 274 1177 257 1154 q 318 1215 290 1200 q 381 1231 346 1231 q 486 1194 419 1231 q 528 1175 507 1183 q 565 1167 550 1167 q 608 1178 592 1167 q 636 1208 624 1189 q 660 1228 651 1228 q 676 1221 669 1228 q 682 1203 682 1214 q 665 1160 682 1183 q 621 1122 649 1138 q 558 1107 593 1107 z "},"Z":{"ha":804,"x_min":32,"x_max":789,"o":"m 767 979 q 783 972 776 979 q 789 953 789 964 q 783 935 789 942 l 111 54 l 707 54 q 726 46 718 54 q 733 26 733 38 q 726 8 733 17 q 708 0 719 0 l 71 0 l 68 -3 l 68 0 l 57 0 q 40 8 47 0 q 32 28 32 17 q 38 44 32 38 l 711 925 l 128 925 q 110 933 117 925 q 103 953 103 942 q 109 971 103 963 q 126 979 115 979 l 751 979 l 754 982 l 754 979 l 767 979 z "},"Ź":{"ha":804,"x_min":32,"x_max":789,"o":"m 767 979 q 783 972 776 979 q 789 953 789 964 q 783 935 789 942 l 111 54 l 707 54 q 726 46 718 54 q 733 26 733 38 q 726 8 733 17 q 708 0 719 0 l 71 0 l 68 -3 l 68 0 l 57 0 q 40 8 47 0 q 32 28 32 17 q 38 44 32 38 l 711 925 l 128 925 q 110 933 117 925 q 103 953 103 942 q 109 971 103 963 q 126 979 115 979 l 751 979 l 754 982 l 754 979 l 767 979 m 485 1067 q 463 1056 474 1056 q 451 1060 456 1056 q 446 1072 446 1065 q 451 1089 446 1082 l 572 1256 q 613 1281 589 1281 q 634 1272 625 1281 q 643 1251 643 1264 q 626 1217 643 1236 l 485 1067 z "},"Ž":{"ha":804,"x_min":32,"x_max":789,"o":"m 767 979 q 783 972 776 979 q 789 953 789 964 q 783 935 789 942 l 111 54 l 707 54 q 726 46 718 54 q 733 26 733 38 q 726 8 733 17 q 708 0 719 0 l 71 0 l 68 -3 l 68 0 l 57 0 q 40 8 47 0 q 32 28 32 17 q 38 44 32 38 l 711 925 l 128 925 q 110 933 117 925 q 103 953 103 942 q 109 971 103 963 q 126 979 115 979 l 751 979 l 754 982 l 754 979 l 767 979 m 582 1267 q 606 1281 592 1281 q 629 1270 619 1281 q 639 1246 639 1260 q 632 1228 639 1238 l 497 1075 q 456 1053 478 1053 q 419 1075 433 1053 l 315 1222 q 307 1247 307 1235 q 315 1268 307 1260 q 336 1276 324 1276 q 368 1257 354 1276 l 460 1113 l 582 1267 z "},"Ż":{"ha":804,"x_min":32,"x_max":789,"o":"m 767 979 q 783 972 776 979 q 789 953 789 964 q 783 935 789 942 l 111 54 l 707 54 q 726 46 718 54 q 733 26 733 38 q 726 8 733 17 q 708 0 719 0 l 71 0 l 68 -3 l 68 0 l 57 0 q 40 8 47 0 q 32 28 32 17 q 38 44 32 38 l 711 925 l 128 925 q 110 933 117 925 q 103 953 103 942 q 109 971 103 963 q 126 979 115 979 l 751 979 l 754 982 l 754 979 l 767 979 m 467 1117 q 430 1131 444 1117 q 415 1168 415 1144 q 431 1204 415 1190 q 467 1218 446 1218 q 503 1204 489 1218 q 518 1168 518 1190 q 503 1131 518 1144 q 467 1117 489 1117 z "},"Ẓ":{"ha":804,"x_min":32,"x_max":789,"o":"m 767 979 q 783 972 776 979 q 789 953 789 964 q 783 935 789 942 l 111 54 l 707 54 q 726 46 718 54 q 733 26 733 38 q 726 8 733 17 q 708 0 719 0 l 71 0 l 68 -3 l 68 0 l 57 0 q 40 8 47 0 q 32 28 32 17 q 38 44 32 38 l 711 925 l 128 925 q 110 933 117 925 q 103 953 103 942 q 109 971 103 963 q 126 979 115 979 l 751 979 l 754 982 l 754 979 l 767 979 m 371 -247 q 333 -233 347 -247 q 318 -196 318 -219 q 333 -158 318 -172 q 371 -144 347 -144 q 409 -158 394 -144 q 424 -196 424 -172 q 409 -233 424 -219 q 371 -247 394 -247 z "},"a":{"ha":724,"x_min":85,"x_max":619,"o":"m 400 689 q 619 474 619 689 q 618 442 619 453 l 585 21 q 576 0 583 7 q 557 -7 568 -7 q 534 2 543 -7 q 526 26 525 11 l 532 119 q 444 24 500 57 q 314 -10 388 -10 q 149 44 213 -10 q 85 182 85 97 q 126 301 85 257 q 258 365 167 344 q 504 385 350 385 l 553 385 l 557 439 q 558 474 558 451 q 520 594 558 556 q 401 632 482 632 q 163 551 283 632 q 149 547 157 547 q 133 557 139 547 q 126 578 126 567 q 140 607 126 594 q 262 667 190 644 q 400 689 333 689 m 317 49 q 474 113 410 49 q 544 276 538 176 l 549 331 l 508 331 q 292 317 369 331 q 183 273 215 304 q 150 185 150 242 q 195 85 150 122 q 317 49 240 49 z "},"á":{"ha":724,"x_min":85,"x_max":685,"o":"m 400 689 q 619 474 619 689 q 618 442 619 453 l 585 21 q 576 0 583 7 q 557 -7 568 -7 q 534 2 543 -7 q 526 26 525 11 l 532 119 q 444 24 500 57 q 314 -10 388 -10 q 149 44 213 -10 q 85 182 85 97 q 126 301 85 257 q 258 365 167 344 q 504 385 350 385 l 553 385 l 557 439 q 558 474 558 451 q 520 594 558 556 q 401 632 482 632 q 163 551 283 632 q 149 547 157 547 q 133 557 139 547 q 126 578 126 567 q 140 607 126 594 q 262 667 190 644 q 400 689 333 689 m 317 49 q 474 113 410 49 q 544 276 538 176 l 549 331 l 508 331 q 292 317 369 331 q 183 273 215 304 q 150 185 150 242 q 195 85 150 122 q 317 49 240 49 m 426 760 q 414 756 419 756 q 401 762 407 756 q 394 776 394 768 q 401 792 394 786 l 615 1035 q 647 1050 629 1050 q 674 1040 663 1050 q 685 1014 685 1029 q 669 983 685 997 l 426 760 z "},"ă":{"ha":724,"x_min":85,"x_max":629,"o":"m 400 689 q 619 474 619 689 q 618 442 619 453 l 585 21 q 576 0 583 7 q 557 -7 568 -7 q 534 2 543 -7 q 526 26 525 11 l 532 119 q 444 24 500 57 q 314 -10 388 -10 q 149 44 213 -10 q 85 182 85 97 q 126 301 85 257 q 258 365 167 344 q 504 385 350 385 l 553 385 l 557 439 q 558 474 558 451 q 520 594 558 556 q 401 632 482 632 q 163 551 283 632 q 149 547 157 547 q 133 557 139 547 q 126 578 126 567 q 140 607 126 594 q 262 667 190 644 q 400 689 333 689 m 317 49 q 474 113 410 49 q 544 276 538 176 l 549 331 l 508 331 q 292 317 369 331 q 183 273 215 304 q 150 185 150 242 q 195 85 150 122 q 317 49 240 49 m 413 811 q 298 844 347 811 q 224 943 249 876 q 221 961 221 950 q 230 984 221 975 q 251 993 239 993 q 283 967 274 993 q 418 867 319 867 q 568 967 515 867 q 604 993 582 993 q 622 985 615 993 q 629 965 629 978 q 624 943 629 954 q 537 844 593 878 q 413 811 481 811 z "},"ắ":{"ha":724,"x_min":85,"x_max":632,"o":"m 400 689 q 619 474 619 689 q 618 442 619 453 l 585 21 q 576 0 583 7 q 557 -7 568 -7 q 534 2 543 -7 q 526 26 525 11 l 532 119 q 444 24 500 57 q 314 -10 388 -10 q 149 44 213 -10 q 85 182 85 97 q 126 301 85 257 q 258 365 167 344 q 504 385 350 385 l 553 385 l 557 439 q 558 474 558 451 q 520 594 558 556 q 401 632 482 632 q 163 551 283 632 q 149 547 157 547 q 133 557 139 547 q 126 578 126 567 q 140 607 126 594 q 262 667 190 644 q 400 689 333 689 m 317 49 q 474 113 410 49 q 544 276 538 176 l 549 331 l 508 331 q 292 317 369 331 q 183 273 215 304 q 150 185 150 242 q 195 85 150 122 q 317 49 240 49 m 443 903 q 422 893 433 893 q 411 897 415 893 q 407 908 407 901 q 414 926 407 915 l 533 1086 q 574 1113 553 1113 q 598 1102 588 1113 q 608 1076 608 1092 q 597 1051 608 1063 l 443 903 m 410 756 q 292 787 343 756 q 217 882 240 818 q 214 899 214 888 q 223 921 214 913 q 244 929 232 929 q 278 904 265 929 q 333 836 301 857 q 413 815 365 815 q 495 836 460 815 q 561 904 531 857 q 603 928 576 928 q 624 921 615 928 q 632 901 632 914 q 626 882 632 892 q 535 787 592 818 q 410 756 478 756 z "},"ặ":{"ha":724,"x_min":85,"x_max":629,"o":"m 400 689 q 619 474 619 689 q 618 442 619 453 l 585 21 q 576 0 583 7 q 557 -7 568 -7 q 534 2 543 -7 q 526 26 525 11 l 532 119 q 444 24 500 57 q 314 -10 388 -10 q 149 44 213 -10 q 85 182 85 97 q 126 301 85 257 q 258 365 167 344 q 504 385 350 385 l 553 385 l 557 439 q 558 474 558 451 q 520 594 558 556 q 401 632 482 632 q 163 551 283 632 q 149 547 157 547 q 133 557 139 547 q 126 578 126 567 q 140 607 126 594 q 262 667 190 644 q 400 689 333 689 m 317 49 q 474 113 410 49 q 544 276 538 176 l 549 331 l 508 331 q 292 317 369 331 q 183 273 215 304 q 150 185 150 242 q 195 85 150 122 q 317 49 240 49 m 331 -247 q 292 -233 307 -247 q 278 -196 278 -219 q 292 -158 278 -172 q 331 -144 307 -144 q 369 -158 354 -144 q 383 -196 383 -172 q 369 -233 383 -219 q 331 -247 354 -247 m 413 811 q 298 844 347 811 q 224 943 249 876 q 221 961 221 950 q 230 984 221 975 q 251 993 239 993 q 283 967 274 993 q 418 867 319 867 q 568 967 515 867 q 604 993 582 993 q 622 985 615 993 q 629 965 629 978 q 624 943 629 954 q 537 844 593 878 q 413 811 481 811 z "},"ằ":{"ha":724,"x_min":85,"x_max":632,"o":"m 400 689 q 619 474 619 689 q 618 442 619 453 l 585 21 q 576 0 583 7 q 557 -7 568 -7 q 534 2 543 -7 q 526 26 525 11 l 532 119 q 444 24 500 57 q 314 -10 388 -10 q 149 44 213 -10 q 85 182 85 97 q 126 301 85 257 q 258 365 167 344 q 504 385 350 385 l 553 385 l 557 439 q 558 474 558 451 q 520 594 558 556 q 401 632 482 632 q 163 551 283 632 q 149 547 157 547 q 133 557 139 547 q 126 578 126 567 q 140 607 126 594 q 262 667 190 644 q 400 689 333 689 m 317 49 q 474 113 410 49 q 544 276 538 176 l 549 331 l 508 331 q 292 317 369 331 q 183 273 215 304 q 150 185 150 242 q 195 85 150 122 q 317 49 240 49 m 274 1054 q 261 1085 261 1071 q 269 1104 261 1097 q 289 1111 276 1111 q 329 1086 313 1111 l 425 931 q 429 915 429 922 q 424 901 429 907 q 410 896 418 896 q 388 910 397 896 l 274 1054 m 410 756 q 292 787 343 756 q 217 882 240 818 q 214 899 214 888 q 223 921 214 913 q 244 929 232 929 q 278 904 265 929 q 333 836 301 857 q 413 815 365 815 q 495 836 460 815 q 561 904 531 857 q 603 928 576 928 q 624 921 615 928 q 632 901 632 914 q 626 882 632 892 q 535 787 592 818 q 410 756 478 756 z "},"ẳ":{"ha":724,"x_min":85,"x_max":632,"o":"m 400 689 q 619 474 619 689 q 618 442 619 453 l 585 21 q 576 0 583 7 q 557 -7 568 -7 q 534 2 543 -7 q 526 26 525 11 l 532 119 q 444 24 500 57 q 314 -10 388 -10 q 149 44 213 -10 q 85 182 85 97 q 126 301 85 257 q 258 365 167 344 q 504 385 350 385 l 553 385 l 557 439 q 558 474 558 451 q 520 594 558 556 q 401 632 482 632 q 163 551 283 632 q 149 547 157 547 q 133 557 139 547 q 126 578 126 567 q 140 607 126 594 q 262 667 190 644 q 400 689 333 689 m 317 49 q 474 113 410 49 q 544 276 538 176 l 549 331 l 508 331 q 292 317 369 331 q 183 273 215 304 q 150 185 150 242 q 195 85 150 122 q 317 49 240 49 m 451 919 q 442 902 450 908 q 424 896 433 896 q 407 903 414 896 q 400 925 400 910 q 415 960 400 949 q 456 983 429 972 q 488 1000 478 993 q 497 1019 497 1007 q 436 1047 497 1047 q 364 1036 399 1047 q 350 1033 353 1033 q 333 1040 339 1033 q 326 1057 326 1047 q 350 1090 326 1081 q 440 1107 392 1107 q 531 1085 499 1107 q 564 1028 564 1063 q 547 983 564 997 q 496 953 529 968 q 464 938 475 944 q 451 919 453 931 m 410 756 q 292 787 343 756 q 217 882 240 818 q 214 899 214 888 q 223 921 214 913 q 244 929 232 929 q 278 904 265 929 q 333 836 301 857 q 413 815 365 815 q 495 836 460 815 q 561 904 531 857 q 603 928 576 928 q 624 921 615 928 q 632 901 632 914 q 626 882 632 892 q 535 787 592 818 q 410 756 478 756 z "},"ẵ":{"ha":724,"x_min":85,"x_max":646,"o":"m 400 689 q 619 474 619 689 q 618 442 619 453 l 585 21 q 576 0 583 7 q 557 -7 568 -7 q 534 2 543 -7 q 526 26 525 11 l 532 119 q 444 24 500 57 q 314 -10 388 -10 q 149 44 213 -10 q 85 182 85 97 q 126 301 85 257 q 258 365 167 344 q 504 385 350 385 l 553 385 l 557 439 q 558 474 558 451 q 520 594 558 556 q 401 632 482 632 q 163 551 283 632 q 149 547 157 547 q 133 557 139 547 q 126 578 126 567 q 140 607 126 594 q 262 667 190 644 q 400 689 333 689 m 317 49 q 474 113 410 49 q 544 276 538 176 l 549 331 l 508 331 q 292 317 369 331 q 183 273 215 304 q 150 185 150 242 q 195 85 150 122 q 317 49 240 49 m 522 976 q 474 986 499 976 q 415 1014 450 996 q 369 1036 386 1029 q 338 1043 353 1043 q 295 1032 310 1043 q 264 1000 281 1021 q 242 981 251 981 q 226 988 232 981 q 221 1006 221 994 q 237 1051 221 1028 q 281 1091 253 1075 q 343 1107 308 1107 q 391 1097 367 1107 q 449 1069 415 1088 q 494 1048 476 1056 q 528 1040 513 1040 q 571 1052 556 1040 q 601 1085 586 1064 q 624 1104 614 1104 q 640 1097 633 1104 q 646 1078 646 1089 q 630 1032 646 1056 q 585 992 614 1008 q 522 976 557 976 m 410 756 q 292 787 343 756 q 217 882 240 818 q 214 899 214 888 q 222 919 214 911 q 243 928 231 928 q 278 904 265 928 q 333 836 301 857 q 413 815 365 815 q 495 836 460 815 q 561 904 531 857 q 603 928 576 928 q 624 921 615 928 q 632 901 632 914 q 626 882 632 892 q 535 787 592 818 q 410 756 478 756 z "},"ǎ":{"ha":724,"x_min":85,"x_max":619,"o":"m 400 689 q 619 474 619 689 q 618 442 619 453 l 585 21 q 576 0 583 7 q 557 -7 568 -7 q 534 2 543 -7 q 526 26 525 11 l 532 119 q 444 24 500 57 q 314 -10 388 -10 q 149 44 213 -10 q 85 182 85 97 q 126 301 85 257 q 258 365 167 344 q 504 385 350 385 l 553 385 l 557 439 q 558 474 558 451 q 520 594 558 556 q 401 632 482 632 q 163 551 283 632 q 149 547 157 547 q 133 557 139 547 q 126 578 126 567 q 140 607 126 594 q 262 667 190 644 q 400 689 333 689 m 317 49 q 474 113 410 49 q 544 276 538 176 l 549 331 l 508 331 q 292 317 369 331 q 183 273 215 304 q 150 185 150 242 q 195 85 150 122 q 317 49 240 49 m 538 1031 q 564 1047 547 1047 q 584 1039 575 1047 q 593 1017 593 1031 q 586 996 593 1007 l 450 783 q 410 756 433 756 q 375 783 388 756 l 274 994 q 269 1011 269 1003 q 281 1038 269 1026 q 304 1049 292 1049 q 326 1032 318 1049 l 415 821 l 538 1031 z "},"â":{"ha":724,"x_min":85,"x_max":619,"o":"m 400 689 q 619 474 619 689 q 618 442 619 453 l 585 21 q 576 0 583 7 q 557 -7 568 -7 q 534 2 543 -7 q 526 26 525 11 l 532 119 q 444 24 500 57 q 314 -10 388 -10 q 149 44 213 -10 q 85 182 85 97 q 126 301 85 257 q 258 365 167 344 q 504 385 350 385 l 553 385 l 557 439 q 558 474 558 451 q 520 594 558 556 q 401 632 482 632 q 163 551 283 632 q 149 547 157 547 q 133 557 139 547 q 126 578 126 567 q 140 607 126 594 q 262 667 190 644 q 400 689 333 689 m 317 49 q 474 113 410 49 q 544 276 538 176 l 549 331 l 508 331 q 292 317 369 331 q 183 273 215 304 q 150 185 150 242 q 195 85 150 122 q 317 49 240 49 m 306 772 q 279 756 296 756 q 259 764 268 756 q 250 785 250 772 q 257 807 250 799 l 393 1021 q 433 1047 410 1047 q 468 1021 456 1047 l 569 808 q 574 792 574 800 q 563 765 574 776 q 539 754 551 754 q 517 772 525 754 l 428 982 l 306 772 z "},"ấ":{"ha":724,"x_min":85,"x_max":743,"o":"m 400 689 q 619 474 619 689 q 618 442 619 453 l 585 21 q 576 0 583 7 q 557 -7 568 -7 q 534 2 543 -7 q 526 26 525 11 l 532 119 q 444 24 500 57 q 314 -10 388 -10 q 149 44 213 -10 q 85 182 85 97 q 126 301 85 257 q 258 365 167 344 q 504 385 350 385 l 553 385 l 557 439 q 558 474 558 451 q 520 594 558 556 q 401 632 482 632 q 163 551 283 632 q 149 547 157 547 q 133 557 139 547 q 126 578 126 567 q 140 607 126 594 q 262 667 190 644 q 400 689 333 689 m 317 49 q 474 113 410 49 q 544 276 538 176 l 549 331 l 508 331 q 292 317 369 331 q 183 273 215 304 q 150 185 150 242 q 195 85 150 122 q 317 49 240 49 m 583 904 q 567 897 576 897 q 553 903 560 897 q 547 915 547 908 q 554 932 547 922 l 668 1086 q 708 1108 685 1108 q 733 1100 724 1108 q 743 1078 743 1092 q 722 1039 743 1060 l 583 904 m 306 768 q 278 753 294 753 q 254 763 264 753 q 244 786 244 772 q 251 804 244 794 l 388 960 q 429 982 407 982 q 465 960 451 982 l 569 811 q 578 786 578 799 q 569 765 578 774 q 549 757 560 757 q 515 778 529 757 l 425 922 l 306 768 z "},"ậ":{"ha":724,"x_min":85,"x_max":619,"o":"m 400 689 q 619 474 619 689 q 618 442 619 453 l 585 21 q 576 0 583 7 q 557 -7 568 -7 q 534 2 543 -7 q 526 26 525 11 l 532 119 q 444 24 500 57 q 314 -10 388 -10 q 149 44 213 -10 q 85 182 85 97 q 126 301 85 257 q 258 365 167 344 q 504 385 350 385 l 553 385 l 557 439 q 558 474 558 451 q 520 594 558 556 q 401 632 482 632 q 163 551 283 632 q 149 547 157 547 q 133 557 139 547 q 126 578 126 567 q 140 607 126 594 q 262 667 190 644 q 400 689 333 689 m 317 49 q 474 113 410 49 q 544 276 538 176 l 549 331 l 508 331 q 292 317 369 331 q 183 273 215 304 q 150 185 150 242 q 195 85 150 122 q 317 49 240 49 m 331 -247 q 292 -233 307 -247 q 278 -196 278 -219 q 292 -158 278 -172 q 331 -144 307 -144 q 369 -158 354 -144 q 383 -196 383 -172 q 369 -233 383 -219 q 331 -247 354 -247 m 306 772 q 279 756 296 756 q 259 764 268 756 q 250 785 250 772 q 257 807 250 799 l 393 1021 q 433 1047 410 1047 q 468 1021 456 1047 l 569 808 q 574 792 574 800 q 563 765 574 776 q 539 754 551 754 q 517 772 525 754 l 428 982 l 306 772 z "},"ầ":{"ha":724,"x_min":85,"x_max":628,"o":"m 400 689 q 619 474 619 689 q 618 442 619 453 l 585 21 q 576 0 583 7 q 557 -7 568 -7 q 534 2 543 -7 q 526 26 525 11 l 532 119 q 444 24 500 57 q 314 -10 388 -10 q 149 44 213 -10 q 85 182 85 97 q 126 301 85 257 q 258 365 167 344 q 504 385 350 385 l 553 385 l 557 439 q 558 474 558 451 q 520 594 558 556 q 401 632 482 632 q 163 551 283 632 q 149 547 157 547 q 133 557 139 547 q 126 578 126 567 q 140 607 126 594 q 262 667 190 644 q 400 689 333 689 m 317 49 q 474 113 410 49 q 544 276 538 176 l 549 331 l 508 331 q 292 317 369 331 q 183 273 215 304 q 150 185 150 242 q 195 85 150 122 q 317 49 240 49 m 494 1043 q 483 1075 483 1058 q 495 1102 483 1092 q 522 1113 507 1113 q 563 1082 551 1113 l 626 931 q 628 921 628 928 q 621 905 628 911 q 606 899 614 899 q 590 907 597 899 l 494 1043 m 306 768 q 278 753 294 753 q 254 763 264 753 q 244 786 244 772 q 251 804 244 794 l 388 960 q 429 982 407 982 q 465 960 451 982 l 569 811 q 578 786 578 799 q 569 765 578 774 q 549 757 560 757 q 515 778 529 757 l 425 922 l 306 768 z "},"ẩ":{"ha":724,"x_min":85,"x_max":703,"o":"m 400 689 q 619 474 619 689 q 618 442 619 453 l 585 21 q 576 0 583 7 q 557 -7 568 -7 q 534 2 543 -7 q 526 26 525 11 l 532 119 q 444 24 500 57 q 314 -10 388 -10 q 149 44 213 -10 q 85 182 85 97 q 126 301 85 257 q 258 365 167 344 q 504 385 350 385 l 553 385 l 557 439 q 558 474 558 451 q 520 594 558 556 q 401 632 482 632 q 163 551 283 632 q 149 547 157 547 q 133 557 139 547 q 126 578 126 567 q 140 607 126 594 q 262 667 190 644 q 400 689 333 689 m 317 49 q 474 113 410 49 q 544 276 538 176 l 549 331 l 508 331 q 292 317 369 331 q 183 273 215 304 q 150 185 150 242 q 195 85 150 122 q 317 49 240 49 m 588 921 q 578 903 586 910 q 561 897 571 897 q 542 906 550 897 q 536 929 535 914 q 553 962 538 950 q 594 986 568 974 q 626 1003 617 996 q 636 1021 636 1010 q 619 1042 636 1035 q 574 1049 603 1049 q 500 1038 536 1049 q 488 1036 496 1036 q 469 1043 475 1036 q 463 1060 463 1050 q 469 1077 463 1068 q 488 1092 475 1086 q 576 1108 529 1108 q 670 1087 638 1108 q 703 1029 703 1065 q 685 983 703 999 q 632 953 667 968 q 599 937 608 943 q 588 921 589 931 m 306 768 q 278 753 294 753 q 254 763 264 753 q 244 786 244 772 q 251 804 244 794 l 388 960 q 429 982 407 982 q 465 960 451 982 l 569 811 q 578 786 578 799 q 569 765 578 774 q 549 757 560 757 q 515 778 529 757 l 425 922 l 306 768 z "},"ẫ":{"ha":724,"x_min":85,"x_max":647,"o":"m 400 689 q 619 474 619 689 q 618 442 619 453 l 585 21 q 576 0 583 7 q 557 -7 568 -7 q 534 2 543 -7 q 526 26 525 11 l 532 119 q 444 24 500 57 q 314 -10 388 -10 q 149 44 213 -10 q 85 182 85 97 q 126 301 85 257 q 258 365 167 344 q 504 385 350 385 l 553 385 l 557 439 q 558 474 558 451 q 520 594 558 556 q 401 632 482 632 q 163 551 283 632 q 149 547 157 547 q 133 557 139 547 q 126 578 126 567 q 140 607 126 594 q 262 667 190 644 q 400 689 333 689 m 317 49 q 474 113 410 49 q 544 276 538 176 l 549 331 l 508 331 q 292 317 369 331 q 183 273 215 304 q 150 185 150 242 q 195 85 150 122 q 317 49 240 49 m 524 997 q 478 1006 501 997 q 418 1031 454 1014 q 339 1058 365 1058 q 297 1048 311 1058 q 265 1018 282 1038 q 243 1000 253 1000 q 228 1008 233 1000 q 222 1026 222 1015 q 238 1070 222 1047 q 282 1108 254 1093 q 344 1122 310 1122 q 392 1113 368 1122 q 451 1088 415 1104 q 497 1067 479 1074 q 529 1061 514 1061 q 572 1072 557 1061 q 603 1101 586 1082 q 625 1119 615 1119 q 641 1112 635 1119 q 647 1093 647 1104 q 631 1049 647 1072 q 587 1012 615 1026 q 524 997 558 997 m 306 768 q 278 753 294 753 q 254 763 264 753 q 244 786 244 772 q 251 804 244 794 l 388 960 q 429 982 407 982 q 465 960 451 982 l 569 811 q 578 786 578 799 q 569 765 578 774 q 549 757 560 757 q 515 778 529 757 l 425 922 l 306 768 z "},"ȁ":{"ha":724,"x_min":85,"x_max":619,"o":"m 400 689 q 619 474 619 689 q 618 442 619 453 l 585 21 q 576 0 583 7 q 557 -7 568 -7 q 534 2 543 -7 q 526 26 525 11 l 532 119 q 444 24 500 57 q 314 -10 388 -10 q 149 44 213 -10 q 85 182 85 97 q 126 301 85 257 q 258 365 167 344 q 504 385 350 385 l 553 385 l 557 439 q 558 474 558 451 q 520 594 558 556 q 401 632 482 632 q 163 551 283 632 q 149 547 157 547 q 133 557 139 547 q 126 578 126 567 q 140 607 126 594 q 262 667 190 644 q 400 689 333 689 m 317 49 q 474 113 410 49 q 544 276 538 176 l 549 331 l 508 331 q 292 317 369 331 q 183 273 215 304 q 150 185 150 242 q 195 85 150 122 q 317 49 240 49 m 236 999 q 233 1014 233 1010 q 244 1038 233 1029 q 271 1047 256 1047 q 294 1040 283 1047 q 307 1017 304 1032 l 349 778 l 349 775 q 343 763 349 767 q 329 758 338 758 q 314 768 318 758 l 236 999 m 392 997 q 389 1013 389 1008 q 400 1038 389 1028 q 425 1047 411 1047 q 448 1040 438 1047 q 461 1017 458 1032 l 503 778 l 503 775 q 497 763 503 768 q 483 758 490 758 q 468 768 472 758 l 392 997 z "},"ä":{"ha":724,"x_min":85,"x_max":619,"o":"m 400 689 q 619 474 619 689 q 618 442 619 453 l 585 21 q 576 0 583 7 q 557 -7 568 -7 q 534 2 543 -7 q 526 26 525 11 l 532 119 q 444 24 500 57 q 314 -10 388 -10 q 149 44 213 -10 q 85 182 85 97 q 126 301 85 257 q 258 365 167 344 q 504 385 350 385 l 553 385 l 557 439 q 558 474 558 451 q 520 594 558 556 q 401 632 482 632 q 163 551 283 632 q 149 547 157 547 q 133 557 139 547 q 126 578 126 567 q 140 607 126 594 q 262 667 190 644 q 400 689 333 689 m 317 49 q 474 113 410 49 q 544 276 538 176 l 549 331 l 508 331 q 292 317 369 331 q 183 273 215 304 q 150 185 150 242 q 195 85 150 122 q 317 49 240 49 m 311 854 q 276 868 290 854 q 261 903 261 882 q 276 938 261 924 q 311 951 290 951 q 346 938 332 951 q 360 903 360 924 q 345 868 360 882 q 311 854 331 854 m 533 854 q 499 868 514 854 q 485 903 485 882 q 499 938 485 924 q 533 951 513 951 q 569 938 554 951 q 583 903 583 924 q 569 868 583 882 q 533 854 554 854 z "},"ȧ":{"ha":724,"x_min":85,"x_max":619,"o":"m 400 689 q 619 474 619 689 q 618 442 619 453 l 585 21 q 576 0 583 7 q 557 -7 568 -7 q 534 2 543 -7 q 526 26 525 11 l 532 119 q 444 24 500 57 q 314 -10 388 -10 q 149 44 213 -10 q 85 182 85 97 q 126 301 85 257 q 258 365 167 344 q 504 385 350 385 l 553 385 l 557 439 q 558 474 558 451 q 520 594 558 556 q 401 632 482 632 q 163 551 283 632 q 149 547 157 547 q 133 557 139 547 q 126 578 126 567 q 140 607 126 594 q 262 667 190 644 q 400 689 333 689 m 317 49 q 474 113 410 49 q 544 276 538 176 l 549 331 l 508 331 q 292 317 369 331 q 183 273 215 304 q 150 185 150 242 q 195 85 150 122 q 317 49 240 49 m 422 853 q 386 867 401 853 q 371 903 371 881 q 385 940 371 926 q 422 954 400 954 q 459 940 444 954 q 474 903 474 926 q 458 867 474 881 q 422 853 443 853 z "},"ạ":{"ha":724,"x_min":85,"x_max":619,"o":"m 400 689 q 619 474 619 689 q 618 442 619 453 l 585 21 q 576 0 583 7 q 557 -7 568 -7 q 534 2 543 -7 q 526 26 525 11 l 532 119 q 444 24 500 57 q 314 -10 388 -10 q 149 44 213 -10 q 85 182 85 97 q 126 301 85 257 q 258 365 167 344 q 504 385 350 385 l 553 385 l 557 439 q 558 474 558 451 q 520 594 558 556 q 401 632 482 632 q 163 551 283 632 q 149 547 157 547 q 133 557 139 547 q 126 578 126 567 q 140 607 126 594 q 262 667 190 644 q 400 689 333 689 m 317 49 q 474 113 410 49 q 544 276 538 176 l 549 331 l 508 331 q 292 317 369 331 q 183 273 215 304 q 150 185 150 242 q 195 85 150 122 q 317 49 240 49 m 331 -247 q 292 -233 307 -247 q 278 -196 278 -219 q 292 -158 278 -172 q 331 -144 307 -144 q 369 -158 354 -144 q 383 -196 383 -172 q 369 -233 383 -219 q 331 -247 354 -247 z "},"à":{"ha":724,"x_min":85,"x_max":619,"o":"m 400 689 q 619 474 619 689 q 618 442 619 453 l 585 21 q 576 0 583 7 q 557 -7 568 -7 q 534 2 543 -7 q 526 26 525 11 l 532 119 q 444 24 500 57 q 314 -10 388 -10 q 149 44 213 -10 q 85 182 85 97 q 126 301 85 257 q 258 365 167 344 q 504 385 350 385 l 553 385 l 557 439 q 558 474 558 451 q 520 594 558 556 q 401 632 482 632 q 163 551 283 632 q 149 547 157 547 q 133 557 139 547 q 126 578 126 567 q 140 607 126 594 q 262 667 190 644 q 400 689 333 689 m 317 49 q 474 113 410 49 q 544 276 538 176 l 549 331 l 508 331 q 292 317 369 331 q 183 273 215 304 q 150 185 150 242 q 195 85 150 122 q 317 49 240 49 m 257 996 q 251 1018 251 1007 q 262 1042 251 1032 q 286 1053 272 1053 q 305 1046 296 1053 q 319 1026 314 1039 l 425 783 l 428 772 q 422 759 428 764 q 407 754 415 754 q 385 768 393 754 l 257 996 z "},"ả":{"ha":724,"x_min":85,"x_max":619,"o":"m 400 689 q 619 474 619 689 q 618 442 619 453 l 585 21 q 576 0 583 7 q 557 -7 568 -7 q 534 2 543 -7 q 526 26 525 11 l 532 119 q 444 24 500 57 q 314 -10 388 -10 q 149 44 213 -10 q 85 182 85 97 q 126 301 85 257 q 258 365 167 344 q 504 385 350 385 l 553 385 l 557 439 q 558 474 558 451 q 520 594 558 556 q 401 632 482 632 q 163 551 283 632 q 149 547 157 547 q 133 557 139 547 q 126 578 126 567 q 140 607 126 594 q 262 667 190 644 q 400 689 333 689 m 317 49 q 474 113 410 49 q 544 276 538 176 l 549 331 l 508 331 q 292 317 369 331 q 183 273 215 304 q 150 185 150 242 q 195 85 150 122 q 317 49 240 49 m 443 790 q 433 767 442 775 q 414 758 424 758 q 395 767 403 758 q 388 794 388 776 q 403 846 388 824 q 450 896 419 868 q 483 928 472 915 q 493 956 493 942 q 433 990 493 990 q 358 978 397 990 q 343 975 347 975 q 326 981 332 975 q 321 996 321 988 q 344 1028 321 1018 q 438 1047 390 1047 q 525 1024 492 1047 q 558 961 558 1000 q 544 910 558 931 q 500 867 529 890 q 461 830 475 846 q 443 790 447 814 z "},"ȃ":{"ha":724,"x_min":85,"x_max":621,"o":"m 400 689 q 619 474 619 689 q 618 442 619 453 l 585 21 q 576 0 583 7 q 557 -7 568 -7 q 534 2 543 -7 q 526 26 525 11 l 532 119 q 444 24 500 57 q 314 -10 388 -10 q 149 44 213 -10 q 85 182 85 97 q 126 301 85 257 q 258 365 167 344 q 504 385 350 385 l 553 385 l 557 439 q 558 474 558 451 q 520 594 558 556 q 401 632 482 632 q 163 551 283 632 q 149 547 157 547 q 133 557 139 547 q 126 578 126 567 q 140 607 126 594 q 262 667 190 644 q 400 689 333 689 m 317 49 q 474 113 410 49 q 544 276 538 176 l 549 331 l 508 331 q 292 317 369 331 q 183 273 215 304 q 150 185 150 242 q 195 85 150 122 q 317 49 240 49 m 428 993 q 544 960 494 993 q 618 861 593 928 q 621 844 621 856 q 612 821 621 831 q 590 811 603 811 q 572 818 581 811 q 557 839 563 825 q 424 938 519 938 q 274 839 324 938 q 238 811 260 811 q 219 819 226 811 q 211 839 211 826 q 217 861 211 850 q 306 960 250 926 q 428 993 361 993 z "},"ā":{"ha":724,"x_min":85,"x_max":631,"o":"m 400 689 q 619 474 619 689 q 618 442 619 453 l 585 21 q 576 0 583 7 q 557 -7 568 -7 q 534 2 543 -7 q 526 26 525 11 l 532 119 q 444 24 500 57 q 314 -10 388 -10 q 149 44 213 -10 q 85 182 85 97 q 126 301 85 257 q 258 365 167 344 q 504 385 350 385 l 553 385 l 557 439 q 558 474 558 451 q 520 594 558 556 q 401 632 482 632 q 163 551 283 632 q 149 547 157 547 q 133 557 139 547 q 126 578 126 567 q 140 607 126 594 q 262 667 190 644 q 400 689 333 689 m 317 49 q 474 113 410 49 q 544 276 538 176 l 549 331 l 508 331 q 292 317 369 331 q 183 273 215 304 q 150 185 150 242 q 195 85 150 122 q 317 49 240 49 m 251 874 q 214 904 214 874 q 225 926 214 918 q 256 933 236 933 l 593 933 q 631 903 631 933 q 619 881 631 889 q 589 874 608 874 l 251 874 z "},"ą":{"ha":724,"x_min":85,"x_max":636,"o":"m 597 -192 q 617 -186 607 -186 q 631 -192 625 -186 q 636 -207 636 -199 q 615 -242 636 -229 q 522 -264 575 -264 q 417 -228 456 -264 q 378 -132 378 -192 q 417 -23 378 -69 q 528 42 456 24 l 532 121 q 442 23 499 56 q 314 -10 385 -10 q 149 44 213 -10 q 85 182 85 97 q 125 301 85 257 q 257 365 165 344 q 504 385 349 385 l 553 385 l 557 439 q 558 474 558 451 q 520 594 558 556 q 401 632 482 632 q 163 551 285 632 q 149 546 156 546 q 133 556 139 546 q 126 578 126 565 q 140 607 126 597 q 263 666 192 643 q 400 689 335 689 q 565 634 510 689 q 619 474 619 579 q 618 442 619 453 l 585 22 q 577 4 583 10 q 561 0 571 -1 q 477 -35 514 -3 q 440 -122 440 -67 q 463 -188 440 -165 q 528 -211 486 -211 q 597 -192 558 -211 m 317 49 q 473 113 408 49 q 544 276 538 176 l 549 331 l 508 331 q 283 315 360 331 q 178 269 206 300 q 150 185 150 239 q 194 85 150 122 q 317 49 239 49 z "},"å":{"ha":724,"x_min":85,"x_max":619,"o":"m 400 689 q 619 474 619 689 q 618 442 619 453 l 585 21 q 576 0 583 7 q 557 -7 568 -7 q 534 2 543 -7 q 526 26 525 11 l 532 119 q 444 24 500 57 q 314 -10 388 -10 q 149 44 213 -10 q 85 182 85 97 q 126 301 85 257 q 258 365 167 344 q 504 385 350 385 l 553 385 l 557 439 q 558 474 558 451 q 520 594 558 556 q 401 632 482 632 q 163 551 283 632 q 149 547 157 547 q 133 557 139 547 q 126 578 126 567 q 140 607 126 594 q 262 667 190 644 q 400 689 333 689 m 317 49 q 474 113 410 49 q 544 276 538 176 l 549 331 l 508 331 q 292 317 369 331 q 183 273 215 304 q 150 185 150 242 q 195 85 150 122 q 317 49 240 49 m 421 769 q 326 808 365 769 q 286 901 286 846 q 326 995 286 957 q 421 1033 365 1033 q 515 995 476 1033 q 554 901 554 957 q 515 808 554 846 q 421 769 476 769 m 421 828 q 472 849 451 828 q 492 901 492 871 q 472 954 492 933 q 421 975 451 975 q 370 954 390 975 q 350 901 350 933 q 370 849 350 871 q 421 828 390 828 z "},"ǻ":{"ha":724,"x_min":85,"x_max":711,"o":"m 632 1165 q 668 1185 647 1185 q 698 1172 685 1185 q 711 1142 711 1160 q 692 1106 711 1121 l 532 979 q 557 903 557 943 q 517 810 557 849 q 422 772 478 772 q 328 810 367 772 q 289 903 289 847 q 328 997 289 958 q 422 1035 367 1035 q 503 1008 468 1035 l 632 1165 m 422 829 q 473 851 453 829 q 493 903 493 872 q 473 956 493 935 q 422 976 453 976 q 372 956 392 976 q 351 903 351 935 q 372 851 351 872 q 422 829 392 829 m 400 689 q 565 634 510 689 q 619 474 619 579 q 618 442 619 453 l 585 21 q 576 0 583 7 q 557 -7 568 -7 q 535 1 544 -7 q 526 26 525 10 l 532 121 q 442 23 499 56 q 314 -10 385 -10 q 149 44 213 -10 q 85 182 85 97 q 125 301 85 257 q 257 365 165 344 q 504 385 349 385 l 553 385 l 557 439 q 558 474 558 451 q 520 594 558 556 q 401 632 482 632 q 163 551 283 632 q 149 546 156 546 q 133 556 139 546 q 126 578 126 565 q 140 607 126 597 q 262 667 190 644 q 400 689 333 689 m 317 49 q 473 113 408 49 q 544 276 538 176 l 549 331 l 508 331 q 283 315 360 331 q 178 269 206 300 q 150 185 150 239 q 194 85 150 122 q 317 49 239 49 z "},"ã":{"ha":724,"x_min":85,"x_max":635,"o":"m 400 689 q 619 474 619 689 q 618 442 619 453 l 585 21 q 576 0 583 7 q 557 -7 568 -7 q 534 2 543 -7 q 526 26 525 11 l 532 119 q 444 24 500 57 q 314 -10 388 -10 q 149 44 213 -10 q 85 182 85 97 q 126 301 85 257 q 258 365 167 344 q 504 385 350 385 l 553 385 l 557 439 q 558 474 558 451 q 520 594 558 556 q 401 632 482 632 q 163 551 283 632 q 149 547 157 547 q 133 557 139 547 q 126 578 126 567 q 140 607 126 594 q 262 667 190 644 q 400 689 333 689 m 317 49 q 474 113 410 49 q 544 276 538 176 l 549 331 l 508 331 q 292 317 369 331 q 183 273 215 304 q 150 185 150 242 q 195 85 150 122 q 317 49 240 49 m 510 826 q 463 840 486 826 q 407 878 439 853 q 359 910 376 900 q 326 919 342 919 q 288 906 301 919 q 258 867 274 892 q 243 844 249 850 q 231 838 238 838 q 215 844 221 838 q 208 863 208 851 q 225 910 208 882 q 270 960 242 939 q 332 981 299 981 q 379 968 356 981 q 438 931 403 956 q 517 889 490 889 q 557 903 542 889 q 586 942 572 917 q 614 969 601 969 q 629 963 624 969 q 635 946 635 956 q 618 897 635 925 q 573 847 601 868 q 510 826 544 826 z "},"æ":{"ha":1197,"x_min":85,"x_max":1135,"o":"m 615 324 l 615 308 q 677 117 615 188 q 856 47 739 47 q 964 67 908 47 q 1058 119 1019 86 q 1082 129 1069 129 q 1101 122 1093 129 q 1110 104 1110 114 q 1097 78 1110 90 q 990 15 1060 40 q 857 -10 919 -10 q 676 42 747 -10 q 578 190 606 94 q 476 44 547 97 q 310 -10 404 -10 q 148 44 211 -10 q 85 182 85 97 q 125 301 85 257 q 257 365 165 344 q 504 385 349 385 l 560 385 l 564 439 q 565 476 565 453 q 526 594 565 556 q 407 632 488 632 q 163 551 282 632 q 149 546 156 546 q 133 555 139 546 q 126 576 126 564 q 140 607 126 594 q 263 667 190 644 q 401 689 335 689 q 618 551 583 689 q 723 653 658 617 q 872 689 788 689 q 1067 612 1000 689 q 1135 382 1135 535 q 1122 344 1135 357 q 1089 331 1110 331 l 617 331 l 615 324 m 878 635 q 708 574 774 635 q 622 401 642 513 l 621 385 l 1076 385 q 1028 571 1082 507 q 878 635 974 635 m 313 49 q 476 116 408 49 q 551 290 543 183 l 554 331 l 508 331 q 283 315 360 331 q 178 269 206 300 q 150 185 150 239 q 194 86 150 124 q 313 49 238 49 z "},"ǽ":{"ha":1197,"x_min":85,"x_max":1135,"o":"m 615 324 l 615 308 q 677 117 615 188 q 856 47 739 47 q 964 67 908 47 q 1058 119 1019 86 q 1082 129 1069 129 q 1101 122 1093 129 q 1110 104 1110 114 q 1097 78 1110 90 q 990 15 1060 40 q 857 -10 919 -10 q 676 42 747 -10 q 578 190 606 94 q 476 44 547 97 q 310 -10 404 -10 q 148 44 211 -10 q 85 182 85 97 q 125 301 85 257 q 257 365 165 344 q 504 385 349 385 l 560 385 l 564 439 q 565 476 565 453 q 526 594 565 556 q 407 632 488 632 q 163 551 282 632 q 149 546 156 546 q 133 555 139 546 q 126 576 126 564 q 140 607 126 594 q 263 667 190 644 q 401 689 335 689 q 618 551 583 689 q 723 653 658 617 q 872 689 788 689 q 1067 612 1000 689 q 1135 382 1135 535 q 1122 344 1135 357 q 1089 331 1110 331 l 617 331 l 615 324 m 878 635 q 708 574 774 635 q 622 401 642 513 l 621 385 l 1076 385 q 1028 571 1082 507 q 878 635 974 635 m 313 49 q 476 116 408 49 q 551 290 543 183 l 554 331 l 508 331 q 283 315 360 331 q 178 269 206 300 q 150 185 150 239 q 194 86 150 124 q 313 49 238 49 m 638 760 q 625 756 631 756 q 612 762 618 756 q 606 776 606 768 q 613 792 606 786 l 826 1035 q 858 1050 840 1050 q 885 1040 874 1050 q 896 1014 896 1029 q 881 983 896 997 l 638 760 z "},"b":{"ha":785,"x_min":90,"x_max":714,"o":"m 426 689 q 576 649 511 689 q 678 535 642 608 q 714 363 714 461 q 674 167 714 251 q 563 36 635 82 q 400 -10 492 -10 q 252 29 315 -10 q 160 138 189 68 l 151 25 q 140 1 150 8 q 119 -7 131 -7 q 99 1 107 -7 q 92 25 90 8 l 167 961 q 178 981 168 975 q 199 988 188 988 q 219 981 211 988 q 225 960 226 974 l 194 560 q 290 655 228 621 q 426 689 353 689 m 407 47 q 585 133 521 47 q 650 369 650 218 q 590 563 650 494 q 421 632 529 632 q 240 546 306 632 q 175 308 175 460 q 235 115 175 182 q 407 47 294 47 z "},"c":{"ha":653,"x_min":72,"x_max":635,"o":"m 363 -10 q 210 31 275 -10 q 108 144 144 71 q 72 314 72 217 q 112 511 72 426 q 224 642 151 596 q 397 689 297 689 q 527 667 467 689 q 622 610 588 644 q 635 582 635 596 q 626 559 635 568 q 607 550 618 550 q 588 558 596 550 q 392 633 497 633 q 202 547 269 633 q 135 310 135 461 q 196 117 135 188 q 369 47 257 47 q 469 67 424 47 q 556 122 514 86 q 575 131 564 131 q 595 122 586 131 q 604 101 604 113 q 597 85 604 94 q 493 15 554 40 q 363 -10 432 -10 z "},"ć":{"ha":653,"x_min":72,"x_max":688,"o":"m 363 -10 q 210 31 275 -10 q 108 144 144 71 q 72 314 72 217 q 112 511 72 426 q 224 642 151 596 q 397 689 297 689 q 527 667 467 689 q 622 610 588 644 q 635 582 635 596 q 626 559 635 568 q 607 550 618 550 q 588 558 596 550 q 392 633 497 633 q 202 547 269 633 q 135 310 135 461 q 196 117 135 188 q 369 47 257 47 q 469 67 424 47 q 556 122 514 86 q 575 131 564 131 q 595 122 586 131 q 604 101 604 113 q 597 85 604 94 q 493 15 554 40 q 363 -10 432 -10 m 429 760 q 417 756 422 756 q 403 762 410 756 q 397 776 397 768 q 404 792 397 786 l 618 1035 q 650 1050 632 1050 q 676 1040 665 1050 q 688 1014 688 1029 q 672 983 688 997 l 429 760 z "},"č":{"ha":653,"x_min":72,"x_max":635,"o":"m 363 -10 q 210 31 275 -10 q 108 144 144 71 q 72 314 72 217 q 112 511 72 426 q 224 642 151 596 q 397 689 297 689 q 527 667 467 689 q 622 610 588 644 q 635 582 635 596 q 626 559 635 568 q 607 550 618 550 q 588 558 596 550 q 392 633 497 633 q 202 547 269 633 q 135 310 135 461 q 196 117 135 188 q 369 47 257 47 q 469 67 424 47 q 556 122 514 86 q 575 131 564 131 q 595 122 586 131 q 604 101 604 113 q 597 85 604 94 q 493 15 554 40 q 363 -10 432 -10 m 540 1031 q 567 1047 550 1047 q 587 1039 578 1047 q 596 1017 596 1031 q 589 996 596 1007 l 453 783 q 413 756 436 756 q 378 783 390 756 l 276 994 q 272 1011 272 1003 q 283 1038 272 1026 q 307 1049 294 1049 q 329 1032 321 1049 l 418 821 l 540 1031 z "},"ç":{"ha":653,"x_min":72,"x_max":635,"o":"m 622 610 q 635 582 635 596 q 626 559 635 568 q 607 550 618 550 q 588 558 596 550 q 392 633 497 633 q 202 547 269 633 q 135 310 135 461 q 196 117 135 188 q 369 47 257 47 q 469 67 424 47 q 556 122 514 86 q 575 131 564 131 q 595 122 586 131 q 604 101 604 113 q 597 85 604 94 q 495 17 556 42 q 367 -10 435 -8 l 357 -62 q 397 -57 372 -57 q 466 -82 440 -57 q 492 -150 492 -107 q 451 -233 492 -203 q 340 -264 411 -264 q 240 -246 288 -264 q 221 -221 221 -237 q 230 -203 221 -211 q 253 -196 239 -196 q 265 -197 261 -196 q 306 -207 289 -204 q 344 -210 322 -210 q 410 -195 388 -210 q 433 -153 433 -181 q 382 -110 433 -110 q 340 -117 360 -110 q 315 -125 321 -125 q 297 -117 304 -125 q 290 -100 289 -110 l 308 -6 q 136 98 200 13 q 72 314 72 183 q 112 511 72 426 q 224 642 151 596 q 397 689 297 689 q 527 667 467 689 q 622 610 588 644 z "},"ḉ":{"ha":653,"x_min":72,"x_max":688,"o":"m 618 1035 q 650 1050 632 1050 q 676 1040 665 1050 q 688 1014 688 1029 q 672 983 688 997 l 429 760 q 417 756 424 756 q 403 762 410 756 q 397 776 397 768 q 404 792 397 786 l 618 1035 m 397 689 q 527 667 467 689 q 622 610 588 644 q 635 582 635 596 q 626 559 635 568 q 607 550 618 550 q 588 558 596 550 q 392 633 497 633 q 202 547 269 633 q 135 310 135 461 q 196 117 135 188 q 369 47 257 47 q 469 67 424 47 q 556 122 514 86 q 575 131 564 131 q 595 122 586 131 q 604 101 604 113 q 597 85 604 94 q 495 17 556 42 q 367 -10 435 -8 l 357 -62 q 397 -57 372 -57 q 466 -82 440 -57 q 492 -150 492 -107 q 451 -233 492 -203 q 340 -264 411 -264 q 240 -246 288 -264 q 221 -221 221 -237 q 230 -203 221 -211 q 253 -196 239 -196 q 265 -197 261 -196 q 306 -207 289 -204 q 344 -210 322 -210 q 410 -195 388 -210 q 433 -153 433 -181 q 382 -110 433 -110 q 340 -117 360 -110 q 315 -125 321 -125 q 297 -117 304 -125 q 290 -100 289 -110 l 308 -6 q 136 98 200 13 q 72 314 72 183 q 112 511 72 426 q 224 642 151 596 q 397 689 297 689 z "},"ĉ":{"ha":653,"x_min":72,"x_max":635,"o":"m 363 -10 q 210 31 275 -10 q 108 144 144 71 q 72 314 72 217 q 112 511 72 426 q 224 642 151 596 q 397 689 297 689 q 527 667 467 689 q 622 610 588 644 q 635 582 635 596 q 626 559 635 568 q 607 550 618 550 q 588 558 596 550 q 392 633 497 633 q 202 547 269 633 q 135 310 135 461 q 196 117 135 188 q 369 47 257 47 q 469 67 424 47 q 556 122 514 86 q 575 131 564 131 q 595 122 586 131 q 604 101 604 113 q 597 85 604 94 q 493 15 554 40 q 363 -10 432 -10 m 308 772 q 282 756 299 756 q 262 764 271 756 q 253 785 253 772 q 260 807 253 799 l 396 1021 q 436 1047 413 1047 q 471 1021 458 1047 l 572 808 q 576 792 576 800 q 565 765 576 776 q 542 754 554 754 q 519 772 528 754 l 431 982 l 308 772 z "},"ċ":{"ha":653,"x_min":72,"x_max":635,"o":"m 363 -10 q 210 31 275 -10 q 108 144 144 71 q 72 314 72 217 q 112 511 72 426 q 224 642 151 596 q 397 689 297 689 q 527 667 467 689 q 622 610 588 644 q 635 582 635 596 q 626 559 635 568 q 607 550 618 550 q 588 558 596 550 q 392 633 497 633 q 202 547 269 633 q 135 310 135 461 q 196 117 135 188 q 369 47 257 47 q 469 67 424 47 q 556 122 514 86 q 575 131 564 131 q 595 122 586 131 q 604 101 604 113 q 597 85 604 94 q 493 15 554 40 q 363 -10 432 -10 m 425 853 q 389 867 404 853 q 374 903 374 881 q 388 940 374 926 q 425 954 403 954 q 462 940 447 954 q 476 903 476 926 q 461 867 476 881 q 425 853 446 853 z "},"d":{"ha":785,"x_min":72,"x_max":717,"o":"m 689 988 q 715 961 717 988 l 643 25 q 632 1 642 8 q 611 -7 622 -7 q 590 1 599 -7 q 583 25 582 8 l 592 121 q 494 25 557 60 q 360 -10 432 -10 q 210 31 275 -10 q 108 144 144 71 q 72 315 72 218 q 112 511 72 426 q 222 642 151 596 q 386 689 293 689 q 533 651 471 689 q 625 544 596 613 l 657 960 q 668 981 658 974 q 689 988 678 988 m 365 47 q 546 133 481 47 q 611 371 611 219 q 551 565 611 497 q 379 632 492 632 q 200 547 265 632 q 135 314 135 461 q 196 117 135 188 q 365 47 257 47 z "},"ð":{"ha":749,"x_min":69,"x_max":717,"o":"m 681 929 q 690 932 686 932 q 709 923 701 932 q 717 903 717 914 q 700 879 717 886 l 558 821 q 683 447 683 676 q 597 103 683 217 q 360 -10 510 -10 q 149 71 228 -10 q 69 288 69 151 q 108 467 69 389 q 218 589 147 546 q 382 632 289 632 q 539 592 474 632 q 629 486 604 551 q 506 800 622 676 l 304 718 q 294 715 299 715 q 276 724 283 715 q 268 744 268 733 q 285 768 268 761 l 463 840 q 303 932 396 897 q 288 943 293 936 q 282 958 282 950 q 292 981 282 972 q 315 983 303 989 q 518 863 438 938 l 681 929 m 364 47 q 544 125 478 47 q 610 343 610 203 q 548 514 610 453 q 378 575 486 575 q 198 498 264 575 q 132 283 132 421 q 192 108 132 168 q 364 47 251 47 z "}}}
